<?xml version="1.0" encoding="utf-8"?>
<!-- Generator: Adobe Illustrator 16.0.4, SVG Export Plug-In . SVG Version: 6.00 Build 0)  -->
<!DOCTYPE svg PUBLIC "-//W3C//DTD SVG 1.1//EN" "http://www.w3.org/Graphics/SVG/1.1/DTD/svg11.dtd">
<svg version="1.1" id="Layer_1" xmlns="http://www.w3.org/2000/svg" xmlns:xlink="http://www.w3.org/1999/xlink" x="0px" y="0px"
	 width="239.988px" height="53.105px" viewBox="0 0 239.988 53.105" enable-background="new 0 0 239.988 53.105"
	 xml:space="preserve">
<path fill="#808080" d="M214.532,35.069c0-0.908,0.473-1.084,1.346-0.596c1.605,0.899,3.281,1.827,3.281,1.827
	c0.057-0.507,0.5-0.937,1.463-0.721c0.896,0.214,1.898,0.436,1.898,0.436s-0.539-1.217-0.781-1.756
	c-0.443-0.983-0.019-1.455,0.408-1.59c0,0-0.611-0.414-1.015-0.696c-0.862-0.604-0.662-1.191,0.179-1.55
	c1.149-0.489,2.578-1.134,2.578-1.134c-0.457-0.263-0.988-1.012-0.39-1.875c0.584-0.859,1.467-2.05,1.467-2.05s-1.557,0.009-2.594,0
	c-0.94-0.018-1.172-0.762-1.162-1.3c0,0-1.532,1.085-2.625,1.823c-0.92,0.619-1.762,0.014-1.621-1.05
	c0.218-1.67,0.416-3.516,0.416-3.516c-0.571,0.381-1.545,0.372-1.977-0.564c-0.637-1.38-1.381-2.988-1.381-2.988
	s-0.73,1.608-1.371,2.988c-0.426,0.936-1.406,0.945-1.973,0.564c0,0,0.194,1.846,0.415,3.516c0.142,1.064-0.702,1.669-1.618,1.05
	c-1.095-0.738-2.631-1.823-2.631-1.823c0.01,0.538-0.216,1.282-1.156,1.3c-1.041,0.009-2.595,0-2.595,0s0.886,1.191,1.476,2.05
	c0.59,0.863,0.055,1.612-0.391,1.875c0,0,1.424,0.645,2.569,1.134c0.844,0.359,1.051,0.946,0.174,1.55
	c-0.399,0.282-1.022,0.696-1.022,0.696c0.44,0.135,0.86,0.607,0.416,1.59c-0.236,0.539-0.781,1.756-0.781,1.756
	s1.004-0.222,1.902-0.436c0.963-0.216,1.412,0.214,1.467,0.721c0,0,1.668-0.928,3.279-1.827c0.87-0.488,1.338-0.312,1.344,0.596
	v2.247c0,1.298-0.232,2.717-0.726,3.476c-6.163-0.674-11.258-5.603-11.27-12.108c-0.008-6.696,5.594-12.128,12.492-12.128
	c6.899,0,12.49,5.432,12.49,12.128c0,6.258-4.863,11.374-11.097,12.05v1.641c7.328-0.665,13.056-6.543,13.056-13.691
	c0-7.594-6.472-13.748-14.449-13.748c-7.978,0-14.441,6.154-14.441,13.748c0,6.688,5.008,12.246,11.654,13.493
	c1.121,0.216,1.834,0.381,2.422,1.106c0.713-1.299,0.875-4.05,0.875-5.601V35.069z"/>
<path fill="#808080" d="M47.119,28.02h1.458c3.971,0,4.782-0.643,4.782-2.577c0-1.894-1.736-2.198-4.328-2.198h-1.912V28.02z
	 M43.902,36.027V21.35h7.148c3.819,0.012,5.522,1.602,5.652,3.652c0.054,0.909-0.166,1.847-0.818,2.588
	c-0.642,0.743-0.953,0.996-2.152,1.572l5.418,6.865h-4.009l-4.779-6.063h-3.243v6.063H43.902z"/>
<path fill="#808080" d="M16.721,30.157h5.091l-2.527-5.844L16.721,30.157z M11.646,36.036l6.432-14.686h3.908l6.361,14.686h-3.985
	l-1.71-3.938h-6.779l-1.733,3.938H11.646z"/>
<rect x="32.92" y="21.341" fill="#808080" width="3.445" height="14.686"/>
<path fill="#808080" d="M83.797,35.528c-1.641,0.65-3.698,0.971-6.083,0.968c-2.914-0.012-5.18-0.7-6.797-2.08
	c-1.623-1.374-2.433-3.288-2.422-5.743c0.003-2.5,0.827-4.421,2.468-5.76c1.646-1.349,3.981-2.011,7.021-2.001
	c1.936,0,3.869,0.195,5.781,0.586l-0.01,2.41c-2.168-0.644-4.186-0.965-5.652-0.965c-1.874-0.004-3.321,0.487-4.345,1.474
	c-1.017,0.986-1.53,2.393-1.536,4.218c-0.003,1.788,0.538,3.182,1.629,4.19c1.088,1.004,2.6,1.506,4.542,1.513
	c1.744,0.009,3.709-0.363,5.404-1.094V35.528z"/>
<path fill="#808080" d="M93.077,30.157h5.087l-2.525-5.844L93.077,30.157z M88.001,36.036l6.431-14.686h3.911l6.356,14.686h-3.983
	l-1.713-3.938h-6.775l-1.731,3.938H88.001z"/>
<path fill="#808080" d="M135.536,30.157h5.092l-2.531-5.844L135.536,30.157z M130.46,36.036l6.438-14.686h3.908l6.353,14.686h-3.986
	l-1.705-3.938h-6.783l-1.729,3.938H130.46z"/>
<path fill="#808080" d="M175.831,30.157h5.086l-2.531-5.844L175.831,30.157z M170.755,36.036l6.438-14.686h3.908l6.353,14.686
	h-3.988l-1.707-3.938h-6.777l-1.733,3.938H170.755z"/>
<polygon fill="#808080" points="109.597,36.036 109.597,21.35 113.562,21.35 122.753,31.829 122.759,21.35 125.554,21.35 
	125.554,36.026 121.95,36.026 112.384,25.061 112.384,36.036 "/>
<path fill="#808080" d="M155.437,33.938l2.542,0.002c1.795,0.007,3.135-0.434,4.02-1.321c0.895-0.888,1.334-2.237,1.344-4.05
	c0-1.399-0.348-2.571-1.057-3.501c-0.486-0.641-1.07-1.091-1.758-1.335c-0.693-0.243-1.693-0.372-3.008-0.378l-2.083-0.003V33.938z
	 M151.999,36.027V21.35h7.109c2.553,0,4.506,0.625,5.86,1.836c1.359,1.211,2.031,2.96,2.029,5.225
	c-0.012,2.422-0.736,4.305-2.18,5.633c-1.445,1.337-3.463,1.992-6.047,1.983H151.999z"/>
</svg>
