<?xml version="1.0" encoding="utf-8"?>
<!-- Generator: Adobe Illustrator 16.0.4, SVG Export Plug-In . SVG Version: 6.00 Build 0)  -->
<!DOCTYPE svg PUBLIC "-//W3C//DTD SVG 1.1//EN" "http://www.w3.org/Graphics/SVG/1.1/DTD/svg11.dtd">
<svg version="1.1" id="Isolation_Mode" xmlns="http://www.w3.org/2000/svg" xmlns:xlink="http://www.w3.org/1999/xlink" x="0px"
	 y="0px" width="153.334px" height="144.333px" viewBox="0 0 153.334 144.333" enable-background="new 0 0 153.334 144.333"
	 xml:space="preserve">
<g>
	<defs>
		<path id="SVGID_1_" d="M96.974,7.147c-0.257,0.2-0.548,0.767-0.835,1.676c-2.212,7.028-4.441,13.822-6.68,20.372
			c-0.666,1.919-1.063,4.388-0.84,5.529c0.272,1.466,0.591,2.906,0.96,4.32c1.04-2.551,2.071-5.143,3.095-7.78
			c0.355-0.937,0.736-1.549,1.1-1.826c0.518-0.401,0.988-0.122,1.271,0.917c2.721,9.669,7.232,18.283,13.361,25.607
			c0.861-0.857,1.706-1.729,2.547-2.614c-3.625-4.421-6.711-9.272-9.22-14.509c-0.476-0.996-0.384-2.72,0.172-3.82
			c0.69-1.354,1.366-2.723,2.043-4.109c-3.003-7.014-5.109-14.614-6.258-22.728c-0.102-0.749-0.287-1.115-0.518-1.115
			C97.106,7.067,97.04,7.096,96.974,7.147"/>
	</defs>
	<clipPath id="SVGID_2_">
		<use xlink:href="#SVGID_1_"  overflow="visible"/>
	</clipPath>
	
		<linearGradient id="SVGID_3_" gradientUnits="userSpaceOnUse" x1="-309.8662" y1="529.7529" x2="-309.1792" y2="529.7529" gradientTransform="matrix(35.0389 -27.1941 -27.6724 -35.6555 25601.9707 10504.9648)">
		<stop  offset="0" style="stop-color:#A0A0A0"/>
		<stop  offset="0.199" style="stop-color:#818181"/>
		<stop  offset="0.5" style="stop-color:#565656"/>
		<stop  offset="0.7824" style="stop-color:#7E7E7E"/>
		<stop  offset="1" style="stop-color:#A0A0A0"/>
	</linearGradient>
	<polygon clip-path="url(#SVGID_2_)" fill="url(#SVGID_3_)" points="64.714,25.447 102.472,-3.859 134.636,37.584 96.875,66.891 	
		"/>
</g>
<g>
	<path fill="#CCCCCC" d="M108.043,22.561c-0.175,0.135-0.339,0.358-0.482,0.672c-1.185,2.613-2.389,5.172-3.613,7.678
		c2.457,5.729,5.508,11.066,9.133,15.969c0.929,1.277,1.004,3.084,0.099,4.068c-0.732,0.809-1.479,1.609-2.229,2.401
		c2.431,2.954,5.1,5.726,8.007,8.284c0.83,0.734,2.226,0.869,3.087,0.32c1.43-0.934,2.837-1.887,4.221-2.861
		c-5.316-4.602-9.953-9.807-13.865-15.551c-0.567-0.816-0.591-2.084-0.09-2.841c1.177-1.728,2.337-3.49,3.479-5.291
		c-2.358-3.789-4.45-7.778-6.256-11.946C109.106,22.498,108.534,22.18,108.043,22.561"/>
</g>
<g>
	<defs>
		<path id="SVGID_4_" d="M101.904,35.02c-0.556,1.101-0.647,2.824-0.172,3.82c2.509,5.236,5.595,10.088,9.22,14.509
			c0.751-0.791,1.494-1.593,2.227-2.401c0.903-0.984,0.83-2.791-0.099-4.068c-3.625-4.902-6.675-10.24-9.133-15.969
			C103.271,32.297,102.595,33.666,101.904,35.02"/>
	</defs>
	<clipPath id="SVGID_5_">
		<use xlink:href="#SVGID_4_"  overflow="visible"/>
	</clipPath>
	
		<linearGradient id="SVGID_6_" gradientUnits="userSpaceOnUse" x1="-309.9907" y1="529.7363" x2="-309.3042" y2="529.7363" gradientTransform="matrix(35.0103 -27.1718 -27.6498 -35.6263 25593.6309 10502.5703)">
		<stop  offset="0" style="stop-color:#CCCCCC"/>
		<stop  offset="0.258" style="stop-color:#B3B3B3"/>
		<stop  offset="0.5" style="stop-color:#A0A0A0"/>
		<stop  offset="0.8461" style="stop-color:#BEBEBE"/>
		<stop  offset="1" style="stop-color:#CCCCCC"/>
	</linearGradient>
	<polygon clip-path="url(#SVGID_5_)" fill="url(#SVGID_6_)" points="90.391,39.345 109.262,24.7 124.948,44.913 106.078,59.56 	"/>
</g>
<g>
	<defs>
		<path id="SVGID_7_" d="M79.458,68.977c-0.828,1.578-1.357,3.258-1.122,3.766c2.068,4.666,5.754,8.27,10.776,10.412
			c0.565,0.235,2.679,0.192,4.67-0.095c6.8-1.014,13.216-2.181,19.298-3.517c0.598-0.127,1.023-0.305,1.284-0.502
			c0.525-0.41,0.36-0.93-0.529-1.381c-1.899-0.961-3.702-2.017-5.416-3.16c-2.205,0.783-4.455,1.535-6.745,2.267
			c-1.852,0.569-4.029,0.634-4.812,0.128c-6.022-3.9-10.552-9.243-13.388-15.695C82.16,63.871,80.824,66.465,79.458,68.977"/>
	</defs>
	<clipPath id="SVGID_8_">
		<use xlink:href="#SVGID_7_"  overflow="visible"/>
	</clipPath>
	
		<linearGradient id="SVGID_9_" gradientUnits="userSpaceOnUse" x1="-307.9697" y1="530.1943" x2="-307.283" y2="530.1943" gradientTransform="matrix(23.7667 -23.7667 -23.7667 -23.7667 20006.6484 5364.0312)">
		<stop  offset="0" style="stop-color:#E1E1E1"/>
		<stop  offset="0.503" style="stop-color:#CCCCCC"/>
		<stop  offset="0.7213" style="stop-color:#D1D1D1"/>
		<stop  offset="0.9651" style="stop-color:#DFDFDF"/>
		<stop  offset="1" style="stop-color:#E1E1E1"/>
	</linearGradient>
	<polygon clip-path="url(#SVGID_8_)" fill="url(#SVGID_9_)" points="67.006,72.293 96.496,42.807 125.982,72.293 96.496,101.78 	"/>
</g>
<g>
	<defs>
		<path id="SVGID_10_" d="M117.647,32.547c-0.101,0.076-0.194,0.184-0.277,0.318c-0.521,0.854-1.047,1.706-1.582,2.547
			c4.029,6.48,8.838,12.393,14.396,17.666c1.004,0.963,1.224,2.212,0.435,2.824c-0.009,0.006-0.016,0.009-0.021,0.016
			c-1.419,1.084-2.861,2.138-4.334,3.174c1.331,1.154,2.704,2.262,4.116,3.342c0.8,0.615,2.073,0.776,2.805,0.369
			c2.504-1.391,4.92-2.836,7.287-4.345c0.032-0.019,0.059-0.04,0.082-0.063c0.601-0.463,0.342-1.369-0.555-2.102
			c-8.15-6.592-15.063-14.312-20.62-23.021c-0.372-0.587-0.829-0.901-1.24-0.901C117.964,32.371,117.798,32.43,117.647,32.547"/>
	</defs>
	<clipPath id="SVGID_11_">
		<use xlink:href="#SVGID_10_"  overflow="visible"/>
	</clipPath>
	
		<linearGradient id="SVGID_12_" gradientUnits="userSpaceOnUse" x1="-305.8877" y1="533.209" x2="-305.2009" y2="533.209" gradientTransform="matrix(16.3666 -12.7021 -12.9257 -16.6545 12018.8408 5048.9619)">
		<stop  offset="0" style="stop-color:#E1E1E1"/>
		<stop  offset="0.5" style="stop-color:#CCCCCC"/>
		<stop  offset="1" style="stop-color:#E1E1E1"/>
	</linearGradient>
	<polygon clip-path="url(#SVGID_11_)" fill="url(#SVGID_12_)" points="100.851,43.967 131.618,20.086 156.091,51.616 
		125.323,75.496 	"/>
</g>
<g>
	<defs>
		<path id="SVGID_13_" d="M112.306,40.7c-0.497,0.757-0.474,2.026,0.094,2.841c3.912,5.744,8.549,10.949,13.863,15.551
			c1.473-1.036,2.915-2.09,4.334-3.174c0.006-0.007,0.013-0.01,0.021-0.016c0.789-0.612,0.569-1.861-0.435-2.824
			c-5.558-5.273-10.366-11.186-14.396-17.666C114.647,37.21,113.486,38.973,112.306,40.7"/>
	</defs>
	<clipPath id="SVGID_14_">
		<use xlink:href="#SVGID_13_"  overflow="visible"/>
	</clipPath>
	
		<linearGradient id="SVGID_15_" gradientUnits="userSpaceOnUse" x1="-305.9165" y1="533.1055" x2="-305.2297" y2="533.1055" gradientTransform="matrix(16.3734 -12.7074 -12.931 -16.6615 12020.0547 5045.3589)">
		<stop  offset="0" style="stop-color:#A0A0A0"/>
		<stop  offset="0.5" style="stop-color:#A4A4A4"/>
		<stop  offset="1" style="stop-color:#A0A0A0"/>
	</linearGradient>
	<polygon clip-path="url(#SVGID_14_)" fill="url(#SVGID_15_)" points="100.342,44.314 124.04,25.918 142.878,50.189 119.176,68.586 
			"/>
</g>
<g>
	<defs>
		<path id="SVGID_16_" d="M83.517,53.162c-0.896,2.035-1.432,4.371-1.137,5.248c0.331,0.949,0.696,1.879,1.094,2.789
			c1.482-3.014,2.935-6.128,4.358-9.344c0.305-0.688,0.632-1.166,0.942-1.409c0.504-0.388,0.98-0.196,1.279,0.643
			c3.513,9.689,9.771,17.675,18.365,23.411c3.896-1.379,7.659-2.843,11.314-4.408c0.275-0.111,0.511-0.25,0.701-0.396
			c0.968-0.751,0.861-1.87-0.332-2.747c-4.38-3.236-8.285-6.91-11.697-10.986c-1.607,1.617-3.245,3.189-4.91,4.719
			c-0.054,0.043-0.107,0.092-0.159,0.131c-0.975,0.752-2.251,0.76-2.895-0.021c-5.07-6.223-8.744-13.533-10.862-21.746
			C87.595,43.915,85.575,48.619,83.517,53.162"/>
	</defs>
	<clipPath id="SVGID_17_">
		<use xlink:href="#SVGID_16_"  overflow="visible"/>
	</clipPath>
	
		<linearGradient id="SVGID_18_" gradientUnits="userSpaceOnUse" x1="-315.6851" y1="529.249" x2="-314.9984" y2="529.249" gradientTransform="matrix(42.2597 62.2867 61.3125 -41.3967 -19020.8281 41608.7656)">
		<stop  offset="0" style="stop-color:#E2E2E2"/>
		<stop  offset="0.015" style="stop-color:#DFDFDF"/>
		<stop  offset="0.3451" style="stop-color:#9C9C9C"/>
		<stop  offset="0.5" style="stop-color:#818181"/>
		<stop  offset="0.6675" style="stop-color:#999999"/>
		<stop  offset="1" style="stop-color:#D3D3D3"/>
	</linearGradient>
	<polygon clip-path="url(#SVGID_17_)" fill="url(#SVGID_18_)" points="109.05,20.84 137.9,63.363 94.438,92.707 65.586,50.184 	"/>
</g>
<g>
	<path fill="#194680" d="M93.773,29.438c-0.363,0.278-0.747,0.891-1.1,1.827c-1.023,2.638-2.055,5.229-3.095,7.783
		c2.118,8.21,5.792,15.521,10.861,21.743c0.646,0.781,1.921,0.773,2.896,0.021c0.052-0.038,0.107-0.087,0.159-0.13
		c1.665-1.529,3.303-3.102,4.91-4.719c-6.129-7.324-10.641-15.938-13.361-25.607c-0.202-0.736-0.499-1.096-0.842-1.096
		C94.067,29.26,93.921,29.32,93.773,29.438"/>
</g>
<g>
	<defs>
		<path id="SVGID_19_" d="M93.773,29.438c-0.363,0.277-0.744,0.89-1.1,1.826c-1.023,2.638-2.055,5.229-3.095,7.78
			c2.118,8.213,5.792,15.523,10.862,21.746c0.644,0.781,1.92,0.773,2.895,0.021c0.052-0.039,0.105-0.088,0.159-0.131
			c1.665-1.529,3.303-3.102,4.91-4.719c-6.129-7.324-10.641-15.938-13.361-25.607c-0.202-0.736-0.499-1.096-0.842-1.096
			C94.067,29.26,93.921,29.316,93.773,29.438"/>
	</defs>
	<use xlink:href="#SVGID_19_"  overflow="visible" fill="#404040"/>
	<clipPath id="SVGID_20_">
		<use xlink:href="#SVGID_19_"  overflow="visible"/>
	</clipPath>
	
		<rect x="89.625" y="30.037" transform="matrix(-0.7898 0.6133 -0.6133 -0.7898 203.195 21.6616)" clip-path="url(#SVGID_20_)" fill="#404040" width="16.523" height="31.215"/>
</g>
<g>
	<path fill="#808080" d="M88.774,50.446c-0.313,0.243-0.638,0.722-0.942,1.409c-1.424,3.216-2.875,6.33-4.358,9.344
		c2.836,6.454,7.365,11.795,13.388,15.695c0.783,0.506,2.961,0.445,4.812-0.128c2.29-0.731,4.54-1.483,6.746-2.267
		c-8.596-5.74-14.854-13.722-18.366-23.411c-0.202-0.563-0.482-0.837-0.797-0.837C89.105,50.252,88.941,50.319,88.774,50.446"/>
	<path fill="#808080" d="M29.113,119.977v-3.022c-2.053,2.396-5.303,3.705-8.951,3.705c-4.448,0-9.522-3.077-9.522-9.12
		c0-6.388,5.02-9.008,9.522-9.008c3.762,0,6.898,1.197,8.951,3.533v-4.104c0-3.192-2.682-5.132-6.44-5.132
		c-3.08,0-5.817,1.142-8.154,3.535l-2.51-4.163c3.192-3.081,7.184-4.446,11.576-4.446c6.156,0,11.518,2.563,11.518,9.921v18.302
		H29.113z M29.113,113.703v-4.217c-1.425-1.883-3.992-2.851-6.556-2.851c-3.365,0-5.929,1.994-5.929,4.959
		c0,3.024,2.563,4.961,5.929,4.961C25.121,116.556,27.688,115.587,29.113,113.703"/>
	<path fill="#808080" d="M49.502,116.158v21.107h-5.985V92.439h5.985V96.2c2.052-2.734,5.241-4.446,8.838-4.446
		c7.126,0,12.199,5.359,12.199,14.425c0,9.066-5.073,14.48-12.199,14.48C54.859,120.659,51.782,119.063,49.502,116.158
		 M64.382,106.179c0-5.356-3.081-9.124-7.812-9.124c-2.791,0-5.699,1.598-7.067,3.648v10.892c1.311,2.053,4.276,3.766,7.067,3.766
		C61.301,115.36,64.382,111.539,64.382,106.179"/>
	<path fill="#808080" d="M76.196,106.179c0-7.982,5.815-14.425,13.967-14.425c8.27,0,13.516,6.271,13.516,14.938v1.483H82.467
		c0.456,4.102,3.535,7.58,8.723,7.58c2.737,0,5.872-1.082,7.869-3.076l2.737,3.936c-2.796,2.622-6.842,4.046-11.175,4.046
		C82.295,120.661,76.196,114.902,76.196,106.179 M90.106,96.659c-5.074,0-7.471,3.931-7.698,7.237H97.92
		C97.744,100.648,95.522,96.659,90.106,96.659"/>
	<polygon fill="#808080" points="129.037,119.977 121.91,109.829 114.728,119.977 107.998,119.977 118.147,105.836 108.626,92.439 
		115.353,92.439 121.855,101.731 128.408,92.439 135.136,92.439 125.615,105.836 135.764,119.977 	"/>
</g>
</svg>
