<?xml version="1.0" encoding="utf-8"?>
<!-- Generator: Adobe Illustrator 16.0.4, SVG Export Plug-In . SVG Version: 6.00 Build 0)  -->
<!DOCTYPE svg PUBLIC "-//W3C//DTD SVG 1.1//EN" "http://www.w3.org/Graphics/SVG/1.1/DTD/svg11.dtd">
<svg version="1.1" id="Layer_1" xmlns="http://www.w3.org/2000/svg" xmlns:xlink="http://www.w3.org/1999/xlink" x="0px" y="0px"
	 width="154.494px" height="99.053px" viewBox="0 0 154.494 99.053" enable-background="new 0 0 154.494 99.053"
	 xml:space="preserve">
<path fill="#808080" d="M23.274,30.307c-1.749,1.055-3.94,2.025-6.687,2.025c-5.826,0-10.293-4.466-10.293-10.404
	c0-6.132,4.8-10.517,10.404-10.517c3.052,0,5.161,1.055,6.521,1.999l-0.306,0.832c-1.442-0.971-3.495-2.025-6.27-2.025
	c-4.8,0-9.488,3.912-9.488,9.656c0,5.41,3.995,9.655,9.488,9.655c2.637,0,4.744-0.917,6.465-2.024L23.274,30.307z M22.912,28.559
	c-1.692,1-3.717,1.971-6.27,1.971c-4.855,0-8.352-3.691-8.352-8.657c0-5.217,3.829-8.656,8.352-8.656
	c2.275,0,4.467,0.915,5.966,2.053l-0.333,0.805c-1.416-1.111-3.663-2.053-5.688-2.053c-3.94,0-7.436,3.051-7.436,7.795
	c0,4.496,3.08,7.907,7.546,7.907c2.442,0,4.384-0.969,6.021-1.996L22.912,28.559z M28.187,31.862h-0.833V11.885h0.833V31.862z
	 M29.24,31.862V11.885h0.832v19.977H29.24z M35.345,11.635h0.999l9.766,13.816l-0.028-13.566h0.805v15.982L36.288,12.828H36.15
	v19.034h-0.805V11.635z M47.748,32.11l-9.794-13.872l0.028,13.624h-0.805v-16.01l10.627,15.066h0.111V11.885h0.804V32.11H47.748z
	 M53.937,31.862V11.885h9.045v0.776h-8.213v18.423h8.269v0.777H53.937z M62.843,20.097h-7.019v-6.492h7.158v0.777h-6.325v4.938
	h6.187V20.097z M63.037,30.14h-7.213v-9.099h7.019v0.775h-6.187v7.546h6.381V30.14z M61.318,6.169L56.6,9.443l-0.388-0.472
	l4.412-3.413L61.318,6.169z M57.017,9.914L61.9,6.836l0.638,0.665l-5.16,2.886L57.017,9.914z M67.284,11.69h0.776l8.795,11.765
	l8.739-11.765h0.806v20.172h-0.833v-18.84h-0.027l-8.656,11.903l-8.74-11.903h-0.028v18.84h-0.832V11.69z M76.968,27.867h-0.195
	l-6.825-9.295v13.291h-0.833V16.129l7.741,10.488h0.028l7.685-10.459v15.705h-0.832V18.598L76.968,27.867z M90.593,31.862h-0.888
	l8.157-20.421h0.777l7.935,20.421h-0.888l-7.379-19.284h-0.111L90.593,31.862z M92.591,31.862h-0.887l1.69-4.523h9.49l1.691,4.523
	h-0.887l-1.388-3.747h-8.324L92.591,31.862z M102.524,26.395h-8.768l4.495-11.237L102.524,26.395z M98.252,17.24l-3.357,8.378h6.49
	L98.252,17.24z M120.144,31.862h-3.052V11.885h3.219c6.16,0,10.377,4.078,10.377,9.794C130.688,27.45,126.277,31.862,120.144,31.862
	z M120.311,12.661h-2.386v18.423h2.219c5.715,0,9.685-4.106,9.685-9.351C129.829,16.435,125.944,12.661,120.311,12.661z
	 M120.144,30.14h-1.166V13.605h1.277c5.021,0,8.434,3.19,8.434,8.128C128.69,26.562,125.361,30.14,120.144,30.14z M120.284,14.382
	h-0.5v14.981h0.388c4.606,0,7.686-3.19,7.686-7.574C127.858,17.378,124.778,14.382,120.284,14.382z M147.449,25.175
	c0,3.94-2.525,7.103-6.688,7.103c-4.16,0-6.575-3.246-6.575-7.075V11.885h0.833v13.234c0,3.635,2.19,6.352,5.799,6.352
	c3.606,0,5.798-2.662,5.798-6.352V11.885h0.833V25.175z M145.561,11.885v13.178c0,3.218-1.72,5.41-4.743,5.41
	c-3.026,0-4.744-2.192-4.744-5.437V11.885h0.83V24.98c0,2.857,1.444,4.689,3.94,4.689c2.414,0,3.885-1.803,3.885-4.662V11.885
	H145.561z"/>
<path fill="#808080" d="M26.964,61.33c-2.053-0.138-3.58-0.861-4.522-1.498c-1.554,1.026-3.497,1.721-5.771,1.721
	c-5.771,0-10.376-4.495-10.376-10.405c0-5.909,4.716-10.516,10.488-10.516c5.771,0,10.376,4.579,10.376,10.404
	c0,3.247-1.442,5.717-2.802,7.16c0.86,0.526,1.831,0.887,3.967,0.941l-0.472,0.751c-2.192-0.141-3.384-0.611-4.744-1.583
	c1.97-1.748,3.191-4.355,3.191-7.213c0-5.384-4.162-9.655-9.572-9.655c-5.327,0-9.571,4.355-9.571,9.655
	c0,5.382,4.161,9.655,9.571,9.655c2.358,0,4.134-0.75,5.716-1.887c1.47,1.082,2.718,1.607,4.993,1.748L26.964,61.33z M22.385,56.42
	c1.054-1.249,1.942-2.97,1.942-5.272c0-4.3-3.246-7.879-7.658-7.879c-4.356,0-7.546,3.522-7.546,7.768
	c0,4.302,3.246,7.881,7.658,7.881c1.665,0,2.941-0.528,3.718-0.944l-3.191-3.273l0.472-0.722l3.967,4.162
	c-1.359,0.998-3.107,1.608-5.021,1.608c-4.8,0-8.435-3.718-8.435-8.655c0-4.939,3.635-8.657,8.435-8.657
	c4.8,0,8.434,3.718,8.434,8.657c0,2.607-1.082,4.993-2.802,6.519l-4.079-4.383l0.472-0.721L22.385,56.42z M44.335,54.393
	c0,3.94-2.525,7.103-6.687,7.103c-4.162,0-6.575-3.246-6.575-7.075V41.103h0.832v13.234c0,3.635,2.192,6.354,5.799,6.354
	c3.606,0,5.799-2.664,5.799-6.354V41.103h0.833V54.393z M42.448,41.103v13.18c0,3.219-1.721,5.411-4.745,5.411
	s-4.745-2.192-4.745-5.439V41.103h0.833V54.2c0,2.857,1.442,4.688,3.939,4.688c2.414,0,3.884-1.804,3.884-4.662V41.103H42.448z
	 M49.193,61.08V41.103h9.044v0.777h-8.212v18.424h8.268v0.775H49.193z M58.099,49.317h-7.02v-6.493h7.158V43.6h-6.326v4.939h6.188
	V49.317z M58.293,59.36h-7.213v-9.102h7.02v0.777h-6.188v7.547h6.382V59.36z M56.573,35.388l-4.717,3.274l-0.388-0.472l4.412-3.413
	L56.573,35.388z M52.273,39.134l4.883-3.079l0.638,0.666l-5.161,2.884L52.273,39.134z M66.591,41.103
	c4.134,0,6.076,2.026,6.076,4.717c0,1.722-0.971,2.996-2.219,3.83c1.803,0.804,3.523,2.468,3.523,5.215
	c0,3.885-3.135,6.215-7.463,6.215H62.54V41.103H66.591z M63.372,41.881v18.424h3.163c3.801,0,6.576-1.942,6.576-5.41
	c0-2.581-1.832-4.552-4.384-5.134c1.553-0.555,3.107-1.942,3.107-3.911c0-2.304-1.665-3.969-5.244-3.969H63.372z M64.426,42.824
	h2.137c2.885,0,4.217,1.304,4.217,3.079c0,1.998-1.748,3.497-4.301,3.497h-2.053V42.824z M64.426,50.288h1.859
	c3.718,0,5.771,1.942,5.771,4.633c0,2.885-2.358,4.439-5.494,4.439h-2.137V50.288z M65.231,48.65h1.276
	c1.915,0,3.413-0.915,3.413-2.718c0-1.499-1.109-2.36-3.385-2.36h-1.304V48.65z M65.231,58.612h1.36
	c2.469,0,4.605-1.167,4.605-3.664c0-2.44-1.969-3.883-4.938-3.883h-1.026V58.612z M77.691,61.08V41.103h9.045v0.777h-8.213v18.424
	h8.269v0.775H77.691z M86.596,49.317h-7.02v-6.493h7.159V43.6H80.41v4.939h6.186V49.317z M86.792,59.36h-7.215v-9.102h7.02v0.777
	H80.41v7.547h6.381V59.36z M106.657,59.527c-1.746,1.054-3.938,2.025-6.685,2.025c-5.826,0-10.294-4.468-10.294-10.405
	c0-6.132,4.801-10.516,10.404-10.516c3.053,0,5.161,1.056,6.521,1.999l-0.306,0.832c-1.442-0.972-3.496-2.025-6.269-2.025
	c-4.8,0-9.49,3.912-9.49,9.655c0,5.411,3.996,9.655,9.49,9.655c2.635,0,4.743-0.916,6.463-2.025L106.657,59.527z M106.297,57.778
	c-1.691,0.999-3.718,1.97-6.269,1.97c-4.856,0-8.352-3.688-8.352-8.655c0-5.217,3.829-8.657,8.352-8.657
	c2.275,0,4.466,0.916,5.964,2.054l-0.333,0.805c-1.413-1.11-3.662-2.055-5.687-2.055c-3.94,0-7.436,3.053-7.436,7.797
	c0,4.496,3.08,7.908,7.545,7.908c2.442,0,4.385-0.972,6.021-1.998L106.297,57.778z M116.871,61.08h-0.887l8.157-20.42h0.775
	l7.937,20.42h-0.889l-7.381-19.282h-0.109L116.871,61.08z M118.869,61.08h-0.888l1.693-4.522h9.488l1.693,4.522h-0.887l-1.389-3.745
	h-8.324L118.869,61.08z M128.802,55.615h-8.767l4.494-11.237L128.802,55.615z M125.334,39.523l-5.161-2.886l0.638-0.666l4.883,3.079
	L125.334,39.523z M124.529,46.459l-3.357,8.379h6.493L124.529,46.459z M122.087,34.695l4.412,3.412l-0.389,0.473l-4.717-3.275
	L122.087,34.695z"/>
<path fill="#808080" d="M9.539,90.3v-6.325h2.025c3.524,0,7.436-2.192,7.436-6.52c0-3.914-3.302-6.354-7.103-6.354H8.486V90.3H7.653
	V70.323h4.272c4.468,0,7.963,2.803,7.963,7.076c0,4.909-4.272,7.353-8.462,7.353h-1.054V90.3H9.539z M9.539,72.044h2.358
	c3.219,0,6.049,1.997,6.049,5.411c0,3.912-3.274,5.604-6.41,5.604H9.539V72.044z M10.372,82.282h1.193
	c2.525,0,5.521-1.389,5.521-4.773c0-3.135-2.58-4.688-5.215-4.688h-1.499V82.282z M21.138,90.3h-0.888l8.157-20.42h0.777
	l7.935,20.42h-0.887l-7.38-19.283h-0.11L21.138,90.3z M23.136,90.3h-0.887l1.693-4.523h9.488l1.692,4.523h-0.888l-1.387-3.746
	h-8.323L23.136,90.3z M33.069,84.835h-8.767l4.495-11.237L33.069,84.835z M28.797,75.678l-3.357,8.379h6.493L28.797,75.678z
	 M52.216,90.3l-8.102-6.492h0.333c4.328,0,7.574-2.275,7.574-6.549c0-3.744-3.08-6.158-7.297-6.158h-3.468V90.3h-0.832V70.323h4.328
	c4.883,0,8.157,2.72,8.157,6.936c0,4.8-3.69,6.937-6.797,7.132l7.38,5.909H52.216z M42.311,72.044h2.386
	c3.773,0,6.27,1.997,6.27,5.271c0,3.802-2.608,5.632-6.492,5.632h-2.164V72.044z M43.144,85.222V90.3h-0.833v-6.492h0.361
	L50.69,90.3h-1.332L43.144,85.222z M43.144,82.171h1.358c3.191,0,5.605-1.471,5.605-4.855c0-2.83-2.22-4.495-5.439-4.495h-1.525
	V82.171z M57.823,90.3H56.99V70.323h0.833V90.3z M58.877,90.3V70.323h0.833V90.3H58.877z M63.594,88.496
	c1.859,0.944,3.496,1.333,5.188,1.333c3.468,0,5.688-2.22,5.688-4.911c0-2.415-1.221-3.774-4.689-5.91
	c-2.802-1.775-3.497-2.83-3.497-4.216c0-1.61,1.11-3.081,3.663-3.081c1.304,0,2.581,0.361,3.912,1.026l-0.25,0.777
	c-1.359-0.694-2.497-1.026-3.69-1.026c-1.969,0-2.802,1.053-2.802,2.304c0,1.108,0.721,1.996,3.136,3.522
	c3.356,2.108,5.049,3.827,5.049,6.604c0,3.079-2.553,5.715-6.548,5.715c-1.748,0-3.468-0.36-5.383-1.331L63.594,88.496z
	 M64.122,86.777c1.886,0.941,3.107,1.331,4.716,1.331c2.219,0,3.718-1.276,3.718-3.136c0-1.637-0.999-2.747-3.801-4.494
	c-3.246-2.025-4.384-3.662-4.384-5.66c0-2.58,2.109-4.855,5.632-4.855c1.582,0,3.024,0.417,4.356,1.082l-0.25,0.777
	c-1.332-0.665-2.664-1.055-4.134-1.055c-2.941,0-4.772,1.886-4.772,4.051c0,1.692,0.943,3.107,4.023,5.021
	c3.302,2.055,4.161,3.22,4.161,5.133c0,2.275-1.776,3.912-4.578,3.912c-1.637,0-2.996-0.305-4.939-1.304L64.122,86.777z"/>
</svg>
