<?xml version="1.0" encoding="utf-8"?>
<!-- Generator: Adobe Illustrator 16.0.4, SVG Export Plug-In . SVG Version: 6.00 Build 0)  -->
<!DOCTYPE svg PUBLIC "-//W3C//DTD SVG 1.1//EN" "http://www.w3.org/Graphics/SVG/1.1/DTD/svg11.dtd">
<svg version="1.1" id="Isolation_Mode" xmlns="http://www.w3.org/2000/svg" xmlns:xlink="http://www.w3.org/1999/xlink" x="0px"
	 y="0px" width="219px" height="63px" viewBox="0 0 219 63" enable-background="new 0 0 219 63" xml:space="preserve">
<path fill="#808080" d="M132.692,33.001l-0.626,4.415h-4.829v8.86c0,1.609,0.798,2.327,2.781,2.327c0.761,0,1.505-0.155,2.013-0.274
	l-0.628,4.411c-0.796,0.175-1.808,0.279-2.881,0.279c-4.859,0-8.236-1.54-8.236-6.568v-9.035h-2.746l0.592-4.415h2.154v-5.872
	l6.951-0.904v6.776H132.692z"/>
<path fill="#808080" d="M117.047,52.744h-6.148l-0.523-2.714c-2.085,1.772-4.266,3.093-7.088,3.093c-4.211,0-6.43-2.258-6.43-6.081
	v-14.04h6.983v12.371c0,1.41,0.7,2.399,2.365,2.399c1.341,0,2.607-0.686,3.857-1.774V33.001h6.984V52.744z"/>
<path fill="#808080" d="M51.571,52.744h-7.054V40.438c0-1.632-0.592-2.432-2.295-2.432c-1.341,0-2.607,0.686-3.858,1.772v12.966
	h-6.985V33.001h6.152l0.519,2.71c2.037-1.728,4.223-3.092,7.092-3.092c4.21,0,6.429,2.398,6.429,6.706V52.744z"/>
<path fill="#808080" d="M145.608,41.064c-0.229-2.979-1.414-4.517-3.544-4.517c-1.943,0-3.347,1.501-3.58,4.517H145.608z
	 M152.282,42.836c0,0.605-0.047,1.242-0.142,1.564h-13.622c0.371,3.098,2.509,4.311,5.562,4.311c2.499,0,4.937-0.804,7.435-2.051
	l-0.693,4.898c-1.808,0.835-4.046,1.565-7.611,1.565c-6.799,0-11.675-3.141-11.675-10.183c0-6.437,4.546-10.32,10.703-10.32
	C149.178,32.62,152.282,37.122,152.282,42.836"/>
<path fill="#808080" d="M89.326,42.904c0-3.178-1.485-5.315-4.168-5.315c-2.684,0-4.102,2.063-4.102,5.281
	c0,3.179,1.464,5.352,4.102,5.352C87.84,48.223,89.326,46.083,89.326,42.904 M96.068,42.871c0,6.317-4.656,10.252-10.948,10.252
	c-6.247,0-10.843-3.899-10.843-10.218c0-6.314,4.632-10.285,10.88-10.285C91.447,32.62,96.068,36.556,96.068,42.871"/>
<path fill="#808080" d="M68.025,34.146c0-2.573-1.86-4.03-5.284-4.03h-2.537v8.134h2.468C66.049,38.251,68.025,36.804,68.025,34.146
	 M77.719,52.079l-8.349,1.362l-6.942-10.257h-2.154v9.56h-7.889V24.939h11.156c7.726,0,12.268,3.078,12.268,8.792
	c0,3.822-2.114,6.44-5.907,7.887L77.719,52.079z"/>
<path fill="#808080" d="M24.058,41.064c-0.231-2.979-1.417-4.517-3.545-4.517c-1.943,0-3.347,1.501-3.579,4.517H24.058z
	 M30.729,42.836c0,0.605-0.047,1.242-0.137,1.564H16.969c0.371,3.098,2.508,4.311,5.559,4.311c2.499,0,4.94-0.804,7.438-2.051
	l-0.694,4.898c-1.808,0.835-4.048,1.565-7.613,1.565c-6.799,0-11.675-3.141-11.675-10.183c0-6.437,4.55-10.32,10.702-10.32
	C27.626,32.62,30.729,37.122,30.729,42.836"/>
<path fill="#808080" d="M62.511,20.426v-9.238h4.516c2.426,0,3.471,1.01,3.471,2.248c0.171,0.683,0,1.241-0.521,1.69
	c-0.35,0.459-0.524,0.571-1.225,1.022l3.308,4.278h-2.433l-2.95-3.831h-2.085v3.831H62.511 M64.592,15.354h0.871
	c2.427,0,2.945-0.336,2.945-1.577c0-1.24-1.036-1.351-2.599-1.351h-1.217V15.354z"/>
<path fill="#808080" d="M42.369,20.426l3.992-9.238h2.428l3.991,9.238h-2.422l-1.046-2.479H44.97l-1.042,2.479H42.369z M45.5,16.709
	h3.289l-1.556-3.603L45.5,16.709z"/>
<rect x="55.734" y="11.299" fill="#808080" width="2.087" height="9.127"/>
<path fill="#808080" d="M87.513,20.086c-1.046,0.34-2.257,0.568-3.826,0.568c-1.73,0-3.295-0.45-4.16-1.24
	c-1.044-0.904-1.564-2.143-1.564-3.607c0-1.579,0.52-2.813,1.564-3.609c1.043-0.899,2.43-1.234,4.336-1.234
	c1.224,0,2.43,0.119,3.65,0.335v1.466c-1.387-0.339-2.607-0.567-3.65-0.567c-1.036,0-2.084,0.339-2.603,0.909
	c-0.69,0.671-1.04,1.57-1.04,2.7c0,1.13,0.35,1.917,1.04,2.59c0.697,0.566,1.567,0.902,2.772,0.902c1.224,0,2.435-0.225,3.481-0.674
	V20.086"/>
<path fill="#808080" d="M90.12,20.426l3.988-9.238h2.436l3.991,9.238h-2.432l-1.041-2.479h-4.34l-1.044,2.479H90.12z M93.238,16.709
	h3.306l-1.569-3.603L93.238,16.709z"/>
<path fill="#808080" d="M116.685,20.426l3.994-9.238h2.423l3.999,9.238h-2.432l-1.039-2.479h-4.347l-1.042,2.479H116.685z
	 M119.808,16.709h3.294l-1.736-3.603L119.808,16.709z"/>
<path fill="#808080" d="M141.856,20.426l4.005-9.238h2.418l4.003,9.238h-2.442l-1.036-2.479h-4.341l-1.036,2.479H141.856z
	 M144.983,16.709h3.296l-1.731-3.603L144.983,16.709z"/>
<polygon fill="#808080" points="103.663,20.426 103.663,11.188 106.092,11.188 111.818,17.724 111.818,11.188 113.559,11.188 
	113.559,20.426 111.293,20.426 105.393,13.556 105.393,20.426 "/>
<path fill="#808080" d="M130.056,20.426v-9.237h4.504c1.564,0,2.777,0.452,3.644,1.126c0.871,0.792,1.229,1.913,1.229,3.271
	c0,1.573-0.358,2.7-1.229,3.602c-1.037,0.787-2.245,1.238-3.814,1.238H130.056 M132.307,19.074h1.564
	c1.039,0,1.915-0.223,2.427-0.788c0.694-0.562,0.868-1.463,0.868-2.588c0-0.903-0.174-1.578-0.688-2.142
	c-0.181-0.449-0.521-0.677-1.042-0.907c-0.345-0.112-1.048-0.223-1.913-0.223h-1.217V19.074z"/>
<path fill="#808080" d="M185.362,42.929c0-1.571,0.81-1.856,2.31-1.022c2.756,1.544,5.629,3.136,5.629,3.136
	c0.097-0.882,0.861-1.623,2.511-1.239c1.542,0.357,3.267,0.739,3.267,0.739s-0.928-2.094-1.346-3.011
	c-0.756-1.683-0.026-2.493,0.71-2.729c0,0-1.054-0.718-1.746-1.199c-1.489-1.035-1.142-2.043,0.304-2.663
	c1.977-0.844,4.42-1.943,4.42-1.943c-0.773-0.459-1.692-1.739-0.668-3.229c1.012-1.47,2.524-3.521,2.524-3.521s-2.674,0.026-4.448,0
	c-1.621-0.022-2.019-1.299-1.998-2.226c0,0-2.631,1.862-4.513,3.134c-1.586,1.07-3.019,0.029-2.785-1.808
	c0.376-2.871,0.715-6.043,0.715-6.043c-0.978,0.668-2.648,0.636-3.387-0.956c-1.104-2.367-2.365-5.141-2.365-5.141
	s-1.267,2.774-2.364,5.141c-0.735,1.592-2.417,1.624-3.394,0.956c0,0,0.339,3.172,0.713,6.043c0.239,1.837-1.196,2.878-2.779,1.808
	c-1.881-1.272-4.517-3.134-4.517-3.134c0.021,0.927-0.374,2.204-1.996,2.226c-1.771,0.026-4.441,0-4.441,0s1.513,2.051,2.52,3.521
	c1.022,1.49,0.097,2.77-0.666,3.229c0,0,2.445,1.099,4.412,1.943c1.451,0.62,1.802,1.628,0.306,2.663
	c-0.693,0.481-1.748,1.199-1.748,1.199c0.739,0.236,1.469,1.046,0.706,2.729c-0.414,0.917-1.34,3.011-1.34,3.011
	s1.727-0.382,3.271-0.739c1.655-0.384,2.417,0.357,2.511,1.239c0,0,2.866-1.592,5.631-3.136c1.496-0.834,2.301-0.549,2.311,1.022
	v3.859c0,2.223-0.394,4.663-1.243,5.961c-10.587-1.153-19.34-9.616-19.363-20.789c-0.011-11.5,9.614-20.822,21.464-20.822
	c11.839,0,21.452,9.322,21.452,20.822c0,10.753-8.364,19.539-19.061,20.695v2.818c12.574-1.147,22.416-11.234,22.416-23.513
	c0-13.039-11.112-23.619-24.808-23.619c-13.704,0-24.812,10.58-24.812,23.619c0,11.482,8.609,21.035,20.015,23.176
	c1.927,0.361,3.157,0.646,4.164,1.889c1.22-2.228,1.509-6.945,1.509-9.614V42.929z"/>
</svg>
