<?xml version="1.0" encoding="utf-8"?>
<!-- Generator: Adobe Illustrator 16.0.4, SVG Export Plug-In . SVG Version: 6.00 Build 0)  -->
<!DOCTYPE svg PUBLIC "-//W3C//DTD SVG 1.1//EN" "http://www.w3.org/Graphics/SVG/1.1/DTD/svg11.dtd">
<svg version="1.1" id="Isolation_Mode" xmlns="http://www.w3.org/2000/svg" xmlns:xlink="http://www.w3.org/1999/xlink" x="0px"
	 y="0px" width="423.333px" height="58px" viewBox="0 0 423.333 58" enable-background="new 0 0 423.333 58" xml:space="preserve">
<g>
	<path fill="#75797B" d="M57.505,30.333v-7.258h6.209v-3.04c0-3.612,1.038-6.494,3.114-8.65c2.076-2.154,4.76-3.231,8.052-3.231
		c2.112,0,4.361,0.314,6.746,0.945l-1.15,7.053c-1.499-0.307-2.786-0.46-3.859-0.46c-1.329,0-2.393,0.379-3.194,1.137
		s-1.201,1.759-1.201,3.002v3.245h8.917v7.258h-8.917v18.116h-8.509V30.333H57.505z"/>
	<path fill="#75797B" d="M83.783,14.336c0-1.38,0.479-2.53,1.44-3.449c0.959-0.92,2.137-1.381,3.53-1.381
		c1.383,0,2.558,0.461,3.522,1.381c0.965,0.919,1.448,2.069,1.448,3.449c0,1.346-0.487,2.474-1.46,3.386
		c-0.974,0.911-2.143,1.367-3.51,1.367c-1.393,0-2.57-0.456-3.53-1.367C84.262,16.81,83.783,15.682,83.783,14.336z M84.549,48.449
		V23.075h8.509v25.374H84.549z"/>
	<path fill="#75797B" d="M96.815,48.449V11.295h8.509v37.153H96.815z"/>
	<path fill="#75797B" d="M109.178,48.449V23.075h8.509v1.457c0.886-0.767,1.81-1.333,2.772-1.699c0.962-0.366,2.116-0.55,3.462-0.55
		c3.244,0,5.865,1.15,7.862,3.449c1.344-1.208,2.718-2.086,4.121-2.631c1.404-0.545,3.033-0.818,4.888-0.818
		c3.096,0,5.628,1.057,7.596,3.169c1.967,2.112,2.951,4.949,2.951,8.509v14.488h-8.509V35.315c0-1.755-0.403-3.083-1.21-3.986
		c-0.807-0.902-1.923-1.354-3.35-1.354c-1.41,0-2.692,0.699-3.847,2.096c0.068,0.853,0.102,1.482,0.102,1.891v14.488h-8.509V35.315
		c0-1.755-0.4-3.083-1.201-3.986c-0.801-0.902-1.917-1.354-3.347-1.354c-1.397,0-2.657,0.733-3.782,2.197v16.277H109.178z"/>
	<path fill="#75797B" d="M155.001,48.449V11.295h8.509V24.48c2.078-1.26,4.386-1.89,6.925-1.89c1.686,0,3.304,0.337,4.854,1.011
		c1.55,0.675,2.892,1.592,4.025,2.753c1.132,1.16,2.035,2.563,2.708,4.211c0.673,1.647,1.009,3.393,1.009,5.235
		c0,3.741-1.235,6.891-3.705,9.449c-2.47,2.559-5.434,3.838-8.892,3.838c-2.539,0-4.847-0.627-6.925-1.881v1.242H155.001z
		 M163.51,39.854c1.329,1.54,3.075,2.31,5.238,2.31c1.72,0,3.147-0.611,4.28-1.835c1.133-1.223,1.699-2.732,1.699-4.528
		c0-1.744-0.571-3.229-1.712-4.451c-1.142-1.224-2.564-1.835-4.267-1.835c-2.13,0-3.875,0.787-5.238,2.36V39.854z"/>
	<path fill="#75797B" d="M184.545,35.737c0-2.473,0.57-4.728,1.712-6.766c1.141-2.037,2.674-3.627,4.6-4.771
		c1.925-1.143,4.02-1.713,6.286-1.713c2.606,0,4.932,0.647,6.977,1.941v-1.354h8.508v25.374h-8.508v-1.399
		c-2.012,1.273-4.336,1.911-6.977,1.911c-1.687,0-3.305-0.341-4.855-1.021c-1.551-0.681-2.892-1.6-4.024-2.757
		c-1.133-1.157-2.036-2.562-2.708-4.213C184.881,39.319,184.545,37.575,184.545,35.737z M192.85,35.737
		c0,1.759,0.575,3.248,1.725,4.468c1.15,1.221,2.584,1.831,4.305,1.831c2.13,0,3.875-0.785,5.24-2.355v-7.912
		c-1.415-1.57-3.162-2.356-5.24-2.356c-1.721,0-3.155,0.611-4.305,1.832C193.425,32.463,192.85,33.961,192.85,35.737z"/>
	<path fill="#75797B" d="M216.463,48.449V23.075h8.509v1.662c2.146-1.636,4.472-2.454,6.976-2.454c3.245,0,5.857,1.053,7.838,3.156
		s2.971,4.944,2.971,8.521v14.488h-8.509V35.315c0-1.755-0.413-3.083-1.239-3.986c-0.826-0.902-1.963-1.354-3.411-1.354
		c-1.636,0-3.177,0.835-4.625,2.505v15.97H216.463z"/>
	<path fill="#75797B" d="M246.368,48.449V11.295h8.509V32.53l8.815-9.455h10.094l-9.635,10.349l10.477,15.025h-10.17l-6.054-8.789
		l-3.527,3.756v5.033H246.368z"/>
	<path fill="#75797B" d="M278.014,48.449V23.036h4.999v2.253c1.01-1.017,2.117-1.783,3.322-2.301s2.641-0.776,4.307-0.776
		c1.789,0,3.42,0.363,4.891,1.091c1.471,0.727,2.686,1.765,3.643,3.113c1.383-1.42,2.85-2.475,4.4-3.166s3.371-1.038,5.461-1.038
		c3.135,0,5.713,1.086,7.736,3.257c2.02,2.171,3.031,5.037,3.031,8.6v14.381h-4.998V34.326c0-2.416-0.594-4.295-1.781-5.637
		c-1.188-1.341-2.844-2.012-4.971-2.012c-2.818,0-5.141,1.403-6.965,4.211c0.213,0.995,0.318,2.043,0.318,3.144v14.417h-4.996
		V34.326c0-2.416-0.594-4.295-1.781-5.637c-1.188-1.341-2.846-2.012-4.971-2.012c-2.553,0-4.77,1.359-6.646,4.077v17.694H278.014z"
		/>
	<path fill="#75797B" d="M322.918,35.769c0-2.517,0.549-4.789,1.646-6.818c1.1-2.029,2.668-3.634,4.707-4.812
		c2.037-1.179,4.359-1.768,6.963-1.768c2.357,0,4.48,0.558,6.367,1.675c1.887,1.116,3.363,2.671,4.426,4.664
		c1.064,1.994,1.605,4.258,1.623,6.792c0,0.958-0.037,1.675-0.107,2.153l-0.107-0.053v0.053h-20.574
		c0.371,2.133,1.299,3.881,2.777,5.241c1.48,1.362,3.398,2.043,5.756,2.043c1.488,0,2.766-0.285,3.828-0.858
		c1.062-0.572,1.861-1.367,2.393-2.385h5.396c-0.727,2.269-2.158,4.072-4.293,5.41c-2.137,1.338-4.631,2.007-7.484,2.007
		c-3.916,0-7.115-1.271-9.596-3.814C324.159,42.755,322.918,39.58,322.918,35.769z M327.862,33.908H343.6
		c-0.25-2.198-1.043-3.944-2.381-5.237s-3.07-1.939-5.195-1.939c-2.234,0-4.064,0.669-5.49,2.005
		C329.106,30.073,328.217,31.797,327.862,33.908z"/>
	<path fill="#75797B" d="M352.538,42.403c-1.152-2.055-1.727-4.293-1.727-6.714s0.574-4.653,1.727-6.696s2.721-3.658,4.705-4.844
		c1.986-1.186,4.156-1.777,6.514-1.777c3.385,0,6.211,0.966,8.48,2.897V9.797h4.998v38.651h-4.998V46.13
		c-2.27,1.953-5.096,2.93-8.48,2.93c-2.357,0-4.527-0.596-6.514-1.788C355.258,46.081,353.69,44.458,352.538,42.403z
		 M355.807,35.689c0,2.457,0.834,4.572,2.5,6.348c1.666,1.776,3.721,2.664,6.168,2.664c3.26,0,5.848-1.36,7.762-4.081v-9.834
		c-1.844-2.703-4.432-4.055-7.762-4.055c-2.447,0-4.502,0.883-6.168,2.65C356.641,31.148,355.807,33.25,355.807,35.689z"/>
	<path fill="#75797B" d="M380.905,15.804c-0.619-0.602-0.928-1.354-0.928-2.259s0.309-1.656,0.928-2.26
		c0.617-0.603,1.385-0.903,2.303-0.903c0.908,0,1.682,0.301,2.322,0.903c0.641,0.604,0.961,1.355,0.961,2.26
		s-0.32,1.657-0.961,2.259c-0.641,0.604-1.414,0.905-2.322,0.905C382.29,16.709,381.522,16.408,380.905,15.804z M380.749,48.449
		V23.036h4.998v25.413H380.749z"/>
	<path fill="#75797B" d="M388.995,35.769c0-2.446,0.574-4.696,1.727-6.752s2.721-3.678,4.705-4.865
		c1.984-1.187,4.156-1.78,6.514-1.78c3.33,0,6.158,0.966,8.48,2.897v-2.233h4.996v25.413h-4.996v-2.232
		c-2.322,1.932-5.15,2.897-8.48,2.897c-2.357,0-4.529-0.594-6.514-1.781s-3.553-2.805-4.705-4.852
		C389.569,40.435,388.995,38.197,388.995,35.769z M393.991,35.769c0,2.428,0.838,4.532,2.512,6.313
		c1.676,1.78,3.727,2.672,6.156,2.672c3.312,0,5.9-1.364,7.762-4.095v-9.861c-1.844-2.712-4.432-4.067-7.762-4.067
		c-2.447,0-4.502,0.886-6.168,2.658S393.991,33.289,393.991,35.769z"/>
</g>
<path fill="#75797B" d="M29.338,8.128c-11.989,0-21.708,9.719-21.708,21.708c0,11.988,9.719,21.707,21.708,21.707
	c11.989,0,21.708-9.719,21.708-21.707C51.046,17.847,41.328,8.128,29.338,8.128z M23.242,40.396V19.271l18.294,10.562L23.242,40.396
	z"/>
</svg>
