<?xml version="1.0" encoding="utf-8"?>
<!-- Generator: Adobe Illustrator 16.0.4, SVG Export Plug-In . SVG Version: 6.00 Build 0)  -->
<!DOCTYPE svg PUBLIC "-//W3C//DTD SVG 1.1//EN" "http://www.w3.org/Graphics/SVG/1.1/DTD/svg11.dtd">
<svg version="1.1" id="Layer_1" xmlns="http://www.w3.org/2000/svg" xmlns:xlink="http://www.w3.org/1999/xlink" x="0px" y="0px"
	 width="266px" height="46px" viewBox="-62.173 23.052 266 46" enable-background="new -62.173 23.052 266 46" xml:space="preserve"
	>
<path fill="#808080" d="M-54.387,32.262h8.271v22.603h14.458v7.255h-22.729V32.262z"/>
<path fill="#808080" d="M-30.769,47.274v-0.087c0-8.569,6.908-15.521,16.121-15.521c9.209,0,16.03,6.863,16.03,15.436v0.085
	c0,8.577-6.909,15.518-16.117,15.518C-23.948,62.705-30.769,55.84-30.769,47.274z M-7.105,47.274v-0.087
	c0-4.349-3.066-8.058-7.63-8.058c-4.561,0-7.592,3.669-7.592,7.973v0.085c0,4.307,3.113,8.058,7.679,8.058
	C-10.13,55.245-7.105,51.582-7.105,47.274z"/>
<path fill="#808080" d="M3.891,47.274v-0.087c0-8.697,6.821-15.521,16.034-15.521c5.246,0,8.955,1.578,12.11,4.305l-4.861,5.888
	c-2.132-1.791-4.224-2.818-7.208-2.818c-4.306,0-7.631,3.583-7.631,8.146v0.087c0,4.86,3.367,8.316,8.101,8.316
	c2.046,0,3.584-0.433,4.777-1.236v-3.627H19.37v-6.054h13.688v13.39c-3.156,2.646-7.506,4.642-12.961,4.642
	C10.798,62.705,3.891,56.319,3.891,47.274z"/>
<path fill="#808080" d="M37.203,32.262h8.271V62.12h-8.271V32.262z"/>
<path fill="#808080" d="M48.003,57.674l4.606-5.495c2.984,2.35,6.223,3.586,9.678,3.586c2.261,0,3.457-0.771,3.457-2.049v-0.088
	c0-1.281-0.982-1.919-5.075-2.9c-6.354-1.447-11.259-3.239-11.259-9.338v-0.085c0-5.543,4.393-9.554,11.557-9.554
	c5.075,0,9.039,1.367,12.279,3.969l-4.136,5.842c-2.729-1.962-5.711-2.943-8.355-2.943c-2.008,0-2.987,0.811-2.987,1.92v0.087
	c0,1.362,1.021,1.959,5.202,2.896c6.824,1.491,11.089,3.709,11.089,9.294v0.087c0,6.095-4.818,9.728-12.067,9.728
	C56.703,62.63,51.715,60.959,48.003,57.674z"/>
<path fill="#808080" d="M84.499,39.515h-8.913v-7.253h26.144v7.253h-8.958V62.12h-8.273V39.515z"/>
<path fill="#808080" d="M104.891,32.262h8.274V62.12h-8.274V32.262z"/>
<polygon fill="#808080" points="121.546,32.601 121.546,44.383 131.587,32.601 "/>
<polygon fill="#808080" points="121.546,62.01 121.546,50.231 131.587,62.01 "/>
<rect x="146.105" y="32.761" fill="#808080" width="15.121" height="28.901"/>
<rect x="163.317" y="32.761" fill="#808080" width="15.122" height="28.901"/>
<polygon fill="#808080" points="141.662,32.761 129.008,47.067 141.797,61.663 144.264,61.663 144.264,32.761 "/>
<polygon fill="#808080" points="191.878,32.761 180.528,32.761 180.528,61.663 191.878,61.663 192.733,61.663 195.652,58.922 
	192.733,56.004 195.652,53.103 192.733,50.197 195.652,47.29 192.733,44.383 195.652,41.48 192.733,38.572 195.652,35.665 
	192.733,32.761 "/>
<line fill="none" stroke="#FFFFFF" stroke-width="0.75" stroke-miterlimit="10" x1="144.264" y1="31.802" x2="144.264" y2="63.552"/>
</svg>
