<?xml version="1.0" encoding="utf-8"?>
<!-- Generator: Adobe Illustrator 16.0.4, SVG Export Plug-In . SVG Version: 6.00 Build 0)  -->
<!DOCTYPE svg PUBLIC "-//W3C//DTD SVG 1.1//EN" "http://www.w3.org/Graphics/SVG/1.1/DTD/svg11.dtd">
<svg version="1.1" id="Isolation_Mode" xmlns="http://www.w3.org/2000/svg" xmlns:xlink="http://www.w3.org/1999/xlink" x="0px"
	 y="0px" width="385.333px" height="110.667px" viewBox="0 0 385.333 110.667" enable-background="new 0 0 385.333 110.667"
	 xml:space="preserve">
<path fill="#75797B" d="M349.501,63.573c0.469-12.228,2.82-17.59,7.899-17.59c4.609,0,6.584,5.173,6.961,17.59H349.501z
	 M360.881,86.712c-4.516,0-7.807-2.07-9.405-5.738c-1.412-3.293-1.882-6.865-1.975-14.015H376.4
	c-0.188-4.609-0.376-5.737-1.222-9.312c-1.975-8.936-8.747-14.297-17.684-14.297c-12.133,0-20.222,9.499-20.222,23.608
	c0,14.202,8.277,23.421,20.881,23.421c9.97,0,16.46-5.457,18.246-15.237h-3.668C371.416,82.478,367.088,86.712,360.881,86.712
	 M284.602,48.806c4.986,0.095,5.55,0.471,5.644,5.173v1.6v25.489c0,4.797-0.658,5.455-5.738,5.736h-1.035v2.635
	c5.173-0.377,7.149-0.471,11.569-0.471c4.516,0,6.866,0.094,11.569,0.471v-2.541c-3.95-0.094-4.515-0.75-4.515-5.266V58.117
	c0-6.302,2.54-9.405,7.714-9.405c4.89,0,6.959,2.728,6.959,9.218v23.702c0,4.516-0.564,5.172-4.514,5.266v2.541
	c4.608-0.377,7.055-0.471,11.568-0.471c4.327,0,6.396,0.094,11.569,0.471v-2.635h-1.035c-5.078-0.281-5.737-0.939-5.737-5.736
	V59.435c0-10.347-4.985-15.707-14.391-15.707c-6.113,0-10.157,2.256-13.732,7.712c-0.281-3.292-0.659-5.078-1.786-7.807
	c-4.61,1.222-9.124,2.069-15.332,2.729v2.444H284.602z M256.386,46.267v2.445h1.035c5.079,0,5.643,0.658,5.643,6.678v25.678
	c0,4.797-0.659,5.455-5.737,5.736h-1.035v2.635c6.208-0.471,8.56-0.564,12.698-0.564c4.139,0,6.489,0.094,12.698,0.564v-2.635
	h-1.035c-5.079-0.281-5.737-0.939-5.737-5.736V42.975C268.707,44.668,262.783,45.702,256.386,46.267 M250.555,89.155l2.728-15.519
	h-2.917c-0.751,2.447-1.129,3.292-2.351,5.831c-2.634,5.268-4.892,6.68-10.441,6.68h-6.865l23.043-41.386h-33.767l-2.352,14.015
	h2.822c3.574-9.219,5.643-11.005,12.228-11.005h6.019l-22.949,41.384H250.555z M196.943,73.166c0,8.56-1.882,11.946-6.772,11.946
	c-4.045,0-6.396-3.293-6.396-8.748c0-4.421,1.693-7.712,5.079-9.594c1.975-1.129,4.044-1.787,8.089-2.633V73.166z M212.087,86.804
	c-2.634,0-3.292-1.316-3.292-6.396v-16.27c0-6.396-0.283-9.407-1.504-12.229c-1.975-4.985-7.997-8.182-15.52-8.182
	c-9.5,0-16.931,5.173-16.931,11.662c0,2.822,1.599,4.421,4.42,4.421c3.198,0,4.891-1.788,4.891-4.984c0-0.753,0-1.034-0.376-2.822
	c-0.094-0.47-0.094-0.94-0.094-1.316c0-2.164,2.916-4.045,6.396-4.045c4.89,0,6.866,2.539,6.866,8.56v6.302
	c-16.837,2.351-25.114,7.713-25.114,16.46c0,7.24,5.549,12.227,13.638,12.227c6.02,0,9.876-2.633,12.886-8.559
	c0.848,6.02,3.575,8.465,9.407,8.465c2.257,0,4.044-0.281,6.866-1.035v-2.727C213.403,86.712,212.838,86.804,212.087,86.804
	 M134.676,96.493c0-4.139,3.198-5.928,10.723-5.928c12.227,0,17.494,2.07,17.494,7.057c0,4.514-4.984,7.43-12.886,7.43
	C140.883,105.052,134.676,101.571,134.676,96.493 M149.819,46.267c4.421,0,6.584,4.044,6.584,12.039
	c0,8.559-2.163,12.791-6.584,12.791c-4.609,0-6.866-3.949-6.866-12.132C142.953,50.405,145.21,46.267,149.819,46.267 M149.63,43.728
	c-10.816,0-17.4,5.737-17.4,15.143c0,6.113,3.198,10.723,9.124,13.45c-6.208,1.881-9.03,4.608-9.03,8.56
	c0,3.01,1.223,4.889,4.515,7.053c-4.609,1.883-6.678,4.609-6.678,8.842c0,7.43,7.431,11.854,19.658,11.854
	c13.074,0,22.197-6.115,22.197-14.957c0-3.668-1.599-6.867-4.608-9.029c-2.728-1.881-7.054-3.01-13.92-3.387l-3.857-0.281
	l-4.326-0.283c-3.856-0.283-4.985-0.846-4.985-2.727c0-2.164,1.599-2.916,8.089-3.574c1.693-0.188,3.01-0.281,3.856-0.376
	c1.787-0.188,3.479-0.564,5.079-1.034c5.926-1.883,9.782-7.243,9.782-13.64c0-3.292-0.752-5.737-2.54-8.276l8.089,0.093v-4.795
	h-12.792C156.779,44.385,154.051,43.728,149.63,43.728 M111.445,73.166c0,8.56-1.882,11.946-6.772,11.946
	c-4.044,0-6.396-3.293-6.396-8.748c0-4.421,1.693-7.712,5.079-9.594c1.975-1.129,4.044-1.787,8.089-2.633V73.166z M126.588,86.804
	c-2.633,0-3.292-1.316-3.292-6.396v-16.27c0-6.396-0.282-9.407-1.505-12.229c-1.975-4.985-7.995-8.182-15.52-8.182
	c-9.5,0-16.93,5.173-16.93,11.662c0,2.822,1.599,4.421,4.421,4.421c3.198,0,4.891-1.788,4.891-4.984c0-0.753,0-1.034-0.376-2.822
	c-0.095-0.47-0.095-0.94-0.095-1.316c0-2.164,2.916-4.045,6.396-4.045c4.892,0,6.867,2.539,6.867,8.56v6.302
	c-16.837,2.351-25.114,7.713-25.114,16.46c0,7.24,5.549,12.227,13.638,12.227c6.02,0,9.876-2.633,12.886-8.559
	c0.846,6.02,3.574,8.465,9.406,8.465c2.257,0,4.043-0.281,6.866-1.035v-2.727C127.905,86.712,127.341,86.804,126.588,86.804
	 M11.556,48.806c5.173,0.095,5.644,0.471,5.737,5.173v1.6v25.489c0,4.797-0.658,5.455-5.831,5.736h-1.035v2.635
	c5.267-0.377,7.336-0.471,11.757-0.471c4.609,0,7.054,0.094,11.851,0.471v-2.541c-4.326-0.094-4.797-0.75-4.797-5.266V57.741
	c0-6.114,2.164-8.747,6.96-8.747c4.421,0,6.114,2.257,6.114,8.371v24.267c0,4.516-0.471,5.172-4.609,5.266v2.541
	c4.891-0.377,6.866-0.471,10.534-0.471c3.762,0,5.644,0.094,10.629,0.471v-2.541c-4.14-0.094-4.609-0.75-4.609-5.266V57.553
	c0-5.926,2.163-8.559,6.866-8.559c4.515,0,6.208,2.352,6.208,8.466v24.172c0,4.516-0.564,5.172-4.609,5.266v2.541
	c4.703-0.377,7.148-0.471,11.757-0.471c4.515,0,6.49,0.094,11.757,0.471v-2.635h-1.035c-5.267-0.281-5.925-0.939-5.925-5.736V57.741
	c0-9.312-4.703-14.014-13.921-14.014c-6.113,0-9.594,1.975-12.98,7.429c-2.445-4.983-6.396-7.429-12.039-7.429
	c-5.362,0-9.124,2.162-12.698,7.523c-0.282-2.728-0.846-5.078-1.787-7.618c-4.514,1.316-8.747,2.069-15.52,2.729v2.444H11.556z"/>
<path fill="#75797B" d="M171.432,27.98l0.706-3.907h-0.57c-0.814,2.47-1.574,3.203-3.419,3.203h-3.176l7.382-12.104h-9.009
	L162.72,18.7h0.542c0.977-2.442,1.412-2.822,3.175-2.822h3.013l-7.355,12.103H171.432z M147.957,15.986
	c1.357,0,1.519,0.162,1.547,1.274v0.407v8.387c0,1.167-0.272,1.384-1.927,1.465v0.542c1.412-0.135,1.981-0.162,2.931-0.162
	c0.978,0,1.52,0.027,2.931,0.162V27.52c-1.412-0.054-1.764-0.326-1.764-1.411V19.54c0-2.225,0.977-3.392,2.822-3.392
	c1.737,0,2.442,0.949,2.442,3.311v6.649c0,1.085-0.353,1.357-1.818,1.411v0.542c1.412-0.135,1.954-0.162,2.958-0.162
	c0.977,0,1.52,0.027,2.958,0.162V27.52c-1.656-0.081-1.927-0.298-1.927-1.465V19.54c0-1.03-0.135-1.79-0.407-2.442
	c-0.543-1.329-1.954-2.171-3.583-2.171c-1.574,0-2.687,0.652-3.664,2.117c-0.054-1.031-0.135-1.737-0.271-2.36
	c-1.085,0.38-2.008,0.597-3.582,0.812v0.463C147.74,15.959,147.875,15.986,147.957,15.986 M138.106,20.273
	c0.271-3.12,1.302-4.722,3.039-4.722c1.764,0,2.66,1.521,2.822,4.722H138.106z M141.633,27.384c-2.469,0-3.555-1.899-3.582-6.133
	h8.087c-0.055-4.179-1.764-6.405-4.967-6.405c-3.257,0-5.292,2.632-5.292,6.812c0,4.179,2.035,6.621,5.536,6.621
	c2.659,0,4.397-1.655,4.75-4.451h-1.085C144.754,26.136,143.56,27.384,141.633,27.384 M127.685,18.944
	c1.438,0,2.252,0.244,2.876,0.868s0.977,1.791,0.977,3.094c0,2.715-1.357,4.233-3.772,4.233h-0.977
	c-1.438,0-1.683-0.217-1.683-1.411v-6.784H127.685z M125.106,10.721h2.307c2.28,0,3.283,1.113,3.283,3.637
	c0,1.248-0.298,2.144-0.895,2.85c-0.597,0.678-1.33,0.896-2.85,0.896h-1.845V10.721z M133.112,14.304
	c0-1.412-0.597-2.66-1.628-3.447c-0.923-0.678-1.981-0.977-3.745-0.977h-7.138v0.678c1.954,0.109,2.225,0.326,2.225,1.792v13.163
	c0,1.464-0.217,1.655-2.225,1.817v0.65h6.866c2.008,0,3.094-0.243,4.233-0.949c1.357-0.868,2.253-2.523,2.253-4.233
	c0-1.466-0.625-2.795-1.683-3.609c-0.57-0.436-1.167-0.679-2.144-0.868C132.082,17.587,133.112,16.204,133.112,14.304
	 M120.194,20.11h-6.975v1.222h6.975V20.11z M104.047,28.307l0.651-1.222c1.031,0.814,2.008,1.141,3.256,1.141
	c2.552,0,4.37-1.628,4.37-3.908c0-1.602-0.733-2.47-2.795-3.365l-1.14-0.488c-2.47-1.086-2.877-1.438-2.877-2.523
	c0-1.275,1.113-2.253,2.551-2.253c1.71,0,2.605,1.031,2.85,3.202h0.625v-4.206h-0.489l-0.461,1.112
	c-0.923-0.624-1.71-0.869-2.768-0.869c-2.388,0-4.071,1.466-4.071,3.61c0,1.573,0.625,2.334,2.605,3.257l1.249,0.57l1.031,0.461
	c1.33,0.597,1.845,1.221,1.845,2.144c0,1.384-1.194,2.442-2.795,2.442c-1.899,0-3.04-1.194-3.527-3.663l-0.597,0.026v4.532H104.047z
	 M93.463,20.273c0.271-3.12,1.303-4.722,3.04-4.722c1.764,0,2.659,1.521,2.822,4.722H93.463z M96.991,27.384
	c-2.469,0-3.555-1.899-3.582-6.133h8.087c-0.054-4.179-1.764-6.405-4.966-6.405c-3.257,0-5.292,2.632-5.292,6.812
	c0,4.179,2.035,6.621,5.536,6.621c2.659,0,4.397-1.655,4.75-4.451h-1.086C100.112,26.136,98.918,27.384,96.991,27.384
	 M83.069,27.548c-1.954,0-2.985-2.035-2.985-5.917c0-3.936,0.95-5.862,2.904-5.862c2.008,0,3.04,2.062,3.04,6.052
	C86.027,25.594,85.023,27.548,83.069,27.548 M88.171,25.24V9.581c-1.356,0.353-2.578,0.569-4.098,0.733v0.461
	c1.71,0,1.926,0.189,1.926,1.602v4.749c-1.003-1.63-1.791-2.116-3.256-2.116c-2.903,0-4.939,2.74-4.939,6.648
	c0,3.907,2.062,6.648,5.021,6.648c1.547,0,2.605-0.706,3.365-2.225c0.109,1.03,0.109,1.14,0.38,2.171
	c1.113-0.354,1.574-0.462,3.175-0.652l0.407-0.053v-0.463C88.334,27.031,88.171,26.896,88.171,25.24 M68.062,20.273
	c0.271-3.12,1.303-4.722,3.04-4.722c1.764,0,2.659,1.521,2.822,4.722H68.062z M71.589,27.384c-2.469,0-3.555-1.899-3.582-6.133
	h8.087c-0.054-4.179-1.764-6.405-4.966-6.405c-3.257,0-5.292,2.632-5.292,6.812c0,4.179,2.035,6.621,5.537,6.621
	c2.659,0,4.396-1.655,4.749-4.451h-1.085C74.71,26.136,73.516,27.384,71.589,27.384 M63.367,14.602l-0.733,1.385
	c-0.868-0.842-1.602-1.141-2.768-1.141c-3.202,0-5.374,2.769-5.374,6.812c0,3.963,2.144,6.621,5.292,6.621
	c2.442,0,3.99-1.574,4.342-4.478h-1.113c-0.326,2.389-1.33,3.582-3.012,3.582c-2.089,0-3.148-1.927-3.148-5.726
	c0-3.882,1.194-6.079,3.23-6.079c1.655,0,2.659,1.14,3.148,3.5h0.597v-4.478H63.367z M44.782,15.85
	c1.411,0.028,1.547,0.163,1.574,1.331v0.434v8.44c0,1.167-0.299,1.384-1.954,1.465v0.542c1.493-0.135,2.062-0.162,3.039-0.162
	c0.951,0,1.521,0.027,3.013,0.162V27.52c-1.655-0.081-1.927-0.298-1.927-1.465v-5.672c0-2.688,0.896-4.396,2.307-4.396
	c0.488,0,0.814,0.271,0.814,0.65v0.245l-0.054,0.271c-0.027,0.107-0.054,0.216-0.054,0.271c0,0.544,0.489,0.922,1.112,0.922
	c0.679,0,1.14-0.515,1.14-1.302c0-1.303-1.004-2.198-2.361-2.198c-1.411,0-2.578,0.896-3.175,2.442v-0.297
	c-0.054-0.815-0.108-1.25-0.245-2.254c-1.112,0.326-2.035,0.489-3.582,0.624v0.488H44.782z M34.958,20.273
	c0.271-3.12,1.303-4.722,3.04-4.722c1.764,0,2.66,1.521,2.823,4.722H34.958z M38.486,27.384c-2.469,0-3.555-1.899-3.583-6.133h8.088
	c-0.054-4.179-1.764-6.405-4.967-6.405c-3.256,0-5.292,2.632-5.292,6.812c0,4.179,2.036,6.621,5.536,6.621
	c2.66,0,4.397-1.655,4.75-4.451h-1.086C41.606,26.136,40.413,27.384,38.486,27.384 M18.837,23.531l0.326,0.949l0.379,1.058
	l0.38,1.06l0.298,0.868h0.407l0.299-0.896l0.353-1.032l0.379-1.003l0.326-0.896l4.478-12.104l0.245,14.059v0.135
	c0,1.275-0.407,1.574-2.253,1.683v0.65c1.71-0.162,2.362-0.216,3.393-0.216s1.682,0.054,3.392,0.216v-0.65
	c-1.954-0.135-2.198-0.353-2.226-1.817l-0.298-13.325v-0.19c0-1.222,0.407-1.494,2.252-1.602V9.799
	c-1.031,0.081-1.465,0.108-2.144,0.108c-0.814,0-1.384-0.027-2.606-0.137l-5.129,13.732L16.042,9.771
	c-1.031,0.109-1.574,0.137-2.578,0.137c-0.76,0-1.167-0.027-2.226-0.108v0.678c1.873,0.107,2.252,0.38,2.252,1.628v0.164
	l-0.57,13.325c-0.054,1.465-0.325,1.683-2.225,1.817v0.65c1.412-0.108,1.955-0.135,2.714-0.135c0.76,0,1.303,0.026,2.687,0.135
	v-0.65c-1.899-0.135-2.252-0.38-2.252-1.574v-0.243l0.542-14.086L18.837,23.531z"/>
</svg>
