<?xml version="1.0" encoding="utf-8"?>
<!-- Generator: Adobe Illustrator 16.0.4, SVG Export Plug-In . SVG Version: 6.00 Build 0)  -->
<!DOCTYPE svg PUBLIC "-//W3C//DTD SVG 1.1//EN" "http://www.w3.org/Graphics/SVG/1.1/DTD/svg11.dtd">
<svg version="1.1" id="Isolation_Mode" xmlns="http://www.w3.org/2000/svg" xmlns:xlink="http://www.w3.org/1999/xlink" x="0px"
	 y="0px" width="235.761px" height="164.254px" viewBox="0 0 235.761 164.254" enable-background="new 0 0 235.761 164.254"
	 xml:space="preserve">
<path fill-rule="evenodd" clip-rule="evenodd" fill="#75797B" d="M117.646,14.206c-24.815,0-44.933,20.116-44.933,44.931
	c0,24.814,20.118,44.931,44.933,44.931c24.814,0,44.931-20.116,44.931-44.931C162.578,34.321,142.461,14.206,117.646,14.206z
	 M139.535,41.045c-0.005,0.936,0.679,1.406,0.288,2.451c-0.479-0.373,0.164-1.092-0.721-1.153c-0.054-0.246,0.113-0.272,0.288-0.289
	c-0.019-0.268-0.095-0.482-0.288-0.577c-0.431,0.095,0.137,0.309,0,0.577c-0.695-0.074-0.15-1.386-0.866-1.441
	C138.669,40.19,139,41.091,139.535,41.045z M138.383,44.648c-0.215-0.171-0.646-0.125-0.579-0.576
	C138.02,44.242,138.449,44.196,138.383,44.648z M137.517,39.892c0.371,0.015,0.204,0.562,0.575,0.577
	C137.907,40.828,137.395,40.316,137.517,39.892z M138.527,39.604c-0.229,0.229-0.664-0.069-0.723-0.433
	c0.169,0.024,0.257-0.032,0.288-0.144C138.202,39.254,138.552,39.242,138.527,39.604z M137.661,38.307
	c0.114,0.076,0.233,0.152,0.431,0.144c0,0.144,0,0.289,0,0.433c-0.585,0.056-1.002-0.053-1.008-0.577
	c-0.129,0.111-0.327,0.154-0.575,0.144C136.729,37.531,137.634,39.075,137.661,38.307z M136.797,53.585
	c-0.171-0.024-0.123-0.264-0.144-0.434c0.244-0.052,0.271,0.113,0.287,0.288C136.819,53.413,136.804,53.497,136.797,53.585z
	 M136.94,54.16C136.584,53.782,137.355,53.325,136.94,54.16L136.94,54.16z M136.797,54.448c-0.03,0.118-0.147,0.144-0.144,0.29
	c-0.117-0.029-0.144-0.146-0.291-0.146c0.029-0.115,0.146-0.143,0.146-0.288C136.623,54.333,136.65,54.45,136.797,54.448z
	 M136.363,50.269c0.137,0.155,0.531,0.045,0.435,0.434C136.66,50.548,136.265,50.657,136.363,50.269z M135.93,41.766
	c0.171-0.389,0.754,0,1.01,0C136.721,42.202,136.309,41.645,135.93,41.766z M135.211,46.234c-0.435,0.145-0.254-0.322-0.289-0.577
	C135.115,45.752,135.191,45.965,135.211,46.234z M135.067,44.792c0.126,0.449,0.442,0.711,0.576,1.153
	C135.365,45.667,134.701,45.263,135.067,44.792z M135.499,46.81c-0.086,0.298-0.223,0.545-0.721,0.433
	c0.059-0.346-0.264-0.312-0.143-0.72C135.042,46.498,134.915,47.009,135.499,46.81z M135.643,47.386
	C135.776,48.063,134.972,47.641,135.643,47.386L135.643,47.386z M135.643,45.081c-0.211-0.197,0.578-0.941-0.576-0.721
	c-0.222-0.606,0.744-0.022,0.719-0.432C135.886,43.703,136.038,44.864,135.643,45.081z M135.93,42.198
	C135.616,42.639,135.009,42.031,135.93,42.198L135.93,42.198z M135.93,45.945c0.423-0.212,0.423,0.646,0,0.433
	C135.93,46.234,135.93,46.09,135.93,45.945z M136.221,45.513c0.21,0.125,0.456,0.215,0.433,0.577
	C136.272,46.133,136.18,45.89,136.221,45.513z M136.653,42.198C136.311,42.662,136.07,41.69,136.653,42.198L136.653,42.198z
	 M136.509,39.171c0-0.096,0-0.191,0-0.288c0.288-0.049,0.448,0.03,0.431,0.288C136.797,39.171,136.653,39.171,136.509,39.171z
	 M136.077,37.01c0.125,0.152-0.283,0.05-0.146,0C135.135,37.298,135.811,36.688,136.077,37.01z M134.491,36.433
	c0.095,0,0.192,0,0.287,0c0,0.095,0,0.192,0,0.288c-0.095,0-0.192,0-0.287,0C134.491,36.625,134.491,36.528,134.491,36.433z
	 M131.896,37.442C132.548,36.96,132.847,37.799,131.896,37.442L131.896,37.442z M132.329,37.874c-0.022,0.359-0.491,0.042-0.579,0
	C131.773,37.516,132.239,37.831,132.329,37.874z M131.031,39.604c0.334,0.347,0.498-0.115,0.72-0.288
	c-0.125-0.426-0.215,0.333-0.576,0.144c-0.081-0.913,0.522-0.335,1.01-0.289c0.192-0.141,0.288-0.385,0.431-0.577
	c-0.246-0.006-0.375,0.108-0.431,0.289c-0.208-0.033-0.052-0.43-0.289-0.433c0.747-0.115,0.66-1.07,1.44-1.153
	c0.02-0.259-0.176-0.305-0.144-0.577c0.312,0.444,1.5,0.33,2.018,0.144c-0.369,0.386,0.088,0.759,0,1.298c0.095,0,0.192,0,0.288,0
	c0.431-0.095-0.14-0.309,0-0.577c0.81,0.083,0.927-0.038,1.585,0.143c-0.246,0.493-0.932-0.093-1.298,0.434
	c0.059,0.325,0.848-0.077,0.577,0.576c-0.588-0.305-0.762-0.527-1.44-0.145c0.02,0.266,0.488,0.088,0.577,0.289
	c-0.3,0.275-0.608,0.032-0.864,0c0.402-0.538,0.237-1.118-0.432-1.297c-0.088,0.52,0.438,0.424,0.432,0.865
	c-0.32,0.079-0.206-0.276-0.432-0.288c-0.112,0.227-0.458,0.214-0.435,0.576c0.126,0.425,0.217-0.334,0.579-0.145
	c0.085,0.256-0.423,0.598,0,0.722c-0.023,0.358-0.488,0.041-0.579,0c0.198,0.195,0.276,1.004-0.145,1.008
	c0.145,0.192,0.391,0.282,0.433,0.577c0.352-0.093,0.742-0.292,0.722,0.288c0.121-0.329,0.069-0.53,0.721-0.577
	c-0.323,0.158-0.1,0.859-0.721,0.721c0.173,0.189,0.057,0.226,0,0.433c0.289,0.049,0.452-0.03,0.433-0.289
	c0.393-0.104,0.291,0.288,0.575,0.289c-0.529,0.189-0.781,0.226-0.719,0.721c-0.32,0.08-0.205-0.276-0.432-0.289
	c-0.13,0.064-0.259,0.127-0.288,0.289c0.119,0.135,0.742,0.483,0.864,0.144c0.146,0.094,0.148,0.331,0.432,0.289
	c-0.034,0.18-0.286,0.146-0.288,0c-0.469,0.251-1.108,0.333-1.152,1.009c-0.72-0.389-0.315-1.132,0-1.73
	c-0.425-0.173,0.117-1.121-0.722-1.153c0.412-0.698-1.071-0.931-1.296-0.432c0.437,0.263,0.019,0.142,0,0.289
	c-0.132,0.905,0.539,0.361,0.864,1.296c-0.698-0.042-0.588-0.145-1.442-0.144c0.167-0.594-0.166-1.559-0.864-1.729
	C130.635,39.88,131.138,40.047,131.031,39.604z M134.203,46.522c-0.146,0-0.291,0-0.435,0c0-0.096,0-0.192,0-0.288
	C134.059,46.183,134.22,46.263,134.203,46.522z M133.481,44.072C133.854,43.575,133.83,44.814,133.481,44.072L133.481,44.072z
	 M133.193,49.838c-0.096,0-0.192,0-0.288,0c0-0.098,0-0.193,0-0.289c0.096,0,0.192,0,0.288,0
	C133.193,49.645,133.193,49.74,133.193,49.838z M133.337,52.72C132.997,53.183,132.753,52.213,133.337,52.72L133.337,52.72z
	 M133.481,46.378c-0.017,0.513-0.532,0.523-0.432,1.153C132.666,47.184,133.056,46.393,133.481,46.378z M133.337,45.945
	c-0.559-0.658,0.029-1.341-0.721-2.162c0.044-0.196,0.361-0.12,0.577-0.144C132.841,44.548,133.824,45.161,133.337,45.945z
	 M132.041,47.82c-0.037,0.252-0.249,0.328-0.579,0.288C131.499,47.853,131.711,47.78,132.041,47.82z M131.462,46.234
	c0.04-0.337,0.635-0.084,0.723,0C132.06,46.656,131.821,46.046,131.462,46.234z M132.041,49.98c-0.158-0.036-0.1-0.286-0.291-0.288
	C131.879,49.302,132.389,49.814,132.041,49.98z M132.041,53.729c0.308-0.068,0.273,0.207,0.288,0.433
	c-0.117-0.029-0.144-0.146-0.288-0.145C132.041,53.921,132.041,53.824,132.041,53.729z M131.175,50.703c0-0.097,0-0.193,0-0.289
	c0.097,0,0.193,0,0.287,0c0,0.095,0,0.191,0,0.289C131.368,50.703,131.272,50.703,131.175,50.703z M131.319,50.846
	c0,0.096,0,0.192,0,0.288c-0.096,0-0.19,0-0.288,0c0-0.095,0-0.191,0-0.288C131.129,50.846,131.223,50.846,131.319,50.846z
	 M128.005,78.23c0.035-0.157,0.285-0.098,0.289-0.288c-0.113-0.129-0.157-0.326-0.145-0.576c0.117-0.125,0.395-0.086,0.432-0.289
	c0.109,0.227,0.459,0.215,0.432,0.577c-0.242,0-0.479,0-0.719,0C128.763,78.06,128.703,78.093,128.005,78.23z M126.995,77.942
	c-0.146,0.094-0.15,0.332-0.433,0.288c0.1-0.116,0.225-0.396,0-0.434c0.329-0.304,0.51,0.065,1.008-0.143
	C127.717,78.087,127.251,77.909,126.995,77.942z M127.428,78.662C127.078,79.136,126.741,78.262,127.428,78.662L127.428,78.662z
	 M126.274,77.366c-0.004-0.438,0.725-0.141,0.721-0.578c0.47,0.388,0.722,0.216,1.298,0c-0.073,0.361-0.386,0.483-0.433,0.866
	C127.351,77.292,127.059,77.179,126.274,77.366z M129.59,78.087c0.223,0.512-0.49,0.087-0.433,0.432
	C128.734,78.356,129.34,78.05,129.59,78.087z M127.428,76.501c0.013-0.387,0.774-0.202,1.008-0.145
	c0.159,0.039,0.059,0.26,0.144,0.288c0.429,0.152,1.369-0.012,1.442,0.577C128.927,77.129,128.269,76.449,127.428,76.501z
	 M125.411,74.484c0.034-0.158,0.286-0.099,0.288-0.289c0.464,0.362,1.552-0.018,1.152,0.865c-0.666-0.265-0.619-0.466-1.296-0.146
	C125.235,74.708,125.735,74.565,125.411,74.484z M124.112,73.907c-0.075-0.117-0.151-0.235-0.143-0.434
	c0.344-0.167,1.417-0.036,1.729,0.288c0.192-0.143,0.435-0.236,0.576-0.431c0.507,0.171,0.474,0.209,0.864,0.288
	C126.474,74.406,125.118,73.508,124.112,73.907z M125.411,72.897c0.169-0.45,0.786-0.285,1.008,0
	c-0.681,0.307-1.051-0.071-1.874-0.143c-0.039-0.94,0.618,0.257,0.579-0.433C125.377,72.356,125.45,72.57,125.411,72.897z
	 M125.264,71.602c0.146,0,0.291,0,0.435,0c0,0.19,0,0.383,0,0.575C125.218,72.322,125.226,71.977,125.264,71.602z M125.555,68.862
	c-0.422-0.161,0.183-0.47,0.432-0.433C126.055,69.05,125.599,68.614,125.555,68.862z M125.699,70.303c-0.288,0-0.576,0-0.866,0
	C124.952,69.979,125.784,69.631,125.699,70.303z M125.264,68.429c-0.637,0.023,0.071-0.406-0.285-0.577
	c-0.692-0.014-0.906,1.042-1.586,0.577c0.123-0.311,0.354-0.51,0.864-0.432c0-0.145,0-0.288,0-0.433
	c-0.464-0.032-0.61,0.256-1.151,0.145c-0.154-0.537,0.302-0.465,0.431-0.721c0.298,0.604,0.375,0.323,0.433,0
	c0.57-0.139,0.058,0.807,0.575,0.721c0.406-0.141-0.209-0.385,0.144-0.577c0.372,0.014,0.231,0.538,0.435,0.72
	c0.464,0.178,0.11-0.465,0.576-0.288C125.984,68.184,125.069,67.95,125.264,68.429z M124.833,68.429c0,0.144,0,0.29,0,0.433
	c-0.127-0.112-0.325-0.156-0.577-0.144C124.291,68.465,124.506,68.39,124.833,68.429z M122.238,65.403
	c-0.294,0.28-0.752,0.403-1.152,0.576c0.1-0.387-0.297-0.278-0.434-0.433C120.94,65.069,121.857,65.034,122.238,65.403z
	 M121.23,64.826c-0.104-0.393,0.286-0.291,0.288-0.576c0.393-0.105,0.291,0.286,0.576,0.288
	C121.887,64.965,121.775,64.662,121.23,64.826z M122.527,65.403c0.417,0.206,0.715,0.535,0.866,1.009
	c0.423-0.446,0.613,0.102,0.806,0.252c0.041,0.01,0.088,0.028,0.131,0.042c0.42,0.072,0.906-0.176,1.225-0.005
	c0.45,0.239,0.3,0.456,0.864,0.432c-0.664,0.354-1.408-0.211-2.089-0.427c-0.024-0.004-0.051,0-0.073-0.005
	c-0.02-0.006-0.039-0.021-0.058-0.037c-0.232-0.057-0.454-0.063-0.662,0.037c-0.331,0.043-0.161-0.417-0.431-0.433
	c-0.54-0.153-0.413,0.359-0.867,0.289c-0.081-0.208-0.225-0.351-0.431-0.433C121.765,65.601,122.78,66.138,122.527,65.403z
	 M123.681,65.115c0.112,0.128,0.154,0.327,0.145,0.577c-0.259,0.017-0.306-0.177-0.577-0.146
	C123.222,65.232,123.366,65.088,123.681,65.115z M123.825,64.538C123.388,65.071,123.339,64.102,123.825,64.538L123.825,64.538z
	 M122.382,65.115c-0.078-0.319,0.275-0.205,0.291-0.433c0.254,0.361,0.183,0.157,0.72,0.145
	C123.371,65.238,122.79,65.09,122.382,65.115z M123.249,59.781c-0.358,0.362-0.585,0.42-1.154,0.288
	C122.283,59.612,122.937,59.333,123.249,59.781z M121.519,59.781c-0.378,0.042-0.112-0.558-0.575-0.432
	c0.266-0.696,0.46,0.27,1.151,0C122.158,59.748,121.558,59.486,121.519,59.781z M122.382,59.35c0.044-0.438,0.9-0.498,1.154-0.289
	C123.308,59.312,122.888,59.374,122.382,59.35z M123.825,59.638c-0.098,0-0.193,0-0.289,0c0.027-0.124-0.056-0.136-0.144-0.145
	C123.336,59.214,124.049,59.283,123.825,59.638z M123.105,58.197c-0.086-0.375,0.568,0.601,1.151,0.144
	C124.042,59.061,123.264,58.653,123.105,58.197z M124.688,54.017c0.372,0.014,0.208,0.562,0.576,0.575
	c-0.031,0.185-0.429,0.19-0.431,0c-0.227,0.062-0.123,0.454-0.577,0.289C124.139,54.333,124.679,54.439,124.688,54.017z
	 M124.544,52.863c0-0.095,0-0.19,0-0.288c0.291-0.048,0.452,0.03,0.435,0.288C124.833,52.863,124.688,52.863,124.544,52.863z
	 M126.274,56.612c-0.47,0.058-0.712,0.344-0.576,1.009c-0.092-0.082-0.435-0.586-0.576-0.146c-0.305-0.044,0.148-0.5,0.432-0.431
	c-0.127-0.355-0.639-0.323-0.576-0.865c0.493-0.114,0.741,0.134,0.432,0.433c0.415-0.154,0.477-0.438,0.288-0.864
	c0.144,0,0.288,0,0.433,0c0.041,0.231-0.137,0.247-0.145,0.432C126.08,56.324,126.316,56.327,126.274,56.612z M126.562,52.144
	c-0.408,0.65,0.896,0.624,0.144,0.719c-0.017,0.26,0.175,0.305,0.144,0.577c-0.286-0.001-0.183-0.393-0.576-0.288
	c0.083-0.467-0.097-0.67-0.143-1.008C126.274,52.144,126.418,52.144,126.562,52.144z M126.851,51.711c0,0.143,0,0.289,0,0.433
	C126.328,52.22,126.328,51.633,126.851,51.711z M127.57,53.729c-0.095,0-0.19,0-0.288,0c0.027-0.123-0.056-0.137-0.144-0.144
	C127.082,53.305,127.795,53.373,127.57,53.729z M127.138,53.151c0-0.095,0-0.19,0-0.289c0.308-0.066,0.276,0.208,0.29,0.434
	C127.312,53.268,127.282,53.151,127.138,53.151z M126.995,46.234c-0.14,0.004-0.113,0.176-0.145,0.288
	c-0.525,0.014-0.942-0.254-1.296-0.144c-0.104,0.033-0.154,0.064-0.181,0.091c0.127,0.128-0.078,0.086,0,0
	c-0.021-0.024-0.058-0.054-0.11-0.091c-0.387-0.279-1.281,0.362-2.306,0.144c0.63,0.664,0.13,0.065-0.285,1.009
	c-0.7-0.499,0.185-1.033,0.144-1.729c0.781,0.153,1.591-0.419,1.439-0.721c0.359-0.122,1.452,0.385,2.162,0
	c-0.087,0.496-0.835,1.079-1.295,0.721c-0.344,0.042,0.158,0.389,0.288,0.432c0.94-0.003,1.289-1.262,2.018-1.009
	c-0.216,0.168-0.353,0.416-0.722,0.432C126.528,46.124,127.172,45.767,126.995,46.234z M127.138,47.242c0,0.097,0,0.193,0,0.289
	c-0.288-0.049-0.449,0.029-0.432,0.29c-0.383,0-0.769,0-1.152,0c0.296-0.603,1.044-0.372,1.296-0.722
	C126.968,47.125,126.995,47.244,127.138,47.242z M120.653,40.757c-0.021-0.267-0.488-0.088-0.577-0.288
	c-0.071-0.531,0.796,0.061,0.435-0.288c0.66-0.249,2.216,0.533,1.583,1.585c-0.277-0.059-0.012-0.662-0.576-0.433
	c-0.105-0.393,0.285-0.291,0.289-0.577c-0.464-0.126-0.198,0.474-0.577,0.433c0.125,0.547,0.6,0.744,0.577,1.441
	c-0.144,0-0.289,0-0.433,0C121.619,41.607,120.709,41.785,120.653,40.757z M120.799,45.945
	C120.457,46.41,120.216,45.439,120.799,45.945L120.799,45.945z M120.076,42.343c-0.039-0.23,0.779-0.201,0.435,0.144
	C120.564,42.43,120.074,42.331,120.076,42.343z M120.653,45.369c0.095-0.147,0.332-0.149,0.291-0.433
	C121.414,45.018,121.163,45.495,120.653,45.369z M120.943,42.63c0.231-0.041,0.246,0.137,0.431,0.145
	C121.431,43.055,120.718,42.985,120.943,42.63z M119.789,39.747c-0.217,0.257-0.879-0.265-1.152-0.43
	c0.122-0.552,0.812-0.532,1.295-0.722c0.035-0.256-0.146-0.722,0.288-0.577c-0.192,0.528-0.129,1.313-1.008,1.153
	C119.299,39.471,119.488,39.664,119.789,39.747z M119.501,40.036c-0.046,0.454-1.091,0.121-1.008-0.432
	C118.851,39.723,119.057,39.998,119.501,40.036z M119.932,37.154c0.259-0.02,0.306,0.175,0.579,0.144
	C120.555,37.553,119.701,37.555,119.932,37.154z M120.943,38.739c0.177-0.466-0.467-0.11-0.291-0.576
	c0.656-0.239,0.449,0.549,0.722,1.153c0.232,0.04,0.25-0.136,0.433-0.145c0.073-0.422-0.459-0.812,0.287-0.721
	c0.01-0.49-0.739-0.221-0.72-0.722c1.414,0.375,1.193,0.674,2.306,1.298c-0.652,0.594-0.592-0.746-1.442-0.433
	c0.437,0.667-0.395,0.441-0.287,1.152c-0.717-0.327-1.372-0.292-2.019-0.287C120.053,39.001,120.55,38.925,120.943,38.739z
	 M125.555,39.171c-0.381,0.043-0.371-0.302-0.432-0.577c0.166,0.024,0.256-0.031,0.288-0.144
	C125.718,38.668,125.306,38.804,125.555,39.171z M124.979,37.298c0.461-0.126,0.298,0.375,0.576,0.431
	C125.411,38.093,124.918,37.615,124.979,37.298z M125.699,39.892c0.132,0.252-0.004,0.775,0.433,0.721
	c0.133,0.213-0.696-0.065-0.721,0.577c-0.027,0.36,0.323,0.349,0.432,0.577c-0.542,0.247-1.015-0.808-1.442-1.153
	c0.242,0,0.481,0,0.723,0c0.156-0.036,0.097-0.287,0.288-0.288c-0.046-0.57-0.447,0.106-0.578-0.289
	c-0.04-0.232,0.136-0.248,0.146-0.432C125.152,39.767,125.241,40.017,125.699,39.892z M127.428,43.783
	c-0.065-0.127-0.127-0.258-0.29-0.288c0.044-0.196,0.361-0.121,0.579-0.145c-0.314,0.301,0.071,0.411,0,0.865
	c-0.739-0.17-0.579,0.335-0.435,0.721c-0.19,0-0.383,0-0.576,0c0.005-0.14,0.175-0.11,0.289-0.144
	c-0.435-0.162,0.129-1.133-0.864-1.009c0.097-0.228,1.305-0.355,1.007,0.289C127.268,44.009,127.397,43.946,127.428,43.783z
	 M125.843,43.351c0.175-0.205,0.549-0.327,0.72-0.144C126.548,43.574,126.026,43.547,125.843,43.351z M126.707,40.901
	c-0.096,0-0.19,0-0.288,0c0-0.097,0-0.192,0-0.289c0.098,0,0.192,0,0.288,0C126.707,40.709,126.707,40.804,126.707,40.901z
	 M126.562,41.333c0,0.144,0,0.289,0,0.433c-0.256-0.032-0.72,0.145-0.576-0.289C126.245,41.495,126.289,41.3,126.562,41.333z
	 M124.544,37.729c0.235-0.041,0.249,0.138,0.435,0.145C125.035,38.154,124.32,38.083,124.544,37.729z M123.537,36.865
	c-0.283-0.241,1.101,0.074,1.296,0.289C124.547,37.478,123.792,37.05,123.537,36.865z M124.256,38.018
	c0.246,0.186,0.181,0.687,0.577,0.721c-0.306,0.436-0.537-0.413-0.864-0.433C124.002,38.151,124.254,38.209,124.256,38.018z
	 M124.4,41.189c0,0.096,0,0.191,0,0.288c-0.095,0-0.19,0-0.288,0c0-0.096,0-0.191,0-0.288
	C124.21,41.189,124.306,41.189,124.4,41.189z M124.688,42.343c0.549-0.213,0.029,0.644,0.576,0.432
	c-0.034,0.181-0.285,0.145-0.285,0c-0.278,0.3-0.515,0.641-1.01,0.721c-0.003-0.288-0.394-0.184-0.289-0.577
	c0.247-0.054,0.271,0.113,0.289,0.288C124.146,42.588,124.55,43.274,124.688,42.343z M124.688,44.072
	c0.2-0.185,0.088-0.681,0.291-0.865C125.52,43.134,125.391,44.475,124.688,44.072z M122.673,41.189
	c0.433-0.537-0.563-0.611-0.435-1.298c0.206,0.013,0.41,0.025,0.435-0.145c0.212,0.724,0.676,0.308,1.008,0
	C123.637,40.521,123.254,40.955,122.673,41.189z M123.681,43.207c0.1,0.539-1.09,0.351-0.864-0.145
	C123.156,43.061,123.239,43.311,123.681,43.207z M123.105,38.163c0.106-0.515,0.956,0.011,0.864,0.576
	C123.456,38.771,123.683,38.062,123.105,38.163z M121.951,43.783C121.611,44.247,121.37,43.277,121.951,43.783L121.951,43.783z
	 M121.807,42.919c0.304-0.491,0.419-0.054,0.866,0C122.571,43.437,121.994,43.123,121.807,42.919z M122.958,44.504
	c-0.129,0.391-0.322-0.329-0.576-0.288C122.482,43.857,122.821,44.429,122.958,44.504z M127.428,46.81
	c-0.479-0.215,0.569-0.601-0.146-0.72c0.019-0.318,0.613-0.061,0.867-0.145c-0.105-0.135-0.263-0.218-0.432-0.289
	c0.425-0.688,1.118,0.165,1.583-0.144c0.032,0.429-0.512,0.509-0.72,0.289c-0.066,0.451,0.308,0.46,0.72,0.432
	c-0.093,0.147-0.33,0.148-0.288,0.433c-0.334-0.098-0.386-0.479-0.719-0.577c-0.245,0.093-0.091,0.332,0.143,0.288
	C128.178,46.732,127.446,46.04,127.428,46.81z M127.717,47.099c-0.029,0.116-0.146,0.143-0.146,0.288
	c-0.115-0.027-0.142-0.145-0.288-0.144c0.03-0.117,0.146-0.143,0.146-0.287C127.546,46.981,127.57,47.099,127.717,47.099z
	 M128.581,43.496C128.263,43.936,127.659,43.33,128.581,43.496L128.581,43.496z M128.437,41.477c0-0.096,0-0.191,0-0.288
	c0.098,0,0.193,0,0.288,0c0,0.096,0,0.191,0,0.288C128.63,41.477,128.534,41.477,128.437,41.477z M128.437,42.054
	c-0.095,0-0.193,0-0.288,0c0-0.096,0-0.191,0-0.288c0.095,0,0.193,0,0.288,0C128.437,41.862,128.437,41.958,128.437,42.054z
	 M127.861,40.181c0-0.097,0-0.194,0-0.289c0.288-0.049,0.452,0.029,0.433,0.289C128.149,40.181,128.005,40.181,127.861,40.181z
	 M128.005,41.045c0,0.095,0,0.193,0,0.289c-0.098,0-0.192,0-0.288,0c0-0.095,0-0.193,0-0.289
	C127.812,41.045,127.907,41.045,128.005,41.045z M130.023,48.108C130.342,47.531,131.692,48.335,130.023,48.108L130.023,48.108z
	 M130.598,48.395c0,0.098,0,0.194,0,0.289c-0.094,0-0.192,0-0.287,0c0-0.095,0-0.191,0-0.289
	C130.406,48.395,130.504,48.395,130.598,48.395z M130.167,45.657c-0.069-0.307,0.205-0.274,0.431-0.288
	C130.535,45.546,130.414,45.664,130.167,45.657z M130.311,43.496C129.142,43.479,130.169,42.677,130.311,43.496L130.311,43.496z
	 M130.023,43.783c0,0.145,0,0.289,0,0.433c-0.319,0.08-0.206-0.276-0.433-0.288C129.613,43.758,129.852,43.806,130.023,43.783z
	 M125.699,61.655c-0.339-0.045-0.322-0.446-0.576-0.576C124.771,60.811,125.997,61.058,125.699,61.655z M124.833,58.629
	c0-0.144,0-0.288,0-0.432c0.146,0,0.29,0,0.431,0c0.042,0.233-0.134,0.248-0.141,0.432C125.025,58.629,124.93,58.629,124.833,58.629
	z M127.57,54.592c0.333-0.591,0.193,0.46,0.435,0.434c-0.063,0.213-0.186-0.058-0.435,0C127.542,54.78,127.817,54.652,127.57,54.592
	z M128.725,56.179c0.102,0.36-0.635,0.592-0.144,0.865c-0.164,0.462-0.41-0.14-0.287-0.432c-0.66-0.055-0.75,0.459-0.577,0.863
	c-0.381,0.043-0.114-0.559-0.579-0.431c-0.112,0.015-0.437,0.476-0.143,0.431c-0.167,0.386-0.764,0.015-0.577-0.431
	C127.407,56.476,127.7,56.709,128.725,56.179z M129.444,48.25c-0.349-0.09-0.076-0.728,0.291-0.576
	C129.84,48.068,129.447,47.965,129.444,48.25z M129.735,53.729c-0.118-0.027-0.145-0.146-0.291-0.144c0-0.097,0-0.194,0-0.289
	C129.752,53.229,129.721,53.501,129.735,53.729z M129.157,47.531c-0.169-0.024-0.123-0.262-0.145-0.432
	c0.129,0.111,0.327,0.154,0.578,0.144C129.557,47.45,129.159,47.293,129.157,47.531z M128.869,46.955
	c0.127-0.211,0.217-0.457,0.576-0.433C129.488,46.901,129.248,46.996,128.869,46.955z M129.013,49.404
	c0.062,0.302-0.098,0.382-0.144,0.577C128.571,49.836,128.476,49.343,129.013,49.404z M129.157,52.288
	c-0.123,0.421-0.464-0.087-0.721,0C128.473,51.95,129.069,52.203,129.157,52.288z M128.581,52.575
	c0.178,0.065,0.296,0.185,0.288,0.434C128.69,52.945,128.573,52.824,128.581,52.575z M128.725,53.296
	C129.098,52.8,129.074,54.038,128.725,53.296L128.725,53.296z M129.013,55.314c-0.209-0.126-0.456-0.217-0.432-0.576
	C128.793,54.863,129.037,54.954,129.013,55.314z M128.293,47.675c0.52-0.138,0.252,0.621,0.143,0.72
	C128.126,48.18,128.54,48.044,128.293,47.675z M128.581,50.269c0,0.097,0,0.192,0,0.288c-0.095,0-0.193,0-0.287,0
	c0-0.095,0-0.19,0-0.288C128.388,50.269,128.486,50.269,128.581,50.269z M128.437,53.296c0,0.095,0,0.192,0,0.289
	c-0.095,0-0.193,0-0.288,0c0-0.097,0-0.194,0-0.289C128.244,53.296,128.342,53.296,128.437,53.296z M127.282,57.908
	c-0.344-0.476,0.791,0.32,0.723,0c0.419,0.162-0.186,0.469-0.435,0.433c0-0.144,0-0.29,0-0.433
	C127.476,57.908,127.38,57.908,127.282,57.908z M128.437,58.917c-0.118-0.026-0.143-0.144-0.288-0.144c0-0.097,0-0.193,0-0.289
	C128.457,58.419,128.422,58.691,128.437,58.917z M128.437,59.206c-0.107,0.372-1.066-0.105-1.008,0.433
	c-0.156-0.179,0.157-0.419,0.142-0.721C127.755,59.118,128.253,59.005,128.437,59.206z M127.57,69.438c0.098,0,0.193,0,0.291,0
	c0,0.097,0,0.193,0,0.289c-0.098,0-0.192,0-0.291,0C127.57,69.631,127.57,69.535,127.57,69.438z M128.581,72.033
	c-0.292,0.423-0.754-0.195-1.01-0.289C127.778,71.411,128.354,71.912,128.581,72.033z M128.869,72.754
	c-0.198,0.281-0.935-0.112-1.152-0.288C128.103,71.994,128.522,72.707,128.869,72.754z M128.725,71.744
	c0.179,0.064,0.296,0.185,0.288,0.432C128.836,72.113,128.717,71.993,128.725,71.744z M126.418,57.764c0,0.192,0,0.384,0,0.577
	c0.517-0.042,1.027-0.33,1.152,0.433c-0.454,0.068-0.325-0.443-0.864-0.289c-0.369,0.26-0.637,0.708-0.432,1.153
	c-0.71-0.405-0.22-1.096-0.576-1.73C125.674,57.597,126.208,57.843,126.418,57.764z M126.851,66.844
	c-0.127,0.391-0.64-0.122-0.288-0.288C126.718,66.592,126.66,66.842,126.851,66.844z M126.131,61.079
	c-0.471,0.039-0.694-0.171-0.721-0.577C125.547,60.8,126.153,60.624,126.131,61.079z M125.411,63.673
	c0.115-0.328,1.025,0.665,0.144,0.577C125.543,64.021,125.624,63.699,125.411,63.673z M125.843,62.52
	c0.358,0.061,0.008,0.56-0.288,0.433C125.604,62.763,125.809,62.725,125.843,62.52z M125.699,61.8
	c0.115,0.027,0.144,0.145,0.288,0.145C125.909,62.282,125.304,62.032,125.699,61.8z M125.411,64.393
	c-0.058,0.347,0.657-0.079,0.432,0.433c-0.52-0.009-0.769-0.288-0.72-0.865C125.43,63.895,125.396,64.167,125.411,64.393z
	 M125.699,65.258C126.358,65.355,125.582,66.132,125.699,65.258L125.699,65.258z M125.699,63.385c0-0.095,0-0.193,0-0.288
	c0.308-0.069,0.273,0.206,0.288,0.432C125.87,63.502,125.843,63.385,125.699,63.385z M125.987,65.979
	c0.251,0.036,0.33,0.248,0.288,0.577C125.843,66.701,126.018,66.235,125.987,65.979z M126.418,61.367
	C125.981,61.9,125.933,60.929,126.418,61.367L126.418,61.367z M126.851,67.132c0.608,0.132-0.065,0.802,0.288,1.297
	c-0.527-0.149-0.131-0.551-0.864-0.287C126.389,67.727,126.928,67.737,126.851,67.132z M126.562,68.573
	c0.117,0.029,0.144,0.146,0.288,0.146c0,0.096,0,0.191,0,0.286c-0.286-0.238-0.183,0.014-0.576,0
	C126.326,68.816,126.528,68.779,126.562,68.573z M127.138,69.15c0.223,0.002,0.474,0.395,0,0.288c0.02,0.367,0.21,0.56,0.579,0.577
	c-0.275,0.703-0.393-0.337-1.01-0.144C126.553,69.333,127.246,69.643,127.138,69.15z M127.428,70.448c0,0.095,0,0.19,0,0.287
	c-0.097,0-0.192,0-0.29,0c0-0.097,0-0.192,0-0.287C127.236,70.448,127.332,70.448,127.428,70.448z M127.138,71.023
	c0.02,0.27,0.096,0.483,0.29,0.578c-0.077,0.021-1.148-0.192-1.154-0.722C126.614,70.876,126.699,71.128,127.138,71.023z
	 M127.428,72.466c-0.3-0.325-1.344,0.093-1.297-0.577C126.519,72.125,127.307,71.961,127.428,72.466z M128.005,73.186
	c-0.383,0.466-0.925-0.121-1.154-0.289C127.199,72.778,127.644,72.993,128.005,73.186z M128.581,74.338
	c-0.114,0.333-0.287-0.462-0.72-0.288C128.046,73.647,128.546,74.116,128.581,74.338z M128.437,73.618
	c0.098-0.449,0.44-0.242,0.576,0C128.99,73.978,128.527,73.66,128.437,73.618z M129.444,74.626
	c-0.141,0.442-0.485-0.064-0.576-0.142C129.01,74.042,129.254,74.649,129.444,74.626z M129.013,73.042
	c0.322-0.079,0.205,0.274,0.432,0.289C129.386,73.688,128.888,73.338,129.013,73.042z M129.013,58.341
	c-0.225-0.513,0.491-0.087,0.432-0.433C129.834,58.038,129.378,58.494,129.013,58.341z M129.59,57.621
	c-0.454-0.124-0.6-0.556-0.722-1.009c0.289,0.239,0.183-0.014,0.576,0c-0.31,0.299-0.007,0.491,0.291,0.576
	C129.657,57.303,129.584,57.422,129.59,57.621z M129.879,56.323C129.442,56.856,129.394,55.885,129.879,56.323L129.879,56.323z
	 M129.735,45.369c-0.303,0.06-0.383-0.099-0.578-0.145C129.173,44.816,129.771,44.947,129.735,45.369z M129.59,44.648
	c-0.463,0.127-0.197-0.475-0.578-0.433c0.035-0.372,0.249,0.198,0.578,0C129.59,44.36,129.59,44.504,129.59,44.648z M128.869,42.487
	C129.4,42.925,128.432,42.973,128.869,42.487L128.869,42.487z M128.293,52.863c-0.367,0.402-0.77-0.375-0.865-0.719
	C127.895,52.203,127.886,52.742,128.293,52.863z M127.57,55.314c-0.375,0.616,0.196,0.389,0.291,0.865c-0.242,0-0.481,0-0.723,0
	c-0.016-0.675-0.21,0.156-0.576,0c0.059-0.375,0.429-0.435,0.433-0.865C127.336,55.758,127.08,55.372,127.57,55.314z
	 M126.418,55.748c-0.391-0.354,0.159-0.988,0.144-1.443c0.146,0.095,0.149,0.332,0.433,0.288
	C126.809,54.983,126.736,55.489,126.418,55.748z M125.555,53.585c0.092-0.408,0.166,0.33,0.144,0.432
	C125.631,54.306,125.428,54.133,125.555,53.585z M125.555,52.432c0.251,0.131,0.5,0.267,0.432,0.719
	C125.733,53.02,125.483,52.885,125.555,52.432z M125.555,51.133c-0.098,0-0.192,0-0.291,0c0-0.095,0-0.191,0-0.288
	c0.098,0,0.192,0,0.291,0C125.555,50.942,125.555,51.038,125.555,51.133z M125.411,51.711
	C125.069,52.175,124.828,51.204,125.411,51.711L125.411,51.711z M124.688,58.773c0.041,0.232-0.134,0.247-0.144,0.432
	c-0.095,0-0.19,0-0.288,0c-0.039-0.234,0.137-0.249,0.144-0.432C124.499,58.773,124.593,58.773,124.688,58.773z M124.256,60.359
	c0.188,0.051,0.227,0.253,0.432,0.287c0.027,0.123-0.054,0.137-0.144,0.145c-0.095,0-0.19,0-0.288,0
	C124.256,60.646,124.256,60.502,124.256,60.359z M125.123,63.673c-0.088,0.354-0.923,0.703-0.867,0
	C124.544,63.673,124.833,63.673,125.123,63.673z M124.112,63.673c-0.168-0.021-0.122-0.261-0.143-0.43
	c0.243-0.054,0.27,0.111,0.287,0.286C124.135,63.503,124.12,63.585,124.112,63.673z M124.256,64.25c0,0.097,0,0.193,0,0.288
	c-0.095,0-0.192,0-0.287,0c0-0.095,0-0.191,0-0.288C124.064,64.25,124.162,64.25,124.256,64.25z M125.123,64.682
	c-0.461,0.486-0.751,0.275-1.154,0.721C123.456,64.75,124.643,64.798,125.123,64.682z M124.833,65.979
	c0.046,0.255-0.808,0.258-0.577-0.145C124.557,65.774,124.637,65.934,124.833,65.979z M123.249,66.988
	c-0.559-0.124-0.512,0.352-0.866,0.433c-0.537,0.154-0.41-0.357-0.864-0.288C122.046,66.946,122.921,66.148,123.249,66.988z
	 M126.562,69.438c-0.292,0.665-0.398-0.214-0.864,0.145C125.645,68.972,126.324,69.457,126.562,69.438z M126.707,70.303
	c-0.024,0.454-0.927,0.197-0.864-0.289C126.297,69.945,126.17,70.458,126.707,70.303z M124.112,72.176
	c0.024-0.166-0.031-0.256-0.143-0.288c0.127-0.498,0.578,0.037,1.01-0.287C125.027,72.449,124.581,71.906,124.112,72.176z
	 M129.879,75.637c-0.552-0.079-2.07-0.429-2.741-0.865C127.936,74.602,129.251,75.155,129.879,75.637z M128.725,75.779
	c-0.122,0.423-0.464-0.086-0.72,0C128.19,75.203,128.303,75.82,128.725,75.779z M128.869,76.067
	c0.379-0.368,1.116,0.128,1.154,0.577C129.608,76.482,129.171,76.341,128.869,76.067z M129.735,74.771c0-0.096,0-0.192,0-0.288
	c0.096,0,0.19,0,0.288,0c0,0.095,0,0.191,0,0.288C129.925,74.771,129.831,74.771,129.735,74.771z M130.311,53.585
	c-0.063-0.129-0.127-0.259-0.288-0.289c0.208-0.426,0.579,0.172,0.432,0.577c-0.144,0-0.288,0-0.432,0
	C129.969,53.628,130.135,53.601,130.311,53.585z M130.311,50.991c-0.081-0.319,0.275-0.206,0.287-0.434
	C130.958,50.617,130.606,51.117,130.311,50.991z M130.887,51.422C130.538,51.895,130.198,51.021,130.887,51.422L130.887,51.422z
	 M130.743,39.892c-0.275,0.589-0.612,0.611-1.008,0.145c0.19-0.065,0.769-0.456,0.288-0.72
	C130.279,38.93,130.411,39.876,130.743,39.892z M130.023,38.018c-0.144,0-0.288,0-0.433,0c0-0.096,0-0.192,0-0.289
	C129.879,37.681,130.04,37.76,130.023,38.018z M128.869,36.865c0.141-0.004,0.112-0.177,0.144-0.289
	c0.337,0.098,0.385,0.48,0.722,0.578c-0.308,0.344-1.015-0.131-1.154-0.433C128.747,36.697,128.836,36.752,128.869,36.865z
	 M128.581,36c-0.135-0.153-0.532-0.044-0.432-0.432C128.463,35.542,128.607,35.685,128.581,36z M128.005,38.163
	C127.568,38.695,127.519,37.724,128.005,38.163L128.005,38.163z M127.282,35.135c-0.039,0.334-0.383,0.332-0.576,0.145
	C126.753,35.084,127.068,35.162,127.282,35.135z M127.138,39.46c0.057-0.056-0.432-0.154-0.432-0.144
	C126.668,39.086,127.485,39.113,127.138,39.46z M127.282,40.036c-0.676,0.573-0.878-0.556-1.439-0.576
	C126.294,39.113,126.468,40.271,127.282,40.036z M126.274,36.865c-0.143,0.36-0.629-0.108-0.576-0.425
	c-0.025-0.011-0.052-0.024-0.073-0.034c-0.363-0.125-0.244-0.102,0,0c0.027,0.01,0.037,0.014,0.073,0.026c0,0.002,0,0.004,0,0.007
	C125.941,36.547,126.235,36.709,126.274,36.865z M126.131,36C125.792,36.465,125.547,35.494,126.131,36L126.131,36z M126.131,33.839
	C126.975,34.03,125.608,34.521,126.131,33.839L126.131,33.839z M125.555,34.992c0.242-0.373,0.632,0.317,0.72,0.576
	c-0.454,0.069-0.564-0.205-0.864-0.289c-0.185,0.033-0.19,0.429,0,0.432c-0.347,0.338-0.539-0.703-1.01-0.72
	C123.983,34.603,125.889,35.461,125.555,34.992z M125.264,36c-0.183,0.592-1.066,0.1-1.439,0
	C124.403,35.599,124.664,35.895,125.264,36z M125.411,34.704c-0.454,0.159-1.525-0.298-2.162-0.433
	C123.762,34.05,124.823,34.518,125.411,34.704z M122.817,34.416c0.408-0.025,0.281,0.487,0.864,0.288
	c-0.839,0.243-2.123,0.216-2.881-0.288C121.255,33.97,122.4,35.258,122.817,34.416z M122.238,34.127c0.098,0,0.193,0,0.289,0
	c0,0.096,0,0.192,0,0.289c-0.096,0-0.19,0-0.289,0C122.238,34.319,122.238,34.223,122.238,34.127z M121.951,33.551
	c-0.022,0.356-0.488,0.042-0.577,0C121.47,33.12,121.682,33.689,121.951,33.551z M121.807,33.982
	c-0.276,0.406-0.752-0.198-1.154-0.144C120.928,33.436,121.577,33.866,121.807,33.982z M117.77,32.685
	C118.395,32.746,117.62,33.522,117.77,32.685L117.77,32.685z M115.898,32.685c0.288-0.049,0.45,0.03,0.433,0.289
	c-0.146,0-0.291,0-0.433,0C115.898,32.878,115.898,32.782,115.898,32.685z M112.582,35.28c0.113,0.128,0.154,0.326,0.145,0.577
	c0.119-0.518,0.544,0.171,0.576-0.433c-0.063-0.214-0.183,0.056-0.432,0c0.305-0.697-0.374-0.413-0.144-1.585c0.24,0,0.48,0,0.721,0
	c0.231,0.567-0.623,0.05-0.577,0.432c0.525,0.533,0.686,1.429,1.296,1.875c-0.209,0.461-0.879,0.464-1.44,0.576
	c0.588-1.145-0.947-0.974-1.154-0.288c-0.614-0.033,0.323-0.428-0.141-0.865C112.017,35.676,111.926,35.104,112.582,35.28z
	 M111.718,34.416c-0.05,0.188-0.256,0.227-0.287,0.431C111.07,34.789,111.421,34.289,111.718,34.416z M110.708,33.406
	c0.446,0.055,0.559,0.491,0.864,0c0.315-0.024,0.065,0.511,0.146,0.721c-0.275-0.062-0.26-0.411-0.722-0.288
	c-0.146,0.141-0.291,0.284-0.432,0.432c0.129,0.131,0.439,0.012,0.432,0.576c-0.662,0.133-0.752-0.304-0.72-0.864
	C110.657,34.027,110.647,33.682,110.708,33.406z M107.827,32.83c0.056-0.488-0.64-0.227-0.432-0.866
	c0.578,0.046,1.481-0.232,1.295,0.577c-0.254-0.126-0.419-0.456-0.72-0.143c0.659,0.136,0.339,0.96-0.576,1.008
	c0.012-0.206,0.022-0.408-0.145-0.433C107.295,32.778,107.612,32.854,107.827,32.83z M107.395,33.694
	c-0.264,0.52,0.024,0.425,0.144,0.865C107.131,34.697,106.826,33.622,107.395,33.694z M107.106,34.847
	c0.676,0.1,0.674-0.479,1.152-0.576c-0.251-0.972,0.841-0.6,0.719-1.441c0.618,0.209-0.144,0.825-0.575,0.864
	c0.57,0.248,0.166,0.817,0.575,1.01c-0.173,0.209-0.629,0.138-0.432,0.721c-0.217-0.215-0.607-0.258-0.72-0.578
	c-0.156,0.223-0.034,0.931,0.288,1.153c-0.229,0.357-1.008,0.06-1.297,0C107.065,35.459,107.036,35.39,107.106,34.847z
	 M103.647,50.126c-0.267-0.278-0.264-0.115-0.145-0.577c0.232-0.041,0.249,0.136,0.432,0.143c0.029-0.276-0.247-0.829,0-1.298
	c0.239,0,0.481,0,0.722,0c-0.073,0.553,0.498,0.462,0.286,1.155c-0.166,0.121-0.386,0.189-0.72,0.143
	c-0.07,0.455,0.715,0.054,0.579,0.577c-0.291,0-0.579,0-0.866,0c0.063,0.128,0.127,0.259,0.288,0.288
	c0.059,0.282-0.656,0.211-0.432-0.143c-0.32,0.257-0.598,0.553-1.152,0.577C102.902,50.631,103.036,50.138,103.647,50.126z
	 M105.377,50.557C104.647,51.066,104.583,50.185,105.377,50.557L105.377,50.557z M105.233,50.991
	C105.894,51.085,105.116,51.862,105.233,50.991L105.233,50.991z M104.222,51.422c-0.463-0.247,0.361-0.392,0.579-0.432
	C104.908,51.658,104.249,51.191,104.222,51.422z M103.358,50.846c0.254,0.035,0.33,0.247,0.289,0.577
	c-0.576-0.048-0.8,0.257-1.443,0.145C102.317,51.055,103.247,51.357,103.358,50.846z M101.34,56.9c0.098-0.452,0.439-0.242,0.576,0
	C101.821,57.331,101.609,56.762,101.34,56.9z M102.061,56.9c-0.027-0.123,0.056-0.138,0.144-0.144c0.098,0,0.193,0,0.289,0
	c-0.09,0.342-0.193,0.67-0.576,0.719c-0.051-0.244,0.112-0.271,0.288-0.287C102.229,57.02,102.172,56.932,102.061,56.9z
	 M102.783,57.044c0.244,0.163-0.052,0.996-0.579,0.864c-0.065-0.307,0.208-0.273,0.435-0.287
	C102.578,57.319,102.736,57.238,102.783,57.044z M102.639,60.791c0.239,0,0.479,0,0.72,0c0.049-0.289-0.029-0.451-0.288-0.432
	c0.144-0.404,0.667-0.016,0.72,0.144c-0.129,0.446-0.359,0.793-0.576,1.153c0.083,0.476,0.544,0.208,0.864,0.145
	c-0.417,1.06-0.922-0.306-1.586-0.288C102.705,61.172,102.797,61.244,102.639,60.791z M103.935,61.079c0,0.096,0,0.192,0,0.288
	c-0.095,0-0.193,0-0.288,0c0-0.096,0-0.192,0-0.288C103.742,61.079,103.839,61.079,103.935,61.079z M106.243,66.556
	c0.257-0.02,0.303,0.176,0.574,0.144C106.863,66.955,106.009,66.957,106.243,66.556z M117.483,83.132c-0.096,0-0.194,0-0.288,0
	c0-0.098,0-0.194,0-0.29c0.094,0,0.192,0,0.288,0C117.483,82.938,117.483,83.034,117.483,83.132z M117.914,82.987
	c-0.094,0-0.19,0-0.287,0c0-0.096,0-0.192,0-0.289c0.097,0,0.193,0,0.287,0C117.914,82.795,117.914,82.892,117.914,82.987z
	 M120.22,82.122c-0.315,0.092-0.456-0.408-0.431,0.145c-0.34,0.004-0.425-0.248-0.865-0.145c-0.078-0.684,0.815-0.393,1.152-0.288
	c0.152-0.282,0.291-0.575,0.435-0.864C121.246,81.298,120.147,81.575,120.22,82.122z M120.943,80.104
	c0.27,0.016,0.1,0.476,0.431,0.432c-0.034,0.254-0.249,0.33-0.575,0.289C120.68,80.417,121.001,80.452,120.943,80.104z
	 M120.943,81.834c-0.394-0.13,0.327-0.323,0.287-0.578C121.704,81.472,120.984,81.663,120.943,81.834z M121.951,81.256
	c0.089-0.127,0.175-0.257,0-0.286c0.106-0.257,0.26-0.021,0.431,0c0.044-0.441-0.021-0.985,0.435-1.01
	C122.8,80.665,122.517,81.103,121.951,81.256z M121.951,79.528c0.143,0,0.287,0,0.431,0c-0.375,0.303-0.122,0.561-0.288,0.863
	C121.809,80.12,121.85,79.888,121.951,79.528z M122.817,79.528c0.141,0,0.289,0,0.432,0c-0.078,0.115-0.151,0.232-0.143,0.432
	C122.927,79.897,122.808,79.776,122.817,79.528z M123.537,80.825c-0.044,0.195-0.361,0.118-0.579,0.145
	c0.381-0.346,0.447-0.998,0.867-1.298C124.264,79.934,123.083,80.546,123.537,80.825z M123.537,78.95
	c0.302-0.52,0.464,0.288,0.72,0.288C124.025,79.689,123.8,78.943,123.537,78.95z M124.4,79.816
	c-0.029-0.512,0.677-0.284,0.579-0.866c0.435-0.044,1.12,0.162,1.152-0.288c0.192,0.661-0.958,0.333-1.298,0.866
	c0.127,0.21,0.217,0.456,0.578,0.432C125.241,80.558,124.701,79.938,124.4,79.816z M125.699,80.681
	c0.232-0.042,0.249,0.136,0.433,0.145C126.187,81.104,125.474,81.036,125.699,80.681z M125.987,79.528
	c0.735,0.004,0.081,0.561,0.432,1.008C126.084,80.392,125.953,80.04,125.987,79.528z M124.979,78.808
	c-0.706,0.023-0.178-0.508-0.435-0.721c-0.39,0.599-1.22-0.061-1.152,0.863c-0.129-0.111-0.327-0.154-0.576-0.143
	c-0.427,0.125,0.332,0.213,0.141,0.576c-0.549-0.293-1.308-0.387-1.439,0.433c-0.181-0.483-0.908-0.267-0.866,0.288
	c-0.127-0.064-0.257-0.127-0.286-0.288c-0.308,0.271-0.495,0.659-0.578,1.153c-0.908-0.547-0.952,0.562-1.73,0.576
	c-0.058,0.347,0.263,0.312,0.146,0.721c-0.344-0.098-0.593-0.851-0.722,0c-0.176-0.064-0.296-0.186-0.288-0.433
	c-0.469,0.502-0.512,0.703-0.864,1.44c-1.61,0.068-1.97,1.506-3.46,1.298c-0.004,0.391-0.679,0.497-1.152,0.144
	c-0.173,0.381,0.691,0.372,0,0.433c-0.044,0.38,0.198,0.474,0.574,0.432c-0.095,0.491-0.476,0.143-0.574-0.144
	c-0.336,0.285-0.387,0.285-0.722,0c-0.102-0.391,0.681,0.104,0.576-0.288c-0.573-0.579-1.169,0.456-1.439-0.145
	c-0.432,0.095,0.137,0.31,0,0.576c0.439-0.005,0.949-0.083,0.864,0.433c-0.127-0.064-0.256-0.125-0.288-0.287
	c-0.337,0.045-0.322,0.445-0.576,0.575c-0.374,0.12-0.115-0.403-0.288-0.721c-0.151-0.276-0.737-0.391-0.144-0.432
	c-0.105-0.135-0.264-0.218-0.432-0.288c-0.498,0.29-0.769,0.668-1.154,0.72c0,0.146,0,0.289,0,0.433
	c-0.166-0.61-0.661-0.449-0.719,0.145c-0.334,0.045-0.162-0.416-0.432-0.432c0.491-0.162-0.117-1.746,1.296-1.585
	c0.083-0.469-0.098-0.671-0.145-1.009c0.289,0.475,0.227,0.029,0.72,0c0.007-0.248-0.107-0.373-0.288-0.434
	c0.186-0.402,0.686,0.066,0.722,0.289c0.659-0.512,1.699,0.078,2.304-0.434c-0.651-0.359-1.879-0.056-2.594,0
	c0.054-0.244-0.112-0.271-0.288-0.287c-0.034-0.341,1.305,0.129,0.578-0.433c0.312-0.489,0.522,0.325,0.864,0.288
	c0.156-0.036,0.098-0.288,0.288-0.288c-0.022-0.269-0.489-0.091-0.576-0.288c-0.139-0.268,0.432-0.482,0-0.576
	c0.173,0.101,0.754-0.695,1.152-0.289c0.205-0.185,0.474-0.811,0-0.864c0.035-0.254,0.249-0.33,0.576-0.288
	c0.367-0.356,0.273-1.17,1.154-1.01c0.119-0.55-0.695-0.171-0.576-0.722c0.454,0.383,0.966-0.099,1.296-0.288
	c-0.271-0.49-0.506,0.248-0.865,0.146c0.416-1.255,0.269-2.145-0.29-3.17c-0.124-0.464,0.476-0.198,0.435-0.577
	c-0.676-0.15-0.383,0.672-1.008,0.577c0.718-0.667-0.356-1.422,0.289-2.163c-0.688,0.753-0.615-0.71-0.435-1.298
	c-0.078-0.325-0.225,0.175-0.432-0.144c0.068-0.462,0.549-0.508,0.578-1.009c-0.306-0.066-0.275,0.206-0.287,0.433
	c-0.121-0.755-0.234-1.004-0.291-2.018c0.913,0.19,1.039-0.403,1.586-0.576c-0.104-0.507-0.72,0.067-1.154-0.289
	c0.156-0.71,0.737,0.006,1.298-0.143c0-0.098,0-0.193,0-0.29c-0.095-0.431-0.308,0.139-0.579,0c0.11-0.225,1.059-0.83,1.155-0.144
	c0.395,0.014,0.289-0.24,0.578,0c0.022-0.743-1.293-0.15-1.154-1.01c0.402,0.339,1.118-0.382,1.154,0.433
	c0.378-0.324,0.766-1.035,1.44-1.441c-0.43-0.383-0.242-0.32,0.143-0.433c-0.014-0.272-0.475-0.099-0.431-0.432
	c-0.279,0.267-0.112,0.264-0.576,0.144c-0.042,0.376-0.049,0.721,0.432,0.576c-0.52,0.44-1.576,0.344-2.451,0.433
	c0.135-0.597,1.275-0.281,1.731-0.289c-0.032-0.602,0.234-0.681,0-1.153c0.604,0.427,0.715-0.196,1.585,0.144
	c0-0.096,0-0.191,0-0.286c-0.466-0.425-1.083-0.028-1.297-0.288c-0.021-0.698,0.751,0.064,0.864-0.291
	c-0.23-0.106,0.034-0.706-0.432-0.576c0.535-0.187,1.179-0.262,1.729-0.432c0.022-0.455-0.585-0.281-0.722-0.577
	c0.021,0.343-0.383,0.343-0.72,0c0.122-0.213,0.464-0.209,0.72-0.288c0.395-0.105,0.291,0.286,0.579,0.288
	c1.059-0.526,2.193-0.976,3.457-1.298c0.042-0.232-0.134-0.249-0.144-0.431c-0.25,0.42-1.068,0.276-1.295,0.721
	c-0.633-0.041-0.491-0.854-1.298-0.721c-0.069-0.308,0.208-0.274,0.431-0.289c-0.019-0.314-0.363-0.31-0.72-0.289
	c-0.058,0.348,0.264,0.313,0.145,0.72c-0.703,0.067-0.542,0.097-1.01-0.143c0.127-0.419,0.217-0.163,0.578-0.145
	c0-0.144,0-0.288,0-0.432c-0.358,0.204-1.318,0.569-1.585,0c-0.156,0.037-0.098,0.286-0.289,0.289c0.291,0.286,1.11,0.043,1.01,0.72
	c-0.241,0.254-0.485-0.126-1.01,0c0.104-1.015-1.158-0.665-1.298-1.44c0.73,0.083,1.244,0.09,1.73,0
	c-0.579-0.429-1.23-0.299-2.306-0.432c-0.071,0.454,0.442,0.326,0.288,0.864c0.522-0.104,0.522,0.249,0,0.145
	c0.087,0.488,0.972,0.182,1.298,0.433c0.087,0.568-0.323,0.638-0.723,0.721c0.058-0.586-0.612-0.445-0.72-0.866
	c-0.254,0.035-0.327,0.249-0.288,0.576c-0.518,0.085-0.695-0.167-1.008-0.288c0.107-0.371,0.459-0.501,1.008-0.432
	c-0.244-0.286-0.631-0.424-0.72-0.865c0.168,0.122,0.385,0.19,0.72,0.144c-0.368-0.818-1.164-0.354-2.018-0.578
	c0.342,0.475,1.149,0.486,1.439,1.01c-0.478,0.165-1.496,0.282-1.727-0.432c-0.449-0.065-0.461,0.309-0.432,0.721
	c-0.239-0.897-1.108-0.281-1.586-0.865c-0.456,0.513,0.615,0.725,1.154,0.721c0.171,0.404,0.325,0.829,0.432,1.297
	c0.454-0.244,0.178-0.67,0.144-1.153c0.715-0.017,0.708,0.142,1.296,0c-0.012,0.205-0.021,0.407,0.146,0.432
	c-0.273,0.366-0.504-0.131-0.866,0.145c-0.058,0.348,0.264,0.312,0.144,0.72c-0.239,0.243-0.844,0.115-1.296,0.145
	c0.2-0.415-0.393-0.732,0-0.865c-0.234-0.676-1.545-0.283-1.874-0.865c-0.393-0.104-0.291,0.286-0.576,0.289
	c0.335,0.193,0.896,0.16,0.864,0.72c0.168-0.021,0.122-0.263,0.145-0.431c0.171,0.166,0.51,0.163,0.864,0.143
	c-0.068,0.455,0.444,0.327,0.29,0.865c-0.192,0-0.385,0-0.578,0c0,0.145,0,0.288,0,0.433c0.729-0.448,0.803-0.014,1.73,0
	c0,0.192,0,0.385,0,0.576c-0.438-0.166-0.83,0.064-1.296-0.288c-0.153,1.413,2.146-0.166,2.45,1.297
	c-1.088-0.007-1.144-0.549-1.729-0.433c-0.03,0.006,0.192,0.159,0.288,0.144c-0.281,0.042-0.585-0.063-1.008,0.144
	c0.198,0.249,0.466,0.567-0.146,0.578c0-0.289,0-0.578,0-0.865c-0.105-0.134-0.261-0.218-0.432-0.288
	c-0.505,0.724-1.317-0.163-1.44-0.722c-0.183,0.497-0.373,0.312-0.722,0.433c-0.027,0.314,0.12,0.458,0.435,0.432
	c0.344,0.058-0.081-0.655,0.432-0.432c-0.349,0.876,0.797,0.26,0.576,1.009c0.264-0.386,0.986-0.32,1.007,0.288
	c-0.546-0.29-0.57,0.656-0.288,0.721c-0.092,0.432-0.308-0.138-0.576,0c-0.041-0.328,0.035-0.542,0.289-0.576
	c-0.19-0.241-0.642-0.224-0.864-0.433c-0.056,0.488,0.249,0.616,0.432,0.866c-0.205,0.333-0.781-0.169-1.008-0.288
	c0.073,0.93,1.572,0.443,1.872,1.15c0.396,0.046,0.761-0.667,0.578-0.72c0.457-0.335,0.745,0.589,1.44,0.144
	c0.115,0.859-0.889,0.222-1.152,0.145c-0.129,0.063-0.258,0.126-0.288,0.289c0.044,0.339,0.683,0.085,0.576,0.576
	c0.81-0.146,1.564-0.224,2.303,0.145c-1.397,0.427-2.135-0.237-4.178-0.289c-0.041-0.293-0.39-0.282-0.432-0.576
	c-0.518,0.189-0.529-0.011-1.01,0.145c-0.061-0.302,0.1-0.381,0.145-0.577c-0.335-0.045-0.552,0.025-0.72,0.144
	c-0.013,0.733,0.864,0.579,1.154,1.01c0-0.097,0-0.193,0-0.288c0.095,0,0.193,0,0.288,0c0,0.095,0,0.191,0,0.288
	c-0.095,0-0.193,0-0.288,0c-0.312,0.485-0.661-0.189-1.008-0.145c-0.104,0.681,0.898,0.254,0.72,1.01
	c-0.505-0.167-0.83-0.518-1.442-0.577c0.144,0.577,0.812,0.63,1.296,0.864c0.229-0.377,0.714-0.496,0.434-1.008
	c0.491,0.032,0.449,0.458,0.145,0.575c0.71,0.005,1.198,0.402,2.159,0.433c0.293,0.292-0.063,0.284-0.142,0.577
	c0.354-0.02,0.693-0.022,0.864,0.144c-0.122,0.515-0.354,0.018-0.864,0.144c0.149-0.724-0.841-0.312-0.866-0.865
	c-0.168,0.024-0.122,0.264-0.144,0.433c-0.295-0.039-0.289-0.385-0.432-0.578c-0.217,0.58-0.532-0.193-0.864,0.145
	c0.03,0.76,0.654,0.174,1.008,0.433c-1.273,0.552-2.298-0.39-2.881-1.009c0,0.527,0.283,0.772,0.576,1.009
	c0.024,0.313-0.512,0.065-0.72,0.145c0.473-1.021-0.75-0.321-0.867-1.01c-0.278,0.06-0.112,0.56-0.575,0.433
	c0.271-0.653-0.574-0.196-0.432-0.721c0.407-0.118,0.373,0.204,0.72,0.145c0.278-0.059,0.114-0.56,0.576-0.432
	c-0.285-0.291-0.573-0.579-0.863-0.865c-0.491,0.361,0.302,0.648,0.288,1.009c-0.52,0.041-0.391-0.57-0.864-0.577
	c-0.003-0.763,0.773-0.526,0.432-1.295c0.419-0.01,0.708-0.14,1.298-0.291c0-0.144,0-0.288,0-0.433
	c-0.083-0.325-0.227,0.175-0.435-0.144c0.505-0.175,0.144-0.542,0.576-0.576c0.156-0.539-0.356-0.411-0.286-0.866
	c0.176,0.064,0.295,0.186,0.286,0.434c0.332-0.294-0.198-0.945-0.432-1.153c0.022-0.267,0.488-0.087,0.579-0.288
	c-0.391-0.338-0.745-0.186-1.298-0.144c-0.239-0.144-0.103-0.667-0.432-0.721c-0.427,0.125,0.334,0.216,0.144,0.577
	c-0.246-0.008-0.373,0.107-0.432,0.288c0.391-0.661-1.059-0.738-1.442-1.441c0.732-0.059,1.005,0.342,1.442,0.576
	c0.029-0.655-0.713-0.536-1.01-0.864c0.517-0.457,0.769,0.348,1.298,0c-0.063-0.177-0.185-0.295-0.432-0.289
	c0.19-0.206,0.639-0.381,0.864-0.144c-0.039-0.376-0.049-0.721,0.432-0.577c0.179-0.466-0.466-0.11-0.288-0.576
	c0.234-0.041,0.249,0.135,0.432,0.144c-0.044-0.436-0.444-0.515-0.288-1.153c-0.327,0.105-0.735,0.129-1.008,0.289
	c0.037,0.299,0.632,0.038,0.72,0.288c-0.347,0.555-0.424-0.067-1.007,0c-0.062-0.348,0.261-0.315,0.144-0.722
	c-0.278-0.355-0.678-0.743-1.01-0.287c0.017,0.368,0.483,0.285,0.867,0.287c-0.076,0.214-0.215,0.364-0.291,0.578
	c-0.964-0.281-1.711-0.273-2.738,0.144c0.19-1.012,0.745-1.216,0.72-2.162c0.547,0.066,0.52-0.441,0.722-0.721
	c0.174,0.485,1.203,0.303,1.442,0c-0.334-0.462-0.644,0.307-1.154,0.143c-0.273-0.36,0.119-0.564-0.145-1.007
	c0.632,0.062,0.474-0.444,1.01-0.144c-0.095-0.146-0.332-0.149-0.29-0.433c0.898-0.074,1.137-0.081,2.162-0.145
	c0.174,0.19,0.057,0.227,0,0.433c0.193,0,0.386,0,0.579,0c-0.107-0.136-0.263-0.219-0.435-0.288c0.646-0.068,1.501-0.378,1.73,0.577
	c-0.117-0.029-0.144-0.146-0.288-0.144c-0.024,0.361,0.222,0.451,0.434,0.575c0.403-0.712,0.596,0.305,1.152,0.289
	c0.207-0.358-0.7-0.832-1.152-1.008c0.347-0.238,0.327-0.737,0.864-0.433c0.083-0.517-0.427-0.438-0.864-0.432
	c-0.087-0.346-0.209-0.658-0.146-1.153c0.82-0.064,0.932,0.353,1.874,0.431c-0.938,0.51,1.269,0.045,0.576,0.723
	c0.637,0.187,0.669-0.615,1.154-0.146c-0.366-0.9-0.605-1.78-1.73-1.729c1.049-0.883,1.406,1.237,2.882,0.865
	c0.042-0.232-0.137-0.248-0.144-0.431c-0.859,0.321-1.305-0.349-1.73-0.865c-0.692,0.165-1.168,0.251-1.583-0.289
	c-0.394-0.104,0.102,0.68-0.289,0.578c0.19,0.047,0.471,0.11,0.864,0.288c0.066,0.45-0.125,0.644-0.576,0.576
	c0.075-0.116,0.149-0.235,0.144-0.433c-0.805,0.057-1.703-0.967-2.738-1.153c0.383-0.424,1.02,0.564,1.442-0.289
	c-0.024-0.32-0.366,0.188-0.722,0c0.098-0.285,0.439-0.328,0.576-0.576c-0.015-0.445-0.561,0.446-0.576,0
	c-0.224-0.512,0.488-0.087,0.432-0.433c-0.027-0.117-0.144-0.143-0.144-0.287c-0.227,0.351-0.954,0.201-0.866,0.865
	c-0.957-0.391,0.146,0.559-1.008,0.43c-0.054-0.245,0.112-0.271,0.288-0.288c-0.934-0.795,0.066-1.786,0.288-2.594
	c-0.588-0.11-0.081-0.768-0.144-1.297c0.198,0.043,0.122,0.36,0.144,0.576c0.242,0,0.481,0,0.723,0
	c-0.108-0.328-0.435-0.43-0.723-0.576c0.078-1.22,1.054-1.539,1.01-2.883c0.339-0.046,0.542-0.228,1.008-0.145
	c0.054-0.246-0.112-0.271-0.286-0.288c0.02-0.314,0.362-0.31,0.72-0.288c-0.217,0.65,0.142,0.581,0.288,1.153
	c0.608-0.004,0.93,0.278,1.44,0c0.369,0.545,1.259,0.565,1.586,1.153c0.168-0.024,0.12-0.264,0.145-0.432
	c0.361,0.553,0.913,0.912,1.01,1.729c0.143-0.095,0.146-0.332,0.432-0.289c-0.104-0.134-0.264-0.218-0.432-0.288
	c0.031-0.399,0.812-0.052,0.72-0.577c0.075,0.403,0.681,0.28,0.72,0.72c0.246,0.007,0.373-0.107,0.432-0.288
	c-0.217-0.359-0.684-0.47-1.011-0.721c-0.068-0.454,0.498-0.38,0.147-0.72c-0.598,0.292-1.115,1.159-1.73,0.288
	c-0.107-0.442,0.498-0.176,0.288-0.721c-0.092-0.193-0.308-0.268-0.576-0.288c-0.1,0.387,0.297,0.278,0.432,0.433
	c-0.164,0.389-0.62,0.464-1.008,0.432c-0.005,0,0.002-0.288,0-0.288c-0.396,0.013-0.883,0.047-0.722-0.721
	c-0.542-0.073-0.654-0.182-0.864,0.289c-0.227-0.252-0.771-0.188-1.008-0.432c-0.1-0.48,0.298-0.233,0.432-0.145
	c-0.271-0.643-1.537-0.29-1.73-1.01c0.48,0.05,0.639,0.42,1.298,0.29c-0.161-0.561-1.093-0.35-1.586-0.576
	c-0.046-0.479,0.708-0.156,0.432-0.865c0.927,0.035,1.454,0.466,2.306,0.577c0.68-1.218-1.462-1.439-2.019-1.441
	c0.02,0.461,0.645,0.318,0.866,0.576c0.01,0.606-0.532-0.32-1.154,0c0.09-0.823,0.617-1.209,0.72-2.019
	c0.841,0.168,1.374,0.646,2.161,0.866c0.576-0.672,0.796-1.636,0.867-2.451c0.405,0.317,0.452,0.766,0.144,1.441
	c0.422-0.155,0.288-0.863,0.864-0.865c-0.105,0.683,0.164,0.991,0.144,1.585c0.289,0,0.576,0,0.866,0
	c-0.12,0.407,0.202,0.373,0.144,0.721c-0.117-0.076-0.234-0.15-0.435-0.144c0.415,0.869,1.291,0.408,2.306,0.576
	c-0.065,0.366-0.622,0.242-0.72,0.577c-0.479-0.304-0.779-0.075-1.44,0c0.55,0.269,1.106,0.525,2.016,0.433
	c0.073-0.186,0.154-0.297,0.291-0.721c0.361-0.025,0.349,0.323,0.576,0.433c0.166,0.452-0.227,0.35-0.288,0.577
	c0.437-0.135,1.439,0.243,2.162-0.145c-0.162-0.399-0.227-0.809,0.431-0.721c-0.375-0.45,0.4-0.455,0-1.009
	c0.464-0.127,0.198,0.476,0.577,0.432c0.139-0.619-0.403-0.557-0.433-1.009c0.34-0.351,0.323,0.162,0.577,0.289
	c0.302-0.5-0.467-1.165-0.577-1.73c-1.085-0.077-1.51,0.506-2.449,0.576c0.093,0.526-0.098,0.769-0.288,1.01
	c0.352,0.41,1.029,1.117,0.864,1.585c-0.579-0.571-1.313-1.099-2.306-0.866c0-0.191,0-0.383,0-0.575
	c0.366,0.073,0.559,0.245,0.577-0.289c0.241,0,0.483,0,0.719,0c0.483-0.601,0.385-1.842-0.288-1.73
	c-0.608-0.719-0.044-2.081,1.01-1.441c0.842-0.736,2.375-0.428,3.17-0.288c0.278-0.206,0.415-0.549,0.866-0.577
	c0.538,0.199-0.424,0.022-0.287,0.288c0.321,0.117,1.129-0.042,1.729,0.145c-0.495,0.417,0.063,0.54,0.286,1.008
	c-0.674,0.226-0.821-0.459-1.152-0.144c0.52,0.634,1.618,0.688,2.45,1.008c0.104,0.394-0.286,0.291-0.288,0.577
	c0.935,0.39,1.739-1.09,2.162-0.144c-0.259,0.018-0.306-0.176-0.577-0.144c-0.141,1.216,2.072,0.885,2.594,1.874
	c-0.856-0.07-1.427-0.964-2.737-0.865c-0.062,0.347,0.26,0.312,0.143,0.721c0.232,0.024,0.567,0.659,0.721,0.288
	c0.139,0.004,0.112,0.176,0.143,0.287c0,0.097,0,0.193,0,0.289c-0.451-0.317-1.21-0.327-2.018-0.289
	c0.269-0.264-0.224-0.505-0.431-0.719c-0.044-0.334,0.417-0.161,0.431-0.434c-0.756-0.294-1.544-0.141-2.162-0.288
	c0.067,0.921,1.14-0.097,1.586,0.577c-0.632,0.705-1.752-0.018-2.162-0.432c-0.196,0.24,0.058,0.783-0.289,1.153
	c-0.377,0.043-0.114-0.559-0.575-0.432c-0.406,0.001,0.342,0.393-0.289,0.288c0.215,0.335,0.352,0.221,0.72,0.144
	c0.022,0.551-0.587,0.469-0.866,0.721c0.112,0.647-0.181,2.203,0.723,2.45c-0.181-0.717,0.137-0.05,1.151-0.144
	c-0.204,0.211-0.21,0.557,0.288,0.432c-0.709,1.156-1.927,0.017-2.737-0.576c-0.477,0.216,0.483,0.169,0.287,0.576
	c-0.258,0.018-0.302-0.176-0.575-0.144c1.413,0.772,1.737,1.012,3.172,1.874c-0.631,0.196-1.362-0.75-2.02-1.009
	c-0.503,0.659-1.064-0.412-1.296,0.432c-0.712-0.312-0.09-1.547-1.298-1.585c-0.578-0.1-0.354,0.607-0.864,0.577
	c0.077,0.213,0.215,0.363,0.289,0.577c0.327-0.154,0.525-0.438,0.575-0.865c0.259-0.018,0.306,0.176,0.579,0.144
	c0,0.241,0,0.482,0,0.721c-0.146,0-0.291,0-0.433,0c0.196,0.525,1.021,0.419,1.152,1.009c-0.666-0.201-0.942-0.79-1.729-0.865
	c0.02,0.605,0.893,0.356,0.864,1.009c-0.454-0.166-0.35,0.227-0.577,0.288c0.386,0.385,0.852,0.686,1.442,0.865
	c-0.371,0.206-0.688,0.465-1.298,0.432c0-0.288,0-0.576,0-0.865c-0.021-0.169-0.263-0.121-0.431-0.144
	c-0.403,0.184,0.456,0.297,0.287,0.72c-0.747-0.246-0.656-0.502-1.583-0.433c-0.146-0.625,0.317-0.642,0.576-0.864
	c0.451-0.068,0.38,0.388,0.72,0.432c0.117-0.026,0.144-0.144,0.287-0.144c-0.8-0.447-1.505-0.991-2.593-1.153
	c0.192,0.239,0.642,0.224,0.864,0.433c0.208-0.029-0.591,1.367-0.576,1.441c0.3,1.55,2.603,0.333,3.028,1.729
	c-0.185-0.196-0.681-0.196-0.866,0c0.341,0.217,0.532,0.22,0.287,0.721c1.137,0.484,1.689-0.242,2.595,0
	c0.2,0.054,0.171,0.362,0.291,0.432c0.781,0.458,1.256,1.807,2.737,1.011c0.11-0.062,0.135-0.133,0.144-0.29
	c0.385,0.447,0.547-0.378,0.864,0c0.021,0.454-0.802,0.061-0.575,0.72c-0.408,0.12-0.374-0.202-0.721-0.143
	c-0.37,0.034,0.196,0.247,0,0.576c0.917-0.022,1.798-0.484,2.162-1.441c0.859,0.083,2.152,0.13,2.45,1.152
	c0.446-0.219,0.449-0.352,0.576,0.289c-0.231,0.041-0.249-0.137-0.432-0.144c-0.192,0.096-0.269,0.309-0.288,0.577
	c0.986,0.599,1.674-0.341,2.162-0.722c0,0.448-0.825,0.895-0.146,1.155c-0.425-0.197-1.364,0.379-1.872-0.146
	c-0.388,0.446,0.629,0.71,0.433,1.442c0.539-0.202,1.175,0.12,1.729-0.289c0.527,0.227-0.334,0.216-0.144,0.577
	c-0.875-0.277-0.862,0.145-1.73,0.146c0.09-0.543-0.456-1.594-1.154-1.441c-0.156,0.596-0.469,0.202-0.864,0.431
	c0.046,0.167,0.629,0.497,0.719,0.145c0.444,0.269-0.469,0.381-0.288,0.865c-0.381-0.172-0.446-0.126-0.288-0.577
	c-0.429,0.24-0.766,0.577-1.007,1.008c-0.508,0.026-0.477-0.487-0.867-0.578c0.419-0.007,0.737-0.11,0.579-1.008
	c0.293,0.289,0.383,0.039,0.576-0.145c-0.014-0.277-0.537,0.225-0.72-0.143c0.493-0.448,0.82-0.212,1.008-1.011
	c0.027-0.314-0.117-0.458-0.432-0.433c0.032-0.253,0.247-0.328,0.577-0.287c-0.743-0.748-1.281,0.96-2.451,0.719
	c-0.054,0.246,0.112,0.274,0.289,0.289c-0.583,0.433-1.404-0.129-1.731-0.433c-0.187,0.718,0.444,0.614,0.435,1.154
	c-0.241,0-0.483,0-0.722,0c-0.083-0.302-0.357-0.412-0.288-0.865c-0.256-0.087-0.601,0.422-0.72,0
	c-0.027-0.554,0.117-0.052,0.431-0.146c-0.017-0.271-0.476-0.1-0.431-0.433c-0.3,0.044,0.212,0.391-0.291,0.433
	c-0.552,0.027-0.052-0.118-0.142-0.433c-0.277,0.059-0.114,0.559-0.578,0.433c0.264,0.658,0.793,0.159,1.297,0.577
	c-0.305,0.252-0.417,0.011-0.866,0c0.229,0.639,1.088,0.643,1.298,1.299c-0.354,0.126-0.527,0.431-1.152,0.288
	c0.081-0.3,0.223-0.306,0.433-0.145c0.029-0.701-1.191-0.155-1.01-1.008c-0.134,0.388-1.294,0.326-0.865,0
	c-0.534,0.04-0.991,0.162-1.154,0.576c0.257,0.368,0.677,0.575,0.723,1.153c-0.576,0.143-0.435-0.43-1.01-0.288
	c-0.025,0.409,0.487,0.28,0.287,0.864c-0.453,0.07-0.506-0.26-1.007-0.144c0.343,0.062,1.322,0.786,1.439,0.144
	c1.15-0.055,3.041,0.204,2.741,1.153c-0.994-0.676-2.404-0.955-3.029-0.145c0.037,0.3,0.635,0.041,0.723,0.288
	c-0.146,0.239-0.613,0.157-0.867,0.29c0.015-0.206,0.025-0.409-0.143-0.433c-0.3,0.042,0.214,0.39-0.288,0.433
	c0.273,0.16,0.505,0.358,0.864,0.433c-0.41,0.259-1.218-0.314-1.583-0.577c-0.167,0.409,0.671,1.052,1.441,1.007
	c-0.114,0.788,0.891,0.453,0.864,1.155c-0.441,0.103-0.424-0.249-0.864-0.145c0.059-0.348-0.264-0.313-0.146-0.722
	c-1.068-0.007-1.627-0.239-2.449-0.143c0.661,0.993,1.874-0.304,2.305,0.864c-0.541,0.323-1.305-0.177-2.161,0
	c0.292,0.525,0.864,0.119,1.441,0.145c0.12,0.166,0.19,0.385,0.145,0.72c-0.289,0-0.576,0-0.866,0
	c0.087-0.375-0.056-0.519-0.432-0.433c0.698,0.594-0.468,0.506-0.864,0.288c0.061,0.757,1.696-0.062,1.586,0.865
	c0.168-0.022,0.12-0.263,0.144-0.432c0.797,0.35,1.518,0.065,2.305-0.144c-0.017-0.273-0.478-0.1-0.431-0.433
	c-0.086,0.366-0.891,0.388-1.154,0.144c0.083-1.033,1.231-0.086,1.874-0.432c-0.054,0.245,0.112,0.271,0.288,0.288
	c-0.391,0.603-0.64,0.488-0.288,1.295c-0.349-0.059-0.315,0.265-0.72,0.146c-0.171-0.214-0.125-0.645-0.577-0.577
	c-0.354,0.015-0.031,0.476,0.142,0.431c-0.646,0.231-2.364,0.016-3.026-0.575c-0.181,0.035-0.144,0.287,0,0.288
	c-1.323,0.226-2.372-0.279-3.602-0.288c0.786,0.749,2.667,0.407,3.458,1.151c0.215-0.062-0.058-0.184,0-0.431
	c0.242,0.254,0.483-0.129,1.008,0c0.044,0.293,0.288,0.383,0.435,0.576c0.19-0.144,0.283-0.39,0.575-0.433
	c0.683,0.23,0.925,0.901,1.443,1.297c0.065-0.688,0.654-0.019,0.719-0.576c0.406,0.027,0.396,0.471,0.72,0.576
	c0.508,0.231,0.154-0.722,0-0.432c0.164-0.309,0.598-0.063,0.867-0.578c-0.298-0.7-0.862,0.109-1.298,0.146
	c-0.063-0.177-0.186-0.295-0.433-0.289c0.496-0.584,1.277,0.013,1.731-0.576c0.224-0.469-0.745-0.776,0-0.864
	c-0.235-0.343-1.213,0.058-1.01-0.72c0.539,0.063,0.747,0.019,1.154,0.432c0.391-0.132-0.386-0.27-0.144-0.722
	c-0.242,0-0.481,0-0.723,0c0.298-0.293,0.137-0.867-0.287-0.865c0.016-0.318,0.612-0.061,0.866-0.143
	c-0.62,0.632,0.19,0.504,0.575,0.865c-0.095,0.145-0.331,0.147-0.287,0.433c0.319,0.078,0.204-0.276,0.431-0.29
	c-0.251-0.645-0.666-0.75-0.575-1.44c0.285,0.097,0.327,0.438,0.575,0.575c0.137-0.24,0.479-0.45,0.577,0
	c0.302-0.04-0.208-0.383,0.143-0.575c0.288,0.145,0.505,0.359,0.721,0.575c-0.232,0.215-0.694-0.094-1.008,0.289
	c0.068,0.362,0.077,0.891,0.575,1.154c0.608-0.071,0.291-0.821,0.723,0c0.72-0.124,0.458-0.673,0.575-1.154
	c0.444,0.315,0.306,0.995,0.433,1.298c0.268-0.438,0.17-0.349,0.722-0.432c-0.098-0.195-0.31-0.269-0.579-0.29
	c-0.01-0.431,0.425-0.731,0.723-0.431c0-0.241,0-0.481,0-0.722c0.408,0.119,0.374-0.203,0.72-0.142
	c0.289,0.292-0.063,0.282-0.144,0.576c0.552,0.072,1.118,0.129,1.152,0.719c-0.542-0.519-1.173-0.555-1.439-0.143
	c-0.052,0.079,0.233,0.181,0.287,0.143c-0.546,0.378-1.743,1.01-0.866,1.586c0.446,0.107,0.175-0.499,0.722-0.288
	c-0.083,0.494-0.651,0.5-0.866,0.865c-0.358,0.14-0.188-0.286-0.144-0.289c-0.308,0.022-0.819,0.722-1.008,1.153
	c-0.739-0.386-1.716,1.427-2.162,0.144c-0.627-0.099-0.798,0.259-1.01,0.577c0.388,0.092,0.405,0.556,0.866,0.576
	c0.152-0.77,0.889-0.063,1.442-0.432c-0.195,0.721,0.3,0.201,0.72,0.289c0.024,0.005-0.027,0.275,0,0.288
	c0.344,0.169,0.854,0.074,1.152,0.433c-0.044,0.196-0.358,0.12-0.575,0.144c0.325,0.75,1.104-0.798,1.295,0.431
	c-0.419,0.013-0.81,0.054-0.72,0.578c0.56-0.131,0.852-0.745,1.442-0.433c0.008-0.441-0.52-0.346-0.432-0.865
	c0.273-0.062,0.361-0.31,0.721-0.288c-0.369,0.735-0.081,0.945,0,1.585c0.46,0.089,0.197-0.519,0.575-0.145
	c0.081,0.319-0.275,0.205-0.288,0.433c-0.444,0.108-0.275-0.396-0.72-0.288c-0.179,0.062-0.298,0.185-0.288,0.433
	c0.063,0.214,0.186-0.058,0.432,0c0.127,0.461-0.475,0.197-0.432,0.575c0.027,0.117,0.144,0.144,0.144,0.289
	c0.386-0.036,0.546-0.607,0.864-0.289c0.198,0.454-0.947,0.283-0.431,0.578c-0.277,0.295-0.625,0.288-1.008,0.146
	c-0.154,0.535,0.485,0.28,0.576,0.574c-0.071,0.669-0.603,0.237-1.154,0.577c-0.271-0.274-0.014-0.361,0-0.72
	c-0.648,0.295-0.635,0.127-1.295-0.144c0.258-0.342,0.558-0.206,1.151-0.432c0.067-0.402-0.785,0.113-0.72-0.289
	c0.075-0.5,0.777-0.377,1.152-0.577c0.017,0.542,0.652,0.1,0.29,0.72c0.231,0.042,0.247-0.136,0.432-0.144
	c-0.375-0.344-0.374-0.636-0.432-1.009c-0.9-0.087-1.327,0.955-2.45,0.576c0.027-0.441,1-0.847,1.152-0.289
	c0.254-0.033,0.33-0.248,0.289-0.575c-0.34-0.185-0.967,0.046-1.44-0.289c0.469,0.514-0.012,0.542-0.435,0.864
	c0.027,0.408,0.687,0.181,0.579,0.722c0.206,0.012,0.408,0.023,0.433-0.144c0.122-0.028,0.133,0.056,0.143,0.144
	c-0.027,0.123,0.057,0.136,0.144,0.144c-0.021,0.413-0.6,0.264-1.01,0.291c0.129,0.59,1.143,0.298,1.154,1.007
	c-0.629-0.196-0.308,0.557-0.864,0.432c0.044,0.195,0.358,0.121,0.576,0.145c-0.104,0.491-1.408,0.325-1.729,0.145
	c-0.076,0.478,0.52,0.644,1.154,0.432c0.01,0.228-0.071,0.55,0.142,0.576c-0.015,0.37-0.537,0.233-0.721,0.433
	c-0.043,0.38,0.2,0.474,0.579,0.432c0.266-0.021,0.088-0.488,0.289-0.577c0.417,0.231,0.373-0.266,1.008,0
	c-0.208,0.656-1.127,0.603-1.731,0.865c-0.004,0.247,0.108,0.374,0.291,0.432c0.161-0.318,0.635-0.326,1.008-0.432
	c0.264,0.909,1.118,0.479,1.874,0.72c-0.158,0.755-1.424,0.403-1.874,0.866c1.033,0.422,1.101-0.157,2.162,0
	c0.212,0.548-0.644,0.027-0.431,0.575c-0.501-0.335-1.596,0.704-1.731-0.432c-0.358-0.022-0.598,0.074-0.722,0.288
	c-0.254-0.128-0.42-0.348-0.721-0.431c-0.004-0.439,0.727-0.141,0.721-0.577c-0.142-0.195-0.384-0.288-0.577-0.433
	c-0.404,0.143,0.21,0.383-0.144,0.576c-0.287,0.06-1.068,0.357-1.295,0c0.187-0.436,0.856-0.391,1.295-0.576
	c0.105-0.394-0.285-0.291-0.287-0.577c-0.398,0.462-0.417,0.39-0.721-0.145c-0.517,0.226,0.113,0.848-0.72,0.866
	c0.056,0.374,0.429,0.433,0.433,0.865c-0.63-0.102-0.813,0.246-1.442,0.144c-0.168-0.215-0.181-0.589-0.433-0.72
	c-0.419,0.245,0.327,0.524,0.144,1.008c-0.441-0.104-0.524,0.147-0.866,0.144c0.185,0.299,0.598,0.802,0.291,1.154
	c0.358,0.021,0.446-0.228,0.719-0.289c-0.231-0.199-0.456-0.409-0.719-0.577c1.533-0.168,2.53-1.297,3.745-0.433
	c-0.504,0.61-1.608,0.229-2.018,0.288c0.396-0.005,0.046,0.513,0,0.433c0.278,0.485,0.983,0.354,1.442-0.144
	c0.314,0.021,0.31,0.363,0.288,0.722c-0.334-0.048-0.552,0.022-0.721,0.143c0.215,0.169,0.169,0.6,0.577,0.577
	c-0.286,0.291-1.175-0.02-1.008,0.721c-0.542-0.3-0.959-0.003-1.154,0.433c0.714,0.327,1.203-0.813,2.306-0.577
	c0.168-0.023,0.122-0.262,0.143-0.432c0.525,0.215,0.894-0.055,1.442,0.289c0.423-0.125-0.188-0.365,0-0.722
	c0.354,0.019,0.693,0.021,0.864-0.145c-0.027-0.454-0.775-0.183-0.72-0.721c0.254,0.207,0.33,0.134,0.289-0.288
	c0.281,0.324,1.227-0.461,1.151,0.433c-0.446,0.19-0.797-0.428-1.007,0c0.341-0.111,0.141,0.57,0.722,0.576
	c-0.329,0.43-1.569,0.697-0.866,1.297c0.404-0.644,1.337-1.061,1.874-1.153c-0.09-0.545-0.602,0.156-0.575-0.577
	c0.336-0.048,0.595-0.173,0.864-0.289c-0.042-0.336-0.391-0.336-0.433,0c-0.346,0.057,0.081-0.656-0.431-0.432
	c0.014-0.273,0.475-0.101,0.431-0.433c0.242,0.241,0.481,0.48,0.72,0.721c0.13-0.063,0.259-0.126,0.288-0.288
	c-0.202-0.325-0.937-0.119-0.864-0.72c0.544,0.219,1.071,0.676,1.583,0.143c0.113,0.129,0.156,0.327,0.146,0.578
	c-0.747-0.28-1.002,0.828-1.73,1.008c0.793,0.34,1.271,0.196,2.162,0.289c-0.823,0.461-2.054,0.064-2.885,0.433
	c-0.039,0.328,0.037,0.541,0.291,0.576c0.467,0.178,0.109-0.466,0.577-0.287c-0.115,0.884-1.645,0.927-2.162,0.575
	c-0.177,0.063-0.296,0.185-0.289,0.433c0.029,0.214,0.942,0.579,0.864,0c0.419,0.201-0.041,0.712-0.144,0.865
	c0.013,0.518,0.942,0.115,1.154,0.434c0.042-0.764-0.512-0.931-0.722-1.441c0.602,0.3,1.179-0.122,1.874-0.145
	c0.139,0.268-0.431,0.481,0,0.576c0.071,0.19-0.662,0.01-0.72-0.143c-0.783,0.291,0.622,1.188-0.432,1.296
	c0.225,0.474,0.213,0.636,0.288,1.01c0.232-0.201,0.154-0.712,0.433-0.865c0.541,0.11,0.687-0.176,1.154-0.145
	c-0.352,0.298,0.4,0.802,0,1.154c-0.417-0.065-0.659-0.304-0.723-0.72c-0.181,0.035-0.144,0.286,0,0.288
	c-0.144,0.24-0.666,0.102-0.72,0.433c0.385,0.689,1-0.436,1.442,0.287c0.156-0.035,0.097-0.286,0.288-0.287
	c0.557-0.125,0.513,0.352,0.864,0.433c0.168-0.023,0.123-0.263,0.144-0.433c0.346,0.279,1.164,0.085,1.298,0.575
	c-1.047-0.105-2.008-0.042-3.028,0c-0.039,0.234,0.137,0.249,0.145,0.434c0.685-0.599,1.208,0.436,1.874-0.146
	c-0.044,0.588,0.3,0.079,0.576,0.146c-0.09,0.532-0.808,0.438-1.439,0.431c0.044,0.338,0.281,0.596,0,0.865
	c0.021,0.268,0.488,0.088,0.576,0.288C126.128,78.413,124.339,77.657,124.979,78.808z M107.827,67.132
	c0.232-0.041,0.249,0.136,0.432,0.145C108.314,67.557,107.602,67.487,107.827,67.132z M109.845,67.709
	c-0.444,0.108-0.176-0.497-0.722-0.289C109.173,66.943,110.011,67.139,109.845,67.709z M110.133,80.392
	C110.745,80.421,108.742,80.331,110.133,80.392L110.133,80.392z M109.123,66.556C108.808,66.997,108.2,66.389,109.123,66.556
	L109.123,66.556z M111.285,66.267c-0.09,0.498-1.306,0.336-1.296-0.144C110.582,66.011,110.728,66.344,111.285,66.267z
	 M108.69,65.546c-0.286-0.098-0.383-0.383-0.432-0.72c0.605,0.237,1.118,0.579,1.73,0.432c-0.025,0.168,0.032,0.256,0.144,0.288
	C109.864,66.365,109.108,64.999,108.69,65.546z M110.997,63.961c0.393-0.384,1.256-0.013,1.585,0.144
	c0.013,0.229-0.07,0.549,0.145,0.576c-0.024,0.17-0.264,0.122-0.435,0.145c-0.021-0.168,0.034-0.257,0.147-0.288
	C112.144,63.848,111.451,64.449,110.997,63.961z M109.845,62.952c0.454-0.263,0.708,0.034,1.296,0
	C111.026,63.875,110.257,63.014,109.845,62.952z M111.285,60.214c0.167,0.024,0.258-0.032,0.287-0.145
	c0.296,0.381,0.827,0.519,1.298,0.722c0.134,0.455-1.037,0.074-1.298,0c-0.054,0.536,0.586,0.376,0.435,1.009
	c-0.406-0.166-0.749-0.166-1.154,0c0-0.192,0-0.385,0-0.577c0.192,0,0.385,0,0.579,0C110.811,60.879,111.682,60.779,111.285,60.214z
	 M116.35,60.246c-0.002-0.013-0.017-0.017-0.019-0.032c0.024-0.008,0.056-0.011,0.085-0.014c0.078-0.055,0.149-0.103,0.203-0.13
	c-0.003,0.108-0.105,0.117-0.203,0.13C116.395,60.213,116.373,60.229,116.35,60.246c0.081,0.237,0.52,0.12,0.556,0.4
	c0.454-0.18,0.027-0.418,0.433-0.72c0.439-0.007,0.562,0.303,0.866,0.433c-0.244,0.382-0.988,0.501-1.585,0.575
	c-0.657,0.082-1.96,0.215-2.162-0.431c0.578,0.099,0.822-0.138,1.295-0.144C115.257,61.113,115.896,60.574,116.35,60.246z
	 M115.177,61.367c0,0.145,0,0.288,0,0.433c-0.206,0.013-0.41,0.023-0.433-0.145c-0.249,0.045,0.188,0.501-0.431,0.432
	c0.039-0.328-0.037-0.541-0.288-0.575C114.13,61.187,114.833,61.455,115.177,61.367z M113.015,63.097
	c0.627-0.193,0.806-0.081,1.298,0.146C114.22,63.74,113.005,63.578,113.015,63.097z M114.167,64.393
	c-0.891-0.098-1.389,0.23-1.44-0.577c0.359-0.136,0.869,0.515,0.864-0.144C113.84,63.859,114.159,63.971,114.167,64.393z
	 M112.007,62.376c0.366-0.451,0.966,0.082,1.296,0.144C112.905,62.985,112.299,62.741,112.007,62.376z M113.59,62.52
	c-0.049-0.506,1.513-0.44,1.298,0.145C114.498,62.575,113.744,62.846,113.59,62.52z M113.447,61.223
	c-0.248-0.184-0.567-0.298-0.577-0.72c0.259,0.018,0.305-0.176,0.577-0.144c-0.05,0.518,0.527-0.052,0.866,0.287
	C114.43,61.564,113.442,60.478,113.447,61.223z M113.59,61.944c-0.566,0.264-1.147-0.149-1.298-0.722
	C112.772,61.417,113.734,61.127,113.59,61.944z M112.871,63.097c-0.154,0.827-1.32,0.569-1.439-0.145
	C111.918,62.992,112.6,62.841,112.871,63.097z M112.582,65.691c-0.817-0.172-1.481,0.341-2.306-0.146
	c0.232-0.583,1.172,0.376,1.442-0.288C112.022,65.387,112.358,65.482,112.582,65.691z M112.582,66.556
	c-0.533-0.018-0.363-0.21-0.29-0.577C112.549,66.015,112.622,66.227,112.582,66.556z M112.007,66.267
	c-0.275,0.198-0.275,1.02-1.01,0.577c-0.109-0.541,0.291-0.041,0.435-0.144C111.609,66.572,111.421,65.915,112.007,66.267z
	 M110.421,66.844c0.022-0.039,0.31-0.266,0.432-0.144C110.953,66.8,110.284,67.098,110.421,66.844z M111.431,67.277
	c-0.498,0.216-0.696,0.552-1.155,0.143C110.384,67.096,111.085,67.365,111.431,67.277z M113.015,65.546
	c0.495-0.443,0.893-0.135,1.586-0.431C114.469,65.88,113.476,65.533,113.015,65.546z M109.123,63.816
	c-0.176-0.062-0.295-0.184-0.288-0.431C109.013,63.449,109.132,63.57,109.123,63.816z M108.259,65.115
	c-0.142,0.443-0.383-0.164-0.576-0.144C107.824,64.528,108.065,65.136,108.259,65.115z M108.114,50.269c0-0.144,0-0.289,0-0.431
	C108.537,49.626,108.537,50.481,108.114,50.269z M107.539,38.595c0.215-0.334,0.352-0.22,0.72-0.144
	C108.283,39.095,107.751,38.822,107.539,38.595z M115.898,37.442c-0.434-0.478-0.16-0.082-0.146,0.432
	c-0.395-0.277-0.668-0.675-0.575-1.441c0.408,0.119,0.373-0.203,0.722-0.145C115.652,36.996,116.128,36.838,115.898,37.442z
	 M119.645,45.081c0.095,0,0.192,0,0.287,0c0,0.096,0,0.192,0,0.288c-0.095,0-0.192,0-0.287,0
	C119.645,45.273,119.645,45.177,119.645,45.081z M119.501,44.36c0-0.095,0-0.191,0-0.288c0.095,0,0.192,0,0.288,0
	c0,0.096,0,0.192,0,0.288C119.693,44.36,119.596,44.36,119.501,44.36z M116.331,42.919c0.015-0.276,0.537,0.114,0.719,0.144
	C116.919,43.453,116.546,42.916,116.331,42.919z M116.475,43.351c0.041,0.257-0.56,0.01-0.435-0.289
	C116.36,42.983,116.246,43.338,116.475,43.351z M117.77,44.216c-0.602,0.027-0.443-0.708-1.151-0.577
	C117.012,43.256,117.624,43.877,117.77,44.216z M118.205,43.351c-0.287-0.001-0.185-0.393-0.578-0.289
	C117.72,42.712,118.356,42.987,118.205,43.351z M117.627,42.487c-0.057-0.28,0.656-0.21,0.432,0.144c-0.095,0-0.19,0-0.289,0
	C117.797,42.508,117.714,42.494,117.627,42.487z M118.205,45.657c-0.437-0.091-0.832-0.224-0.866-0.72
	C117.787,45.018,118.224,45.108,118.205,45.657z M118.059,44.216c0.171,0.216,0.6,0.169,0.579,0.577
	C118.271,44.775,118.078,44.583,118.059,44.216z M118.924,42.919C118.574,43.391,118.237,42.519,118.924,42.919L118.924,42.919z
	 M118.637,45.081c0.314-0.027,0.458,0.117,0.431,0.432C118.754,45.54,118.61,45.396,118.637,45.081z M118.637,46.09
	C119.074,45.557,119.122,46.528,118.637,46.09L118.637,46.09z M116.906,44.937c-0.106-0.23-0.705,0.033-0.575-0.433
	C116.706,44.464,117.05,44.455,116.906,44.937z M126.707,50.557c-0.117-0.027-0.144-0.144-0.288-0.143c0-0.097,0-0.193,0-0.289
	C126.726,50.057,126.695,50.331,126.707,50.557z M122.958,53.439c0.021-0.257-0.175-0.302-0.141-0.577
	c0.491,0.247,0.61,0.546,1.295,0.289C124.081,53.601,123.395,53.396,122.958,53.439z M123.825,54.162
	c-0.086,0.014-0.181-0.204-0.145-0.289C123.898,53.364,123.954,54.138,123.825,54.162z M118.637,52.144
	c0.637-0.158,0.714,0.244,1.152,0.289c-0.063,0.271,0.195,0.868-0.288,0.719c-0.025-0.166,0.031-0.256,0.144-0.289
	C119.384,52.547,118.564,52.792,118.637,52.144z M119.212,51.711c0.232-0.042,0.247,0.136,0.433,0.143
	C119.701,52.134,118.988,52.065,119.212,51.711z M118.637,51.279c1.095-0.67,2.562,1.045,3.89,0.288
	c0.004,0.139,0.175,0.112,0.29,0.144c-0.113,0.936-1.925,0.136-2.306,0.433C119.813,51.792,119.354,51.238,118.637,51.279z
	 M119.501,50.703c0.314-0.027,0.458,0.117,0.431,0.431C119.618,51.16,119.474,51.017,119.501,50.703z M120.799,50.557
	c-0.142,0.316-0.723-0.129-0.723-0.432C120.376,50.209,120.543,50.428,120.799,50.557z M120.367,50.125
	c0.02-0.359,0.486-0.042,0.577,0C120.848,50.557,120.636,49.988,120.367,50.125z M122.527,50.125
	c-0.123,0.214-0.464,0.208-0.72,0.289C121.477,50.301,122.255,50.111,122.527,50.125z M122.817,53.585
	c0.188,0.05,0.227,0.252,0.432,0.288c-0.037,0.156-0.287,0.098-0.291,0.289C122.626,54.121,122.629,53.776,122.817,53.585z
	 M117.483,51.133c0.371,0.255,0.678,0.572,1.01,0.867c-0.688,0.334-0.879-0.576-1.587-0.433
	C116.946,51.27,117.546,51.532,117.483,51.133z M116.906,50.703c0.04-0.335,0.386-0.333,0.577-0.146
	C117.439,50.752,117.122,50.678,116.906,50.703z M117.483,54.304c-0.483-0.128-0.152-0.348,0.144-0.431
	c-0.04-0.296-0.384-0.288-0.577-0.434c0.31-0.484,0.662,0.191,1.008,0.146C118.034,53.991,117.375,53.763,117.483,54.304z
	 M117.627,55.314c-0.027,0.417-0.684,0.346-0.577-0.144C117.351,55.108,117.431,55.269,117.627,55.314z M116.331,54.881
	C116.914,54.468,117.268,55.353,116.331,54.881L116.331,54.881z M118.347,56.756c0,0.144,0,0.288,0,0.432
	c-0.44-0.104-0.423,0.25-0.864,0.145c0.007-0.247-0.107-0.374-0.288-0.432C117.316,56.57,118.081,56.506,118.347,56.756z
	 M116.906,58.341c-0.133-0.089-0.531-0.334-0.431,0.144c-0.435-0.095-0.598-0.461-1.01-0.577
	C115.842,57.587,116.978,57.734,116.906,58.341z M120.22,70.159c-0.081-0.208-0.225-0.352-0.431-0.433
	c0.116-0.41,1.042-0.014,1.01-0.577c0.461-0.126,0.194,0.477,0.575,0.433C121.18,69.964,120.567,69.928,120.22,70.159z
	 M121.375,70.735c-0.246-0.054-0.273,0.113-0.288,0.288c-0.622-0.268-0.885,0.104-1.441-0.144c0.07-0.553,1.027-0.222,1.154-0.721
	C121.119,70.222,121.311,70.414,121.375,70.735z M127.282,79.816C126.651,80.343,126.736,79.417,127.282,79.816L127.282,79.816z
	 M126.562,79.238c0.573,0.106,0.581,0.106,1.154,0C127.876,79.698,126.404,79.698,126.562,79.238z M127.717,78.662
	c-0.198-0.163,0.4-0.033,0.72-0.289C128.388,78.943,128.005,79.017,127.717,78.662z M128.293,79.672
	c-0.342-0.041,0.163-0.386,0.143-0.575C128.998,79.263,128.476,79.472,128.293,79.672z M128.725,78.808
	c0.022-0.359,0.488-0.043,0.576,0C129.206,79.238,128.994,78.669,128.725,78.808z M129.013,79.528c0.239-0.665,0.483,0.121,1.01,0
	C129.813,79.954,129.459,79.338,129.013,79.528z M130.167,78.808c-0.005,0.141-0.179,0.111-0.288,0.143
	c0.024-0.121-0.056-0.136-0.144-0.143c0.092-0.146,0.33-0.15,0.288-0.435C130.533,78.391,129.715,78.851,130.167,78.808z
	 M130.311,76.933c0.178,0.064,0.295,0.186,0.287,0.434C130.423,77.303,130.301,77.182,130.311,76.933z M130.167,75.924
	c0.21,0.125,0.456,0.216,0.431,0.577C130.389,76.375,130.142,76.285,130.167,75.924z M130.023,75.779
	c-0.065-0.45,0.308-0.459,0.72-0.431C130.643,75.632,130.357,75.732,130.023,75.779z M130.887,51.711
	C131.548,51.808,130.771,52.583,130.887,51.711L130.887,51.711z M131.319,56.756c-0.11-0.227-0.457-0.216-0.432-0.577
	C131.275,56.188,131.58,56.508,131.319,56.756z M132.041,56.035c-0.098,0-0.193,0-0.291,0c0.166-0.454-0.227-0.351-0.289-0.578
	c0-0.095,0-0.192,0-0.287c0.327,0.106,0.317,0.548,0.723,0.577C132.156,55.863,132.039,55.891,132.041,56.035z M134.347,57.908
	c-0.406,0.187,0.454,0.298,0.288,0.721c-0.081,0.352-0.734,0.131-0.579,0.721c-0.239,0-0.479,0-0.72,0
	c-0.154-0.135-0.044-0.531-0.432-0.433c0.242-0.487-0.317-0.883,0.432-0.866c-0.244-0.138-0.371-0.398-0.288-0.864
	c0.456,0.297,1.15,0.683,1.729,0.433c-0.004-0.141-0.177-0.112-0.287-0.146c0.356-0.216,0.585,0.011,1.152,0
	c0.016,0.61-1.308,0.234-0.576,0.577C134.853,58.529,134.713,57.752,134.347,57.908z M134.057,57.475c0-0.095,0-0.19,0-0.287
	c0.098,0,0.192,0,0.291,0c0,0.097,0,0.192,0,0.287C134.249,57.475,134.154,57.475,134.057,57.475z M134.778,59.638
	c-0.058-0.279,0.657-0.211,0.433,0.143c-0.098,0-0.193,0-0.289,0C134.949,59.66,134.867,59.646,134.778,59.638z M135.355,60.791
	c-0.096,0-0.192,0-0.288,0c0.027-0.123-0.056-0.135-0.145-0.145C134.864,60.367,135.58,60.436,135.355,60.791z M135.643,60.214
	c-0.538-0.321,0.366-0.385,0.143-0.864c0.254,0.035,0.331,0.248,0.291,0.577C135.959,60.05,135.68,60.012,135.643,60.214z
	 M135.499,56.468c0.27,0.162,0.307,0.557,0.578,0.72C135.873,57.449,135.323,57.276,135.499,56.468z M135.211,55.748
	c-0.125,0.251-0.752-0.201-1.008-0.29c-0.585,0.497-1.247,0.934-1.443,1.442c-0.073-0.185-0.154-0.298-0.287-0.721
	c0.419,0.206,0.16,0.11,0.143-0.288c0.467-0.179,0.111,0.467,0.577,0.288c0.1-0.388-0.298-0.279-0.433-0.432
	c-0.129,0.062-0.258,0.125-0.287,0.288c-0.151-0.086,0.156-0.74-0.432-0.721c0.139-0.443,0.383,0.166,0.575,0.143
	c0.079-0.389,0.154-1.166,0.433-1.729c0.192,0.239,0.817,0.049,1.008,0.288c-0.308-0.86,0.222,0.046,0.866-0.144
	c0.213-0.063-0.058-0.186,0-0.434c0.296,0.166,0.687-0.225,0.289-0.288c1.06-0.222-0.166,1.059-0.576,1.153
	c0.104,0.126,0.67,0.164,0.72,0.722c-0.288,0-0.577,0-0.864,0c0.104,0.133,0.26,0.218,0.431,0.288
	c0.564-0.162,0.687-0.432,1.298-0.144C136.126,55.817,134.809,55.269,135.211,55.748z M133.913,50.991
	c-0.181,0.434-0.588-0.322-0.289-0.434c0.027-0.121-0.054-0.135-0.143-0.143c0.063-0.215,0.185,0.057,0.432,0
	C133.939,50.819,133.347,50.775,133.913,50.991z M133.624,51.422c0.684-0.682-0.06,0.797-0.143,0.145
	C133.458,51.396,133.557,51.491,133.624,51.422z M134.057,51.854c0.158-0.592,0.605,0.515,0,0.29
	C134.147,52.015,134.232,51.887,134.057,51.854z M134.203,50.991c0.027-0.117,0.144-0.144,0.144-0.288c0.095,0,0.19,0,0.288,0
	C134.701,51.01,134.428,50.977,134.203,50.991z M134.922,51.567c-0.177-0.064-0.294-0.185-0.287-0.434
	C134.811,51.197,134.93,51.319,134.922,51.567z M135.499,49.261c0.133,0.3,0.037,0.688,0.287,1.153
	C135.318,50.4,135.259,49.542,135.499,49.261z M136.077,54.738C135.392,54.383,136.48,53.996,136.077,54.738L136.077,54.738z
	 M136.221,51.279c-0.319,0.078-0.208-0.277-0.435-0.289c0.025-0.169,0.264-0.123,0.435-0.145
	C136.221,50.991,136.221,51.133,136.221,51.279z M136.221,48.395c-0.346,0.443-0.681-0.103-0.435,0.578
	c-0.664-0.442-0.722,0.688-0.575,1.152c-0.796,0.726-1.596-0.15-1.587-1.152c-0.406-0.025-0.333,0.541-0.719,0.144
	c0.31-0.603,0.502-1.322,1.442-1.296c-0.093-0.316,0.408-0.46-0.144-0.434c0.295-0.378,0.99,0.056,1.008,0.434
	c-0.539-0.015-0.41-0.163-0.864,0c0.167,0.551,0.429,0.638-0.291,0.43c0.034,0.448,0.512,0.451,0.866,0.577
	c0.181-0.239,0.371-0.781,0.721-0.433c0.329-0.103,0.043-0.821,0.578-0.72C136.221,47.916,136.221,48.155,136.221,48.395z
	 M136.077,46.522c0.267-0.138,0.481,0.433,0.577,0c0.319,0.397-0.015,1.038,0,1.297C135.863,47.484,136.292,47.115,136.077,46.522z
	 M137.084,59.205c-0.258-0.018-0.304,0.176-0.575,0.145c0.021-0.167-0.032-0.257-0.146-0.289c0.12-0.362,0.19-0.772,0.722-0.72
	C136.956,58.763,136.956,58.783,137.084,59.205z M136.797,48.25c0.164-0.263,0.97,0.126,1.151-0.432
	c-0.027-0.164-0.144-0.08-0.144,0c-0.148-0.291-0.304-0.479,0-1.009c0.396,0.135,0.615,0.443,1.011,0.577
	c0.114-0.027,0.144-0.145,0.287-0.144c-0.404-0.763-0.858-1.275-0.72-1.873c0.952,0.327,0.735,0.962,1.583,1.298
	c-0.168,0.407-0.891,0.261-0.72,1.008c-0.214,0.216-0.822,0.043-0.72,0.576C137.827,48.065,137.527,48.589,136.797,48.25z
	 M140.11,47.531c0,0.241,0,0.479,0,0.72c-0.336-0.046-0.139-0.627-0.431-0.72C139.743,47.316,139.862,47.587,140.11,47.531z
	 M137.661,55.603c-0.096,0-0.19,0-0.288,0c0-0.096,0-0.193,0-0.288c0.098,0,0.192,0,0.288,0
	C137.661,55.41,137.661,55.506,137.661,55.603z M138.527,50.846c-0.171-0.022-0.122-0.262-0.144-0.432
	c0.244-0.054,0.271,0.112,0.286,0.289C138.546,50.675,138.535,50.757,138.527,50.846z M138.959,49.692c-0.096,0-0.194,0-0.291,0
	c0-0.095,0-0.192,0-0.289c0.097,0,0.195,0,0.291,0C138.959,49.5,138.959,49.597,138.959,49.692z M139.535,59.061
	C139.972,58.848,138.498,59.569,139.535,59.061L139.535,59.061z M139.535,49.404c-0.552,0.027-0.054-0.117-0.145-0.431
	c-0.579,0.017-0.966,0.767-1.442,0.431c0.581-0.26,1.237-0.458,1.154-1.009c0.336,0,0.671,0,1.008,0
	C140.262,49.073,139.398,48.739,139.535,49.404z"/>
<g>
	<path fill="#75797B" d="M13.947,132.249h5.131c3.026,0,4.976,1.557,4.976,4.207v0.034c0,2.823-2.172,4.31-5.146,4.31h-1.643v3.422
		h-3.317V132.249z M18.839,138.2c1.178,0,1.897-0.615,1.897-1.557v-0.033c0-1.025-0.719-1.572-1.915-1.572h-1.557v3.162H18.839z"/>
	<path fill="#75797B" d="M25.289,132.249h9.627v2.824H28.57v1.81h5.746v2.618H28.57v1.896h6.431v2.824h-9.713V132.249z"/>
	<path fill="#75797B" d="M36.867,132.249h3.096l4.924,6.327v-6.327h3.285v11.973h-2.909l-5.112-6.567v6.567h-3.284V132.249z"/>
	<path fill="#75797B" d="M50.122,132.249h3.096l4.924,6.327v-6.327h3.285v11.973h-2.909l-5.112-6.567v6.567h-3.284V132.249z"/>
	<path fill="#75797B" d="M66.49,139.741l-4.548-7.492h3.779l2.462,4.361l2.48-4.361h3.711l-4.549,7.44v4.532H66.49V139.741z"/>
	<path fill="#75797B" d="M81.167,132.249h6.14c1.504,0,2.564,0.375,3.265,1.079c0.479,0.478,0.771,1.11,0.771,1.932v0.034
		c0,1.384-0.788,2.207-1.847,2.668c1.453,0.478,2.376,1.299,2.376,2.924v0.033c0,2.053-1.676,3.303-4.532,3.303h-6.174V132.249z
		 M86.485,137.02c1.009,0,1.572-0.342,1.572-1.042v-0.033c0-0.65-0.512-1.027-1.504-1.027h-2.155v2.103H86.485z M86.964,141.554
		c1.008,0,1.589-0.395,1.589-1.096v-0.034c0-0.649-0.513-1.077-1.624-1.077h-2.53v2.207H86.964z"/>
	<path fill="#75797B" d="M93.568,132.249h3.317v9.063h5.798v2.909h-9.115V132.249z"/>
	<path fill="#75797B" d="M108.413,132.164h3.199l5.094,12.058h-3.557l-0.871-2.139h-4.617l-0.854,2.139h-3.49L108.413,132.164z
		 M111.322,139.501l-1.335-3.403l-1.352,3.403H111.322z"/>
	<path fill="#75797B" d="M116.521,138.27v-0.034c0-3.49,2.684-6.225,6.31-6.225c2.446,0,4.02,1.027,5.078,2.495l-2.496,1.933
		c-0.684-0.854-1.471-1.4-2.616-1.4c-1.677,0-2.856,1.418-2.856,3.162v0.035c0,1.796,1.179,3.197,2.856,3.197
		c1.247,0,1.983-0.582,2.701-1.453l2.497,1.779c-1.127,1.555-2.65,2.701-5.301,2.701C119.274,144.46,116.521,141.844,116.521,138.27
		z"/>
	<path fill="#75797B" d="M129.248,132.249h3.316v4.856l4.121-4.856h3.934l-4.532,5.149l4.686,6.823h-3.985l-3.009-4.447l-1.214,1.35
		v3.098h-3.316V132.249z"/>
	<path fill="#75797B" d="M157.922,144.362c-0.035,0,0-0.107,0.019-0.107c1.416-0.141,1.576-0.16,1.522-2.955l-0.106-6.758
		l-0.054-0.016l-4.212,9.872c0,0.02-0.071,0.02-0.091-0.017l-4.299-9.355l-0.054,0.02l-0.107,6.254
		c-0.037,2.472-0.037,2.814,1.685,2.955c0.016,0,0.016,0.107-0.018,0.107c-0.54-0.071-1.184-0.141-1.757-0.141
		c-0.895,0-1.271,0.033-2.025,0.141c-0.037,0,0-0.107,0.017-0.107c1.65-0.178,1.721-0.356,1.777-2.955l0.124-6.291
		c0.017-1.308-0.61-1.935-2.042-2.078c-0.019,0-0.037-0.091,0-0.091c0.878,0.127,1.415,0.144,2.867,0.144l4.39,9.642l2.724-6.47
		c0.483-1.199,0.969-2.293,1.201-3.242c1.147,0.125,2.169,0.054,3.012-0.073c0.037,0.019,0.017,0.091,0,0.091
		c-1.918,0.16-1.898,0.251-1.845,2.974l0.106,5.396c0.054,2.724,0,2.795,1.936,2.955c0.016,0,0.034,0.107,0,0.107
		c-0.557-0.071-1.596-0.141-2.331-0.141C159.336,144.222,158.676,144.255,157.922,144.362z"/>
	<path fill="#75797B" d="M175.806,144.327c-0.645,0-1.757-0.105-3.045-0.105c-1.756,0-3.568,0.053-4.839,0.141
		c-0.037,0,0-0.107,0.017-0.107c1.848-0.178,1.901-0.107,1.901-2.955v-5.375c0-2.868-0.053-2.779-1.918-2.994
		c-0.017,0-0.037-0.072,0-0.072c1.271,0.091,2.993,0.125,4.766,0.125c1.254,0,2.42-0.053,3.353-0.125
		c-0.054,0.252-0.09,0.574-0.09,0.914c0,0.18,0.017,0.539,0.037,0.681c0,0.02-0.11,0-0.11-0.017c-0.142-0.826-0.5-1.131-2.885-1.131
		h-1.774c-0.071,0.521-0.107,1.363-0.107,2.528v2.419h1.918c1.775,0,1.882-0.307,2.006-0.843c0.037-0.017,0.108-0.017,0.108,0
		c-0.071,0.269-0.142,0.843-0.142,1.254c0,0.198,0.017,0.573,0.034,0.718c0,0.018-0.087,0-0.087-0.018
		c-0.107-0.592-0.181-0.877-1.919-0.877h-1.918v2.954c0,2.223,0.342,2.457,1.2,2.457h0.916c2.76,0,2.939-0.287,3.189-1.489
		c0.034,0,0.09-0.016,0.107,0c-0.073,0.45-0.234,1.255-0.342,1.631C176.111,144.291,176.041,144.327,175.806,144.327z"/>
	<path fill="#75797B" d="M185.357,144.222c-1.022,0-2.096,0.053-2.833,0.141c-0.034,0,0-0.088,0.02-0.107
		c1.647-0.141,1.737-0.124,1.737-2.955v-5.375c0-2.834-0.108-2.814-1.757-2.994c-0.017,0-0.034-0.072,0-0.072
		c0.737,0.091,1.972,0.125,2.994,0.125c0.429,0,2.06-0.07,2.687-0.07c4.087,0,6.146,2.418,6.146,5.52
		c0,3.189-2.562,5.875-6.379,5.875C187.363,144.308,185.787,144.222,185.357,144.222z M185.733,133.272
		c-0.108,0.606-0.179,1.27-0.179,2.632v6.04c0,1.844,0.232,2.062,2.901,2.062c2.583,0,4.588-1.827,4.588-4.999
		c0-3.838-2.078-5.809-5.375-5.809C186.611,133.198,186.128,133.218,185.733,133.272z"/>
	<path fill="#75797B" d="M200.157,144.362c-0.037,0,0-0.088,0.017-0.107c1.65-0.16,1.741-0.124,1.741-2.955v-5.375
		c0-2.834-0.108-2.814-1.758-2.994c-0.017,0-0.037-0.072,0-0.072c0.735,0.091,1.56,0.125,2.582,0.125
		c0.735,0,1.631-0.053,2.167-0.125c0.037,0,0.02,0.072,0,0.072c-1.701,0.144-1.72,0.268-1.72,2.994v5.375
		c0,2.724,0,2.831,1.703,2.955c0.017,0.02,0.054,0.107,0.017,0.107c-0.537-0.071-1.433-0.141-2.167-0.141
		C201.716,144.222,200.892,144.274,200.157,144.362z"/>
	<path fill="#75797B" d="M219.869,144.222c-1.023,0-1.955,0.053-2.689,0.141c-0.037,0,0-0.088,0.019-0.107
		c0.914-0.088,1.325-0.141,1.325-0.68c0-0.538-0.359-1.396-0.681-2.295l-0.556-1.523h-4.103l-0.646,1.523
		c-0.446,1.076-0.771,1.793-0.771,2.295c0,0.448,0.342,0.609,1.221,0.68c0.016,0.02,0.053,0.107,0.016,0.107
		c-0.537-0.071-0.949-0.141-1.684-0.141c-1.021,0-1.058,0.053-1.793,0.141c-0.034,0,0-0.088,0.02-0.107
		c1.217-0.088,1.666-0.859,2.579-2.938l3.782-8.656c0.017-0.037,0.088-0.037,0.107,0l3.226,8.656c0.825,2.24,1.127,2.83,2.633,2.938
		c0.019,0.02,0.037,0.107,0,0.107C221.338,144.291,220.604,144.222,219.869,144.222z M213.292,139.526h3.907l-1.756-5.021
		L213.292,139.526z"/>
</g>
</svg>
