<?xml version="1.0" encoding="utf-8"?>
<!-- Generator: Adobe Illustrator 16.0.4, SVG Export Plug-In . SVG Version: 6.00 Build 0)  -->
<!DOCTYPE svg PUBLIC "-//W3C//DTD SVG 1.1//EN" "http://www.w3.org/Graphics/SVG/1.1/DTD/svg11.dtd">
<svg version="1.1" id="Isolation_Mode" xmlns="http://www.w3.org/2000/svg" xmlns:xlink="http://www.w3.org/1999/xlink" x="0px"
	 y="0px" width="219px" height="89px" viewBox="0 0 219 89" enable-background="new 0 0 219 89" xml:space="preserve">
<g>
	<path fill="#808080" d="M15.302,61.496c2.43,2.978,5.095,4.938,9.406,4.938c3.842,0,8.074-1.648,8.074-5.642
		c0-3.924-3.921-4.942-7.838-5.806c-6.976-1.562-12.936-3.055-12.936-10.658c0-7.123,6.899-10.817,13.72-10.817
		c5.173,0,9.951,1.966,12.464,6.665l-5.099,3.373c-1.566-2.586-4.15-4.39-7.759-4.39c-3.367,0-7.212,1.643-7.212,5.079
		c0,3.068,4.391,4.4,9.254,5.346c6.498,1.252,11.984,3.606,11.984,10.963c0,8.316-7.363,11.527-14.653,11.527
		c-6.187,0-10.662-1.645-14.266-6.822L15.302,61.496z"/>
	<path fill="#808080" d="M41.716,34.455h6.112v5.336h0.155c3.366-3.929,7.839-6.279,13.166-6.279
		c11.525,0,19.284,8.158,19.284,19.288c0,10.965-8.072,19.274-18.346,19.274c-6.579,0-11.83-3.299-14.103-7.444h-0.155V89h-6.112
		L41.716,34.455L41.716,34.455z M60.831,66.433c7.916,0,13.015-5.951,13.015-13.633c0-7.688-5.099-13.641-13.015-13.641
		c-7.912,0-13.003,5.952-13.003,13.641C47.828,60.481,52.919,66.433,60.831,66.433"/>
	<path fill="#808080" d="M83.559,39.16c3.766-3.841,9.247-5.648,14.577-5.648c10.816,0,15.358,5.169,15.358,15.518v15.753
		c0,2.116,0.242,4.472,0.555,6.347h-5.885c-0.384-1.646-0.384-3.914-0.384-5.481h-0.161c-2.424,3.756-6.502,6.428-12.061,6.428
		c-7.449,0-13.635-3.771-13.635-10.894c0-12.151,14.103-12.854,23.118-12.854h2.343v-1.097c0-5.331-3.359-8.071-9.09-8.071
		c-3.915,0-7.998,1.33-10.889,4L83.559,39.16z M101.272,53.493c-7.758,0-12.771,2.118-12.771,7.055c0,4.625,3.444,6.353,8.075,6.353
		c7.049,0,10.649-5.101,10.807-11.05v-2.356L101.272,53.493L101.272,53.493z"/>
	<path fill="#808080" d="M121.962,39.627h-7.991v-5.171h7.991v-8.232c0-8.935,3.14-15.276,13.013-15.276
		c1.574,0,3.523,0.311,4.7,0.939l-0.864,5.482c-1.328-0.47-2.746-0.785-4.152-0.785c-6.344,0-6.578,4.623-6.578,10.976v6.895h8.93
		v5.171h-8.93V71.13h-6.117L121.962,39.627L121.962,39.627z"/>
	<path fill="#808080" d="M139.123,39.16c3.761-3.841,9.25-5.648,14.574-5.648c10.82,0,15.359,5.169,15.359,15.518v15.753
		c0,2.116,0.241,4.472,0.551,6.347h-5.873c-0.391-1.646-0.391-3.914-0.391-5.481h-0.156c-2.436,3.756-6.504,6.428-12.068,6.428
		c-7.444,0-13.645-3.771-13.645-10.894c0-12.151,14.114-12.854,23.119-12.854h2.358v-1.097c0-5.331-3.379-8.071-9.095-8.071
		c-3.912,0-7.996,1.33-10.892,4L139.123,39.16z M156.838,53.493c-7.756,0-12.768,2.12-12.768,7.055c0,4.625,3.437,6.353,8.068,6.353
		c7.055,0,10.658-5.097,10.813-11.05v-2.356L156.838,53.493L156.838,53.493z"/>
	<polygon fill="#808080" points="185.83,51.384 172.668,34.455 180.661,34.455 190.372,47.62 199.545,34.455 206.992,34.455 
		194.376,51.384 209.504,71.13 201.426,71.13 189.835,55.3 178.393,71.13 170.789,71.13 	"/>
</g>
</svg>
