<?xml version="1.0" encoding="utf-8"?>
<!-- Generator: Adobe Illustrator 16.0.4, SVG Export Plug-In . SVG Version: 6.00 Build 0)  -->
<!DOCTYPE svg PUBLIC "-//W3C//DTD SVG 1.1//EN" "http://www.w3.org/Graphics/SVG/1.1/DTD/svg11.dtd">
<svg version="1.1" id="Layer_1" xmlns="http://www.w3.org/2000/svg" xmlns:xlink="http://www.w3.org/1999/xlink" x="0px" y="0px"
	 width="239.988px" height="53.105px" viewBox="0 0 239.988 53.105" enable-background="new 0 0 239.988 53.105"
	 xml:space="preserve">
<g>
	<path fill="#808080" d="M4.381,28.744c0,0,3.136,3.608,7.391,3.608c2.32,0,4.382-1.249,4.382-3.608
		c0-5.202-14.351-4.771-14.351-14.268c0-4.943,4.294-8.595,10.182-8.595c3.567,0,9.067,1.675,9.067,6.016v2.839h-5.07v-1.375
		c0-1.419-2.018-2.365-4.04-2.365c-2.578,0-4.469,1.33-4.469,3.265c0,5.2,14.354,4.166,14.354,14.18c0,4.851-3.739,8.98-10.144,8.98
		C4.94,37.422,1.2,32.697,1.2,32.697L4.381,28.744z"/>
	<path fill="#808080" d="M25.475,20.577c0-0.644-0.345-0.947-0.947-0.947h-1.717v-4.638h4.855c2.019,0,2.751,0.899,2.751,2.104
		c0,0.517,0,0.861,0,0.861h0.084c0,0,1.848-3.481,6.962-3.481c5.93,0,9.752,4.683,9.752,11.473c0,6.959-4.296,11.473-10.054,11.473
		c-4.338,0-6.272-2.879-6.272-2.879h-0.087c0,0,0.087,0.772,0.087,1.891v12.672h-5.414V20.577z M36.174,32.826
		c3.008,0,5.542-2.453,5.542-6.791c0-4.167-2.234-6.876-5.456-6.876c-2.833,0-5.501,2.063-5.501,6.919
		C30.759,29.469,32.566,32.826,36.174,32.826z"/>
	<path fill="#808080" d="M61.092,23.154h0.688v-0.173c0-3.131-1.248-4.294-4.039-4.294c-0.987,0-2.922,0.256-2.922,1.461v1.16
		h-5.067v-2.32c0-4.08,5.755-4.512,8.034-4.512c7.304,0,9.453,3.823,9.453,8.723v8.161c0,0.604,0.343,0.946,0.943,0.946h1.719v4.598
		h-4.899c-2.018,0-2.792-1.114-2.792-2.407c0-0.557,0.043-0.944,0.043-0.944h-0.087c0,0-1.673,3.869-6.618,3.869
		c-3.91,0-7.474-2.449-7.474-6.834C48.074,23.715,57.528,23.154,61.092,23.154z M56.881,33.165c2.922,0,4.984-3.092,4.984-5.755
		v-0.516h-0.944c-2.837,0-7.348,0.384-7.348,3.437C53.573,31.79,54.647,33.165,56.881,33.165z"/>
	<path fill="#808080" d="M72.564,20.577c0-0.644-0.345-0.947-0.948-0.947h-1.719v-4.638h4.987c1.931,0,2.922,0.816,2.922,2.662
		v1.289c0,0.819-0.087,1.376-0.087,1.376h0.087c0.987-3.139,3.608-5.628,6.958-5.628c0.475,0,0.99,0.084,0.99,0.084v5.373
		c0,0-0.561-0.085-1.332-0.085c-2.322,0-4.984,1.331-5.974,4.598c-0.302,1.074-0.473,2.275-0.473,3.565v8.679h-5.412V20.577z"/>
	<path fill="#808080" d="M87.943,11.983c0-0.642-0.342-0.946-0.945-0.946h-1.717V6.396h5.198c2.019,0,2.922,0.473,2.922,2.495
		v13.835h1.632c0.688,0,1.589-0.129,2.061-0.816l4.47-6.918h6.057l-5.541,8.25c-0.946,1.372-1.632,1.718-1.632,1.718v0.085
		c0,0,0.773,0.301,1.546,1.721l2.49,4.728c0.347,0.643,0.775,0.813,1.806,0.813h1.462v4.598h-4.039c-1.85,0-2.58-0.3-3.44-1.888
		l-3.65-6.877c-0.43-0.772-1.332-0.817-2.02-0.817h-1.202v9.582h-5.458V11.983z"/>
	<path fill="#808080" d="M110.575,29.943c0,0,2.791,3.222,6.531,3.222c1.673,0,2.963-0.687,2.963-2.146
		c0-3.095-11.56-3.053-11.56-10.139c0-4.386,3.956-6.404,8.509-6.404c2.964,0,7.69,0.987,7.69,4.556v2.276h-4.812v-1.073
		c0-1.032-1.546-1.548-2.749-1.548c-1.934,0-3.266,0.69-3.266,1.975c0,3.44,11.645,2.754,11.645,10.056
		c0,4.124-3.652,6.704-8.421,6.704c-6.016,0-9.108-3.913-9.108-3.913L110.575,29.943z"/>
	<path fill="#808080" d="M127.611,11.983c0-0.642-0.342-0.946-0.945-0.946h-1.719V6.396h5.201c2.02,0,2.92,0.907,2.92,2.88v7.69
		c0,1.076-0.086,1.847-0.086,1.847h0.086c1.033-2.102,3.738-4.337,7.52-4.337c4.896,0,7.65,2.536,7.65,8.333v8.55
		c0,0.604,0.342,0.946,0.943,0.946h1.719v4.598h-5.199c-2.02,0-2.879-0.859-2.879-2.924V23.927c0-2.666-0.729-4.466-3.482-4.466
		c-2.877,0-5.109,1.888-5.926,4.554c-0.26,0.859-0.346,1.804-0.346,2.836v10.053h-5.457V11.983z"/>
	<path fill="#808080" d="M162.5,14.476c6.273,0,9.709,4.599,9.709,10.398c0,0.645-0.129,2.02-0.129,2.02h-15.125
		c0.434,3.867,3.264,5.886,6.578,5.886c3.52,0,6.141-2.449,6.141-2.449l2.275,3.78c0,0-3.35,3.311-8.809,3.311
		c-7.26,0-11.77-5.244-11.77-11.473C151.371,19.203,155.924,14.476,162.5,14.476z M166.621,23.112
		c-0.084-2.621-1.891-4.425-4.121-4.425c-2.793,0-4.77,1.676-5.371,4.425H166.621z"/>
	<path fill="#808080" d="M184.711,14.476c6.273,0,9.709,4.599,9.709,10.398c0,0.645-0.129,2.02-0.129,2.02h-15.125
		c0.432,3.867,3.268,5.886,6.576,5.886c3.523,0,6.141-2.449,6.141-2.449l2.277,3.78c0,0-3.35,3.311-8.807,3.311
		c-7.262,0-11.771-5.244-11.771-11.473C173.582,19.203,178.135,14.476,184.711,14.476z M188.832,23.112
		c-0.082-2.621-1.887-4.425-4.121-4.425c-2.793,0-4.771,1.676-5.373,4.425H188.832z"/>
	<path fill="#808080" d="M198.074,19.331h-2.84v-4.339h2.963V9.019h5.332v5.973h4.986v4.339h-4.986v8.848
		c0,3.61,2.834,4.127,4.336,4.127c0.602,0,0.986-0.085,0.986-0.085v4.771c0,0-0.686,0.131-1.672,0.131
		c-3.051,0-9.105-0.908-9.105-8.254V19.331z"/>
	<text transform="matrix(1 0 0 1 34.697 48.8123)" fill="#808080" font-family="'AvenirLTStd-Roman'" font-size="9.2791">Good ideas about content, media and marketing</text>
	<g>
		<path fill="#808080" d="M216.386,36.596h21.742V15.645l-6.406-6.296h-15.428v27.25h0.092V36.596z M216.48,9.531h15.162
			l6.301,6.188v20.365l-21.463,0.329V9.531z"/>
		<path fill="#808080" d="M231.996,8.69h-16.361v28.567h0.752h22.4V15.371L231.996,8.69z M216.295,9.349h15.428l6.406,6.296v20.952
			h-21.742v0.002h-0.092V9.349z"/>
		<path fill="#808080" d="M237.943,36.085V15.72l-6.301-6.188H216.48v26.882L237.943,36.085z M231.369,10.191l5.914,5.803v19.759
			H217.14V10.191H231.369z"/>
	</g>
	<g>
		<g>
			<path fill="#808080" d="M231.67,16.105c-0.111,0-0.215-0.045-0.297-0.126l0,0c-0.08-0.077-0.123-0.182-0.123-0.294l0,0V9.441
				c0-0.171,0.1-0.325,0.258-0.386l0,0c0.158-0.068,0.344-0.031,0.459,0.089l0,0l6.357,6.243c0.115,0.119,0.152,0.3,0.088,0.458l0,0
				c-0.066,0.16-0.221,0.261-0.389,0.261l0,0H231.67L231.67,16.105z M232.09,15.264h4.916l-4.916-4.806V15.264L232.09,15.264z"/>
			<path fill="#808080" d="M231.142,16.215c-0.145-0.139-0.223-0.333-0.223-0.531l0,0V9.441c0-0.3,0.178-0.58,0.457-0.69l0,0
				c0.094-0.041,0.193-0.061,0.295-0.061l0,0c0.195,0,0.389,0.077,0.527,0.219l0,0l6.359,6.247c0.141,0.143,0.215,0.333,0.215,0.528
				l0,0c0,0.096-0.02,0.194-0.057,0.285l0,0c-0.117,0.288-0.395,0.466-0.693,0.466l0,0h-6.354v-0.33v-0.332l6.354,0.001
				c0.035,0,0.07-0.023,0.082-0.054l0,0c0.004-0.014,0.008-0.026,0.008-0.037l0,0c0-0.025-0.012-0.05-0.021-0.062l0,0l-6.361-6.247
				c-0.014-0.015-0.035-0.025-0.059-0.025l0,0c-0.012,0-0.023,0.002-0.045,0.011l0,0c-0.025,0.01-0.047,0.038-0.047,0.08l0,0v6.244
				c0,0.026,0.008,0.044,0.023,0.06l0,0c0.027,0.025,0.043,0.028,0.066,0.03l0,0v0.331v0.33c0,0-0.002,0-0.004,0l0,0
				C231.467,16.434,231.277,16.35,231.142,16.215L231.142,16.215z M232.09,15.594h-0.33V9.675l6.057,5.918H232.09L232.09,15.594z
				 M236.197,14.933l-3.775-3.691v3.691H236.197L236.197,14.933z"/>
		</g>
	</g>
	<g>
		<path fill="#808080" d="M215.635,16.116V2.77c0-0.416,0.338-0.754,0.752-0.754l0,0c0.418,0,0.754,0.339,0.754,0.754l0,0v13.346
			c0,0.416-0.336,0.753-0.754,0.753l0,0C215.972,16.869,215.635,16.532,215.635,16.116L215.635,16.116z"/>
		<path fill="#808080" d="M209.715,10.197c-0.416,0-0.754-0.338-0.754-0.753l0,0c0-0.417,0.338-0.754,0.754-0.754l0,0h13.346
			c0.418,0,0.752,0.337,0.752,0.754l0,0c0,0.416-0.334,0.753-0.752,0.753l0,0H209.715L209.715,10.197z"/>
		<path fill="#808080" d="M212.927,16.014c-0.369-0.194-0.512-0.65-0.318-1.018l0,0l6.223-11.808
			c0.193-0.368,0.648-0.51,1.018-0.316l0,0c0.369,0.193,0.51,0.65,0.314,1.018l0,0l-6.221,11.808
			c-0.135,0.256-0.396,0.403-0.666,0.403l0,0C213.158,16.101,213.039,16.073,212.927,16.014L212.927,16.014z"/>
		<path fill="#808080" d="M210.103,13.402c-0.221-0.352-0.113-0.817,0.236-1.039l0,0l11.291-7.116
			c0.352-0.222,0.818-0.116,1.041,0.235l0,0c0.221,0.353,0.115,0.818-0.236,1.04l0,0l-11.291,7.115
			c-0.125,0.079-0.264,0.117-0.4,0.117l0,0C210.494,13.755,210.248,13.63,210.103,13.402L210.103,13.402z"/>
		<path fill="#808080" d="M221.941,13.22l-11.809-6.222c-0.369-0.194-0.51-0.65-0.314-1.018l0,0
			c0.193-0.368,0.648-0.509,1.018-0.315l0,0l11.807,6.222c0.367,0.194,0.51,0.648,0.316,1.017l0,0
			c-0.137,0.257-0.398,0.402-0.668,0.402l0,0C222.172,13.306,222.052,13.28,221.941,13.22L221.941,13.22z"/>
		<path fill="#808080" d="M219.308,15.491l-7.117-11.292c-0.221-0.352-0.115-0.817,0.238-1.039l0,0
			c0.352-0.222,0.816-0.117,1.037,0.236l0,0l7.115,11.292c0.223,0.352,0.117,0.817-0.234,1.039l0,0
			c-0.125,0.079-0.266,0.116-0.402,0.116l0,0C219.695,15.842,219.451,15.718,219.308,15.491L219.308,15.491z"/>
	</g>
</g>
</svg>
