<?xml version="1.0" encoding="utf-8"?>
<!-- Generator: Adobe Illustrator 16.0.4, SVG Export Plug-In . SVG Version: 6.00 Build 0)  -->
<!DOCTYPE svg PUBLIC "-//W3C//DTD SVG 1.1//EN" "http://www.w3.org/Graphics/SVG/1.1/DTD/svg11.dtd">
<svg version="1.1" id="Layer_1" xmlns="http://www.w3.org/2000/svg" xmlns:xlink="http://www.w3.org/1999/xlink" x="0px" y="0px"
	 width="302.5px" height="48px" viewBox="0 0 302.5 48" enable-background="new 0 0 302.5 48" xml:space="preserve">
<path fill="#808080" d="M11.683,20.978c0,0,6.213-4.768,19.492,0.229c9.688,3.961,13.824,0.963,14.291,0.475
	c0,0-1.668-1.225-2.835-2.699c-5.928-2.527-10.531-6.343-11.456-7.324c0,0-1.426,1.344-4.655,2.705c0,0,1.036,1.616,5.414,2.956
	c0,0,0.232,0.343,0.871,1.017c0.055,0.059-4.833-1.359-8.771-4.211c0,0-3.071,2.375-11.605,5.482
	C12.428,19.605,11.854,20.202,11.683,20.978"/>
<path fill="#808080" d="M53.28,18.835c-0.173-0.272-0.321-0.459-0.321-0.459c-0.886,1.168-1.48,1.884-2.658,2.748
	c-0.886,0.648-1.838,1.151-2.845,1.584c-0.791,0.334-1.585,0.674-2.409,0.92c-1.389,0.418-2.888,0.685-4.337,0.801
	c-1.061,0.087-2.132,0.013-3.188-0.131c-1.107-0.153-2.188-0.42-3.269-0.7c-1.344-0.347-2.688-0.695-4.047-0.979
	c-1.912-0.404-3.85-0.666-5.791-0.906c-0.266-0.031-0.534-0.065-0.803-0.094C9.883,20.239,2.991,30.766,2.991,30.766
	c9.067-3.708,12.494-1.536,12.494-1.536c-2.313,2.825-1.496,5.98-1.496,5.98c6.735-6.521,15.873-5.808,15.873-5.808
	c-6.262,2.302-6.012,5.753-6.012,5.753c0.831-0.725,1.259-0.501,1.259-0.501c0.361,3.12,2.069,4.478,2.069,4.478
	c0.917-1.728,2.45-2.387,2.45-2.387c0.403,0.928,0.98,1.023,0.98,1.023c0.542-3.971,6.95-6.577,8.979-7.258
	c0.802-0.27,1.616-0.518,2.438-0.73c0.68-0.183,1.368-0.336,2.059-0.47c0.544-0.106,1.095-0.194,1.649-0.271
	c0.397-0.056,0.802-0.088,1.205-0.117c0.42-0.032,1.052-0.016,1.47-0.026c0.184-0.006,0.188,0.013,0.199-0.196
	c0.008-0.158-0.144-0.255-0.271-0.312c-0.157-0.075-0.317-0.143-0.474-0.225c-0.322-0.175-0.633-0.369-0.923-0.594
	c-0.236-0.186-0.459-0.384-0.667-0.594c-0.326-0.346-0.544-0.837-0.372-1.311c0.179-0.494,0.619-0.812,1.054-1.062
	c0.528-0.312,1.092-0.544,1.653-0.785c0.88-0.383,1.763-0.765,2.615-1.213c0.237-0.124,0.476-0.256,0.707-0.393
	c0.534-0.308,1.055-0.67,1.527-1.068C54.154,20.542,53.656,19.454,53.28,18.835"/>
<g>
	<path fill="#808080" d="M68.504,30.644v6.173c0,1.835,0.854,2.759,2.532,2.759c1.678,0,2.531-0.924,2.531-2.759v-6.173h1.65v6.33
		c0,2.744-1.379,4.109-4.181,4.109c-2.802,0-4.167-1.365-4.167-4.109v-6.33H68.504z"/>
	<path fill="#808080" d="M88.737,30.245l6.457,6.215c0.413,0.398,0.768,0.812,1.109,1.237v-7.055h1.522V41.21l-6.585-6.328
		c-0.37-0.356-0.697-0.74-0.981-1.139v7.068h-1.522V30.245z"/>
	<path fill="#808080" d="M111.429,30.644h1.65v10.17h-1.65V30.644z"/>
	<path fill="#808080" d="M125.387,30.644h1.721l2.275,5.42c0.242,0.568,0.427,1.094,0.541,1.635
		c0.128-0.525,0.313-1.066,0.555-1.635l2.276-5.42h1.707l-4.537,10.566L125.387,30.644z"/>
	<path fill="#808080" d="M146.728,30.644h5.675v1.408h-4.026v2.547h4.026v1.449h-4.026v3.285h4.026v1.479h-5.675V30.644
		L146.728,30.644z"/>
	<path fill="#808080" d="M167.086,40.813h-1.549v-10.17h2.304c1.095,0,1.905,0.086,2.53,0.568c0.612,0.483,0.981,1.281,0.981,2.233
		c0,1.636-0.796,2.56-2.333,2.744l3.499,4.623h-1.862l-3.385-4.552h-0.186V40.813z M167.484,34.982c1.451,0,2.176-0.172,2.176-1.396
		c0-1.25-0.696-1.521-2.176-1.521h-0.299v2.916H167.484z"/>
	<path fill="#808080" d="M185.483,38.167c0.242,0.91,0.925,1.395,1.962,1.395c0.996,0,1.607-0.598,1.607-1.508
		c0-0.995-0.754-1.237-1.807-1.749c-1.807-0.882-2.801-1.563-2.801-3.101c0-1.637,1.209-2.787,3.057-2.787
		c1.508,0,2.546,0.61,2.931,1.678l-1.294,0.669c-0.398-0.627-0.868-0.925-1.507-0.925c-0.896,0-1.451,0.512-1.451,1.279
		c0,0.981,0.796,1.279,1.935,1.807c1.791,0.824,2.631,1.551,2.631,3.016c0,1.891-1.267,3.143-3.371,3.143
		c-1.734,0-2.873-0.823-3.215-2.304L185.483,38.167z"/>
	<path fill="#808080" d="M203.838,30.644h1.648v10.17h-1.648V30.644z"/>
	<path fill="#808080" d="M222.388,40.813h-1.649v-8.762h-2.703v-1.408h7.041v1.408h-2.688L222.388,40.813L222.388,40.813z"/>
	<path fill="#808080" d="M239.789,36.161l-3.428-5.519h1.734l2.135,3.457c0.041,0.069,0.199,0.341,0.426,0.812
		c0.129-0.328,0.271-0.611,0.428-0.854l2.189-3.414h1.65l-3.5,5.519v4.651h-1.637v-4.651H239.789z"/>
</g>
<g>
	<path fill="#808080" d="M75.476,10.056c-0.161,0.021-0.281,0.061-0.462,0.201c-0.221,0.181-0.583,0.884-1.205,2.129
		c-0.562,1.125-2.792,5.986-3.797,8.458c-0.1,0.241-0.201,0.44-0.361,0.702c-0.161,0.281-0.321,0.662-0.522,0.984
		c-0.04,0.08-0.121,0.141-0.281,0.141c-0.301,0-0.482-0.061-0.522-0.182c-0.081-0.101-0.241-0.441-0.764-1.768
		c-1.808-4.54-3.254-7.653-3.857-8.939c-0.743-1.627-0.844-1.728-1.969-1.928l0.221-0.503c0.04-0.121,0.1-0.121,0.181-0.121
		c0.843,0.081,2.149,0.103,2.611,0.103c0.643,0,1.306-0.041,1.969-0.041c0.081,0,0.141,0.041,0.101,0.383
		c-0.041,0.261-0.06,0.32-0.181,0.341c-0.804,0.101-0.904,0.221-0.743,0.782c0.14,0.464,0.381,1.086,1.305,3.274
		c0.844,2.029,1.627,3.798,2.27,5.183c0.061,0.121,0.201,0.08,0.282-0.039c0.421-0.805,1.366-2.973,2.451-5.563
		c0.462-1.104,0.824-2.09,1.266-3.336c0.081-0.181-0.161-0.261-0.603-0.28l-0.783-0.039c-0.081,0-0.141-0.08-0.101-0.142
		c0.181-0.503,0.221-0.583,0.382-0.583c0.462,0,1.426,0.061,1.969,0.061c0.462,0,1.064-0.061,1.506-0.061
		c0.342,0,0.362,0.241,0.382,0.604c0,0.121-0.02,0.16-0.161,0.141L75.476,10.056z"/>
	<path fill="#808080" d="M83.447,9.292c0.603,1.828,1.025,2.912,1.728,4.78c0.663,1.788,2.109,5.224,2.41,5.906
		c0.502,1.045,0.784,1.526,1.949,1.769c0.021-0.041-0.1,0.604-0.241,0.643c-1.948-0.02-2.33-0.039-3.013-0.039
		c-0.643,0-1.406,0.061-1.607,0.061c-0.08,0-0.121-0.021-0.141-0.08c-0.041-0.102-0.201-0.504-0.161-0.543
		c0.884-0.24,1.005-0.36,0.944-0.903c-0.04-0.442-0.743-2.25-0.904-2.593c-0.121-0.301-0.281-0.441-0.401-0.441
		c-0.944,0-2.974,0-3.978,0.061c-0.322,0.021-0.422,0.161-0.563,0.502c-0.201,0.504-0.743,1.789-0.743,2.371
		c0,0.482,0.261,0.663,1.226,0.885c0.121,0.08-0.061,0.603-0.161,0.643c-1.186-0.02-2.331-0.02-2.732,0
		c-0.362,0-0.663,0.021-0.744,0c-0.101,0-0.121-0.02-0.141-0.08c-0.06-0.102-0.201-0.503-0.101-0.562
		c0.985-0.262,1.206-0.983,1.688-1.969c0.481-1.004,2.853-6.488,3.917-9.1c0.201-0.482,0.342-0.924,0.462-1.186
		c0.04-0.121,0.101-0.201,0.161-0.242c0.181-0.101,0.562-0.2,0.824-0.2C83.326,8.971,83.347,9.03,83.447,9.292z M81.86,16.905
		c0.723,0,1.145-0.021,1.667-0.039c0.181,0,0.301-0.183,0.281-0.242c-0.743-2.189-1.165-3.313-1.587-4.398
		c-0.06-0.121-0.181-0.121-0.221-0.021c-0.763,1.709-1.025,2.371-1.828,4.439c-0.04,0.081,0.141,0.24,0.422,0.24
		C80.795,16.886,81.177,16.905,81.86,16.905z"/>
	<path fill="#808080" d="M92.162,9.253c0.924,0.039,1.326,0.08,3.214,0.08c0.161,0,0.281,0.02,0.362,0.08
		c0.08,0.06,0.161,0.181,0.181,0.301c0.06,0.322,0.924,1.346,1.226,1.646c1.084,1.104,3.515,3.596,7.393,7.151
		c0.06-0.702,0.081-1.707,0.081-3.193c0-2.069-0.041-3.295-0.141-4.118c-0.04-0.361-0.081-0.863-0.482-0.984
		c-0.221-0.061-0.944-0.119-1.145-0.16c-0.101-0.061-0.141-0.08-0.141-0.182l-0.04-0.541h2.29c0.743,0,1.688-0.08,2.189-0.103
		c0.101,0,0.221,0.021,0.241,0.081l0.121,0.502c-0.703,0.201-0.944,0.262-1.226,0.422c-0.422,0.262-0.562,0.904-0.683,3.436
		c-0.06,1.929-0.08,3.215-0.08,5.283c0,1.688,0.06,2.832,0.06,3.135c0,0.281-0.121,0.4-0.623,0.662
		c-0.101,0.041-0.181,0.041-0.301-0.141c-1.105-1.628-2.632-3.314-4.741-5.443c-2.109-2.09-3.576-3.557-4.781-4.722
		c-0.04,0.845-0.081,2.109-0.101,3.255c0,1.245-0.02,4.358,0.201,5.162c0.161,0.542,1.085,0.703,1.627,0.805l0.141,0.541
		c0.02,0.062-0.101,0.182-0.161,0.182c-0.744,0-1.728-0.08-2.552-0.08c-0.683,0-1.346,0.041-1.647,0.061l-0.221-0.662
		c1.286-0.303,1.346-0.463,1.447-1.146c0.06-0.48,0.221-2.289,0.221-4.479v-2.229c0-2.511-0.1-2.913-0.341-3.192
		c-0.362-0.424-0.683-0.562-1.386-0.685c-0.141-0.06-0.201-0.101-0.201-0.222L92.162,9.253L92.162,9.253z"/>
	<path fill="#808080" d="M111.403,11.3c1.044-1.164,2.652-1.746,4.058-2.047c0.883-0.223,1.848-0.282,2.671-0.282
		c0.904,0,1.909,0.141,2.331,0.321c0.201,0.061,0.542-0.08,0.763-0.182c0.081-0.02,0.161-0.02,0.422,0.102
		c0.161,0.041,0.181,0.101,0.161,0.16c-0.401,1.004-0.422,2.029-0.341,3.314c0,0.04-0.101,0.08-0.281,0.08
		c-0.341,0.02-0.442-0.04-0.482-0.141c-0.061-0.241-0.262-0.845-0.422-1.226c-0.14-0.343-0.241-0.604-0.603-0.903
		c-0.361-0.322-1.326-0.744-2.431-0.744c-1.205,0-2.471,0.543-3.415,1.707c-0.944,1.166-1.366,2.772-1.366,4.479
		c0,2.271,1.246,5.866,5.143,5.866c1.386,0,2.351-0.824,2.933-1.467c0.401-0.481,0.643-0.983,0.783-1.285
		c0.02-0.04,0.081-0.08,0.261,0.08c0.241,0.141,0.301,0.222,0.281,0.402c-0.221,1.084-0.663,2.129-0.944,2.57
		c-0.141,0.182-0.201,0.2-0.402,0.2c-0.603,0-1.808,0.342-3.134,0.362c-5.484,0-7.634-3.616-7.634-6.73
		C109.756,14.516,110.097,12.747,111.403,11.3z"/>
	<path fill="#808080" d="M138.96,15.499c0,2.49-1.125,4.34-2.351,5.403c-1.447,1.306-3.194,1.769-4.259,1.769
		c-2.25,0-4.541-0.885-5.947-2.471c-1.004-1.125-1.707-2.912-1.707-4.541c0-1.728,0.723-3.475,2.189-4.801
		c1.326-1.227,3.214-1.889,5.042-1.889C135.646,8.971,138.96,11.844,138.96,15.499z M128.655,11.12
		c-0.944,1.125-1.246,2.651-1.246,4.318c0,1.93,0.663,3.616,1.627,4.661c1.226,1.325,2.351,1.769,3.576,1.769
		c1.728,0,3.676-1.908,3.676-5.506c0-1.828-0.361-3.716-1.627-5.121c-0.683-0.765-1.808-1.527-3.254-1.527
		C130.403,9.714,129.418,10.196,128.655,11.12z"/>
	<path fill="#808080" d="M155.429,9.915c-0.222,0.08-0.442,0.121-0.663,0.16c-0.182,0.041-0.281,0.16-0.361,0.481
		c-0.101,0.401-0.181,1.688-0.301,5.223c-0.061,2.21-0.301,3.456-1.105,4.603c-1.024,1.426-2.731,2.289-4.52,2.289
		c-2.209,0-3.536-0.803-4.118-1.365c-1.145-1.125-1.406-2.352-1.426-3.896c-0.02-1.166-0.02-2.291,0.04-3.959
		c0.081-2.591,0.06-2.871-0.1-3.093c-0.181-0.222-0.462-0.302-1.145-0.463l0.02-0.401c0.021-0.201,0.101-0.221,0.362-0.221
		c0.442,0,1.728,0.08,2.149,0.061c0.964-0.041,1.889-0.102,2.873-0.102c0.101,0,0.141,0,0.141,0.081c0,0.101,0.02,0.481-0.061,0.623
		c-1.044,0.181-1.607,0.2-1.728,0.804c-0.061,0.32-0.121,0.924-0.141,1.868c-0.02,1.125-0.081,3.113-0.081,4.579
		c0,1.527,0.382,2.532,1.326,3.275c0.663,0.562,1.708,0.822,2.793,0.822c1.506,0,2.29-0.623,2.711-1.185
		c0.783-1.024,1.025-2.531,1.025-4.399c0-2.07,0-3.979-0.121-4.882c-0.082-0.702-0.342-0.764-1.949-0.764
		c-0.06,0-0.161-0.12-0.141-0.281c0.081-0.101,0.201-0.241,0.281-0.36c0.04-0.062,0.161-0.08,0.321-0.08c0.24,0,1.326,0,1.809,0
		c0.742,0,1.807-0.021,2.25-0.041c0.1,0,0.1,0.021,0.039,0.222L155.429,9.915z"/>
	<path fill="#808080" d="M172.179,10.056c-0.161,0.021-0.282,0.061-0.462,0.201c-0.223,0.181-0.583,0.884-1.206,2.129
		c-0.562,1.125-2.792,5.986-3.797,8.458c-0.101,0.241-0.201,0.44-0.362,0.702c-0.161,0.281-0.32,0.662-0.521,0.984
		c-0.041,0.08-0.121,0.141-0.281,0.141c-0.303,0-0.482-0.061-0.521-0.182c-0.082-0.101-0.242-0.441-0.764-1.768
		c-1.809-4.54-3.254-7.653-3.857-8.939c-0.742-1.627-0.844-1.728-1.968-1.928l0.222-0.503c0.039-0.121,0.101-0.121,0.181-0.121
		c0.843,0.081,2.149,0.103,2.61,0.103c0.644,0,1.307-0.041,1.969-0.041c0.08,0,0.141,0.041,0.101,0.383
		c-0.041,0.261-0.062,0.32-0.181,0.341c-0.803,0.101-0.904,0.221-0.743,0.782c0.142,0.464,0.382,1.086,1.306,3.274
		c0.844,2.029,1.627,3.798,2.271,5.183c0.06,0.121,0.2,0.08,0.28-0.039c0.422-0.805,1.367-2.973,2.451-5.563
		c0.463-1.104,0.824-2.09,1.266-3.336c0.08-0.181-0.161-0.261-0.604-0.28l-0.783-0.039c-0.08,0-0.141-0.08-0.101-0.142
		c0.181-0.503,0.222-0.583,0.382-0.583c0.463,0,1.426,0.061,1.969,0.061c0.461,0,1.064-0.061,1.506-0.061
		c0.343,0,0.361,0.241,0.383,0.604c0,0.121-0.021,0.16-0.161,0.141L172.179,10.056z"/>
	<path fill="#808080" d="M180.772,15.358c0.884,0,1.466-0.02,1.888-0.039c1.105-0.08,1.287-0.261,1.627-1.367
		c0.08-0.1,0.522-0.14,0.764-0.1c-0.061,0.521-0.161,1.547-0.161,2.229c0.021,0.744,0.04,1.166,0.12,1.828
		c-0.1,0.041-0.281,0.062-0.462,0.062c-0.14,0.021-0.241-0.021-0.281-0.121c-0.08-0.181-0.201-0.622-0.301-0.845
		c-0.14-0.481-0.442-0.701-1.165-0.742c-0.502-0.039-1.023-0.039-1.93-0.039c-0.723,0-0.924,0.02-1.043,0.039
		c-0.101,0.021-0.182,0.061-0.222,0.181c-0.062,0.121-0.141,1.045-0.141,2.652c0,1.306,0,1.707,0.161,1.948
		c0.281,0.401,1.285,0.463,2.35,0.463c2.049,0,3.273-0.321,3.958-2.531c0.08-0.04,0.44-0.021,0.562,0.02
		c0.062,0,0.062,0,0.062,0.142c-0.04,1.104-0.382,2.53-0.663,3.073c-0.061,0.121-0.121,0.16-0.221,0.16c-0.141,0-0.301,0-0.944-0.02
		c-0.562-0.021-1.929-0.041-3.655-0.041c-1.91,0-3.697,0.08-5.203,0.121c-0.08-0.021-0.08-0.402-0.041-0.562
		c0-0.08,0.041-0.121,0.08-0.142c0.965-0.2,1.125-0.28,1.146-0.642c0.02-0.282,0.141-1.647,0.141-3.537v-4.237
		c0-2.011-0.101-2.632-0.141-2.753c-0.02-0.141-0.041-0.301-0.241-0.342c-0.2-0.061-0.522-0.141-1.146-0.262
		c-0.039-0.02-0.061-0.02-0.039-0.119l0.06-0.442c0-0.08,0-0.12,0.101-0.12h0.664c0.623,0,1.526,0.061,2.953,0.061h1.728
		c1.565,0,2.812-0.121,3.997-0.121c0.261,0,0.382,0.021,0.482,0.102c0.08,0.102,0.16,0.182,0.1,0.521
		c-0.221,1.064-0.221,2.028-0.221,2.631c-0.623,0.021-0.664-0.038-0.703-0.18c-0.482-1.566-0.783-2.149-1.969-2.149h-1.004
		c-1.187,0-1.769,0.041-1.99,0.079c-0.34,0.021-0.361,0.363-0.361,0.685c0,1.406,0,2.731,0.021,4.078c0,0.241,0.1,0.381,0.221,0.381
		L180.772,15.358L180.772,15.358z"/>
	<path fill="#808080" d="M189.347,9.493c-0.021-0.102,0.06-0.142,0.181-0.16c0.924-0.021,1.889-0.021,2.752-0.08
		c1.146-0.082,1.668-0.103,2.352-0.082c1.326,0,2.531,0.142,3.716,0.945c0.864,0.581,1.426,1.605,1.426,2.49
		c0,1.707-1.345,2.512-2.067,2.953c-0.102,0.061-0.162,0.24-0.121,0.381c0.121,0.502,0.582,1.668,1.345,2.873
		c0.844,1.346,2.028,2.591,3.375,3.193c0.221,0.102,0.221,0.242,0.183,0.481c-0.021,0.183-0.162,0.263-0.223,0.263
		c-1.848-0.121-3.254-0.604-4.5-1.85c-0.824-0.844-1.407-1.928-1.95-3.134c-0.38-0.783-0.642-1.125-1.707-1.125
		c-0.401,0-0.623,0.021-0.823,0.062c-0.101,0.021-0.181,0.2-0.181,0.342c0,1.688,0.04,2.771,0.06,3.656
		c0.021,0.34,0.08,0.44,0.182,0.521c0.199,0.161,1.125,0.282,1.586,0.401c0.061,0.101-0.04,0.562-0.102,0.644
		c-0.02,0.04-0.119,0.04-0.32,0.04s-2.17-0.02-3.135-0.02c-0.683,0-1.084,0.061-1.485,0.061c-0.222,0-0.302,0-0.322-0.061
		c-0.06-0.143-0.12-0.482-0.1-0.623c0.422-0.08,0.944-0.222,1.125-0.442c0.221-0.302,0.28-1.707,0.28-4.238v-2.469
		c0-1.165-0.041-2.611-0.061-3.354c-0.02-0.724-0.081-0.742-1.365-1.104L189.347,9.493z M194.631,9.915
		c-0.502,0-0.744,0.061-1.065,0.182c-0.2,0.08-0.301,0.22-0.341,0.4c-0.081,0.623-0.102,1.508-0.121,3.274
		c-0.021,1.988,0,2.008,0.141,2.067c0.141,0.041,0.441,0.041,0.804,0.041c1.085,0,1.909-0.24,2.45-0.903
		c0.401-0.522,0.684-1.286,0.684-2.17C197.182,11.12,195.996,9.915,194.631,9.915z"/>
	<path fill="#808080" d="M216.502,9.915c-1.748,0.201-1.889,0.36-1.969,0.723c-0.082,0.361-0.142,1.126-0.142,3.275v3.435
		c0,1.427,0.06,2.833,0.161,3.556c0.04,0.383,0.16,0.523,0.441,0.562c0.16,0.021,0.662,0.101,1.023,0.181
		c0.102,0,0.161,0.041,0.161,0.101c0,0.121-0.08,0.522-0.12,0.623c-1.507-0.039-2.352-0.061-3.175-0.061
		c-1.365,0-2.392,0.08-2.45,0.08c-0.121,0-0.223-0.08-0.24-0.16c-0.021-0.161-0.102-0.422-0.08-0.542
		c1.225-0.08,1.646-0.181,1.786-0.743c0.081-0.322,0.202-0.984,0.202-3.535v-4.238c0-2.692-0.021-2.955-0.725-3.073
		c-0.262-0.041-0.603-0.081-0.943-0.081c-0.121,0-0.161-0.04-0.161-0.141c0-0.062,0.021-0.201,0.101-0.361
		c0.08-0.141,0.102-0.182,0.162-0.182c0.16-0.021,0.32-0.021,0.603-0.021c0.28,0,0.844,0.04,2.392,0.021
		c1.004,0,2.27-0.041,2.489-0.041c0.263,0,0.281,0.021,0.302,0.082L216.502,9.915z"/>
	<path fill="#808080" d="M219.473,22.691c-0.061-0.062-0.12-0.261-0.141-0.743c-0.041-1.045-0.162-2.009-0.322-3.152
		c-0.039-0.143-0.02-0.161,0.081-0.182c0.12-0.021,0.302-0.061,0.401-0.061c0.121,0,0.201,0.039,0.262,0.221
		c0.101,0.301,0.24,0.723,0.582,1.205c0.724,1.004,2.109,1.889,3.295,1.889c1.527,0,2.672-1.023,2.672-2.552
		c0-0.644-0.362-1.284-0.965-1.687c-0.361-0.223-0.844-0.543-2.09-1.065c-1.385-0.562-2.351-1.085-3.053-1.928
		c-0.402-0.443-0.742-1.246-0.742-2.171c0-1.385,0.783-2.289,1.728-2.812c0.481-0.261,1.667-0.642,3.053-0.642
		c0.562,0,1.446,0.079,1.808,0.12c0.223,0.039,0.402,0.039,0.623,0.061c0.182,0.02,0.342-0.102,0.482-0.402
		c0.241,0,0.562,0,0.622,0.021c-0.06,1.065-0.021,2.069,0.181,3.256c0.041,0.16,0,0.24-0.06,0.28
		c-0.16,0.101-0.302,0.222-0.481,0.281c-0.041,0.021-0.121-0.021-0.16-0.141c-0.303-0.865-0.543-1.467-1.166-1.949
		c-0.481-0.401-1.426-0.742-2.291-0.742c-1.185,0-2.067,0.983-2.067,2.029c0,0.603,0.201,1.084,0.562,1.444
		c0.463,0.463,0.943,0.804,2.17,1.286c1.387,0.562,2.41,1.064,3.033,1.668c0.823,0.781,1.125,1.506,1.125,2.57
		c0,1.486-0.804,2.552-1.849,3.113c-1.004,0.543-2.752,0.764-3.456,0.764c-0.822,0-1.747-0.121-2.49-0.32
		c-0.16-0.041-0.262-0.041-0.361,0.02c-0.121,0.062-0.24,0.161-0.36,0.303c-0.142,0.101-0.241,0.119-0.362,0.101
		C219.634,22.772,219.574,22.751,219.473,22.691z"/>
	<path fill="#808080" d="M241.908,19.096c0.062,0.04,0.121,0.159,0.08,0.239c-0.301,0.985-0.48,1.851-0.641,2.674
		c-0.041,0.24-0.162,0.301-0.363,0.342c-0.18,0.02-0.422,0.02-1.266,0.02c-0.805,0-1.787-0.061-5.305-0.061
		c-1.184,0-2.209,0.102-2.61,0.141c-0.16,0.021-0.263,0.021-0.302-0.02c-0.061-0.141-0.16-0.521-0.12-0.645
		c0.903-0.141,1.485-0.359,1.606-0.924c0.061-0.361,0.121-0.984,0.121-2.934v-4.018c0-1.688-0.061-2.771-0.162-3.354
		c-0.059-0.382-0.219-0.502-1.605-0.461c-0.061,0-0.121-0.121-0.08-0.302l0.16-0.402c0.021-0.08,0.039-0.08,0.08-0.08
		c0.703,0.021,1.445,0.04,2.189,0.021c1.205-0.021,2.391-0.08,3.354-0.121c0.102,0.02,0.182,0.562,0.162,0.683
		c-0.863,0.142-1.668,0.222-1.77,0.944c-0.102,0.562-0.139,1.547-0.119,3.496l0.02,2.49c0.021,2.992,0.041,3.615,0.08,3.997
		c0.021,0.362,0.102,0.482,0.402,0.582c0.322,0.103,0.723,0.142,1.607,0.142c1.385,0,2.631-0.142,3.254-1.186
		c0.182-0.281,0.32-0.683,0.461-1.306c0.041-0.12,0.082-0.142,0.182-0.142C241.428,18.915,241.768,19.036,241.908,19.096z"/>
	<path fill="#808080" d="M251.869,9.292c0.604,1.828,1.025,2.912,1.729,4.78c0.664,1.788,2.109,5.224,2.41,5.906
		c0.502,1.045,0.783,1.526,1.949,1.769c0.02-0.041-0.102,0.604-0.24,0.643c-1.949-0.02-2.33-0.039-3.014-0.039
		c-0.645,0-1.406,0.061-1.607,0.061c-0.08,0-0.119-0.021-0.143-0.08c-0.039-0.102-0.199-0.504-0.16-0.543
		c0.885-0.24,1.006-0.36,0.945-0.903c-0.041-0.442-0.744-2.25-0.904-2.593c-0.119-0.301-0.279-0.441-0.4-0.441
		c-0.945,0-2.975,0-3.979,0.061c-0.32,0.021-0.422,0.161-0.562,0.502c-0.201,0.504-0.742,1.789-0.742,2.371
		c0,0.482,0.26,0.663,1.225,0.885c0.121,0.08-0.061,0.603-0.16,0.643c-1.186-0.02-2.33-0.02-2.732,0c-0.361,0-0.662,0.021-0.742,0
		c-0.102,0-0.121-0.02-0.141-0.08c-0.061-0.102-0.201-0.503-0.102-0.562c0.984-0.262,1.205-0.983,1.688-1.969
		c0.48-1.004,2.852-6.488,3.918-9.1c0.199-0.482,0.34-0.924,0.461-1.186c0.041-0.121,0.102-0.201,0.16-0.242
		c0.182-0.101,0.562-0.2,0.824-0.2C251.75,8.971,251.77,9.03,251.869,9.292z M250.283,16.905c0.723,0,1.145-0.021,1.666-0.039
		c0.182,0,0.303-0.183,0.283-0.242c-0.744-2.189-1.166-3.313-1.588-4.398c-0.061-0.121-0.182-0.121-0.221-0.021
		c-0.764,1.709-1.025,2.371-1.828,4.439c-0.041,0.081,0.141,0.24,0.422,0.24C249.217,16.886,249.6,16.905,250.283,16.905z"/>
	<path fill="#808080" d="M260.584,9.253c0.926,0.039,1.326,0.08,3.215,0.08c0.16,0,0.281,0.02,0.361,0.08
		c0.08,0.06,0.16,0.181,0.182,0.301c0.061,0.322,0.924,1.346,1.225,1.646c1.086,1.104,3.518,3.596,7.395,7.151
		c0.061-0.702,0.08-1.707,0.08-3.193c0-2.069-0.041-3.295-0.141-4.118c-0.041-0.361-0.08-0.863-0.482-0.984
		c-0.221-0.061-0.943-0.119-1.146-0.16c-0.1-0.061-0.139-0.08-0.139-0.182l-0.041-0.541h2.291c0.742,0,1.686-0.08,2.188-0.103
		c0.1,0,0.221,0.021,0.242,0.081l0.121,0.502c-0.705,0.201-0.945,0.262-1.227,0.422c-0.422,0.262-0.562,0.904-0.684,3.436
		c-0.062,1.929-0.08,3.215-0.08,5.283c0,1.688,0.059,2.832,0.059,3.135c0,0.281-0.119,0.4-0.621,0.662
		c-0.102,0.041-0.182,0.041-0.303-0.141c-1.104-1.628-2.631-3.314-4.738-5.443c-2.111-2.09-3.576-3.557-4.783-4.722
		c-0.039,0.845-0.08,2.109-0.1,3.255c0,1.245-0.021,4.358,0.199,5.162c0.162,0.542,1.086,0.703,1.629,0.805l0.141,0.541
		c0.02,0.062-0.102,0.182-0.16,0.182c-0.744,0-1.729-0.08-2.551-0.08c-0.684,0-1.348,0.041-1.648,0.061l-0.221-0.662
		c1.285-0.303,1.346-0.463,1.445-1.146c0.061-0.48,0.221-2.289,0.221-4.479v-2.229c0-2.511-0.1-2.913-0.342-3.192
		c-0.359-0.424-0.682-0.562-1.385-0.685c-0.141-0.06-0.201-0.101-0.201-0.222V9.253L260.584,9.253z"/>
	<path fill="#808080" d="M290.754,20.04c-1.406,1.326-2.369,1.687-3.436,2.008c-1.084,0.303-1.809,0.342-3.215,0.342
		c-1.064,0-3.033-0.08-3.414-0.08c-0.645,0-1.367,0-1.828,0.021c0-0.142-0.041-0.562,0-0.644c0.844-0.321,1.064-0.442,1.084-0.804
		c0.102-1.567,0.082-4.963,0.082-7.373c0-2.108-0.021-2.551-0.041-2.812c-0.02-0.279-0.182-0.502-1.125-0.643
		c-0.061-0.02-0.08-0.102-0.08-0.422l-0.021-0.301c0.742,0,1.688-0.041,2.793-0.062c1.324-0.021,2.029-0.062,3.033-0.062
		c1.445,0,4.037,0.201,5.887,1.849c1.467,1.325,2.188,2.935,2.188,4.741C292.662,16.925,292.18,18.694,290.754,20.04z
		 M282.637,10.337c-0.1,0.06-0.16,0.201-0.182,0.401c-0.061,0.763-0.119,2.651-0.119,4.298c0,2.935,0,4.902,0.301,6.049
		c0.041,0.16,0.102,0.24,0.281,0.301c0.441,0.181,0.965,0.281,1.447,0.281c0.842,0,1.887-0.222,3.092-0.965
		c1.648-1.023,2.473-3.014,2.473-5.082c0-2.149-0.963-3.637-1.947-4.42c-1.287-1.045-2.793-1.226-3.678-1.226
		C283.863,9.976,282.84,10.136,282.637,10.337z"/>
</g>
</svg>
