<?xml version="1.0" encoding="utf-8"?>
<!-- Generator: Adobe Illustrator 16.0.4, SVG Export Plug-In . SVG Version: 6.00 Build 0)  -->
<!DOCTYPE svg PUBLIC "-//W3C//DTD SVG 1.1//EN" "http://www.w3.org/Graphics/SVG/1.1/DTD/svg11.dtd">
<svg version="1.1" id="White" xmlns="http://www.w3.org/2000/svg" xmlns:xlink="http://www.w3.org/1999/xlink" x="0px" y="0px"
	 width="310px" height="314px" viewBox="0 0 310 314" enable-background="new 0 0 310 314" xml:space="preserve">
<circle fill="#7D79E9" cx="155" cy="157" r="144.044"/>
<path fill="#FFFFFF" d="M85.064,108.078c-1.334,0-2.224,0.89-2.224,2.223v8.896c0,1.334,0.916,2.611,1.806,3.06l67.13,33.913
	c1.333,0.445,3.14,0.445,4.028,0l67.131-33.913c1.335-0.445,2.224-1.726,2.224-3.06V110.3c0-1.334-0.89-2.223-2.224-2.223H85.064z
	 M83.953,135.457c-0.628,0-1.112,0.529-1.112,1.53v66.713c0,1.335,0.89,2.223,2.224,2.223h137.872c1.335,0,2.224-0.889,2.224-2.223
	v-66.713c0-1.334-0.917-1.833-1.804-1.392l-67.132,33.914c-1.334,0.443-3.14,0.443-4.03,0l-67.549-33.914
	C84.423,135.484,84.161,135.457,83.953,135.457z"/>
</svg>
