<?xml version="1.0" encoding="utf-8"?>
<!-- Generator: Adobe Illustrator 16.0.4, SVG Export Plug-In . SVG Version: 6.00 Build 0)  -->
<!DOCTYPE svg PUBLIC "-//W3C//DTD SVG 1.1//EN" "http://www.w3.org/Graphics/SVG/1.1/DTD/svg11.dtd">
<svg version="1.1" id="White" xmlns="http://www.w3.org/2000/svg" xmlns:xlink="http://www.w3.org/1999/xlink" x="0px" y="0px"
	 width="310px" height="314px" viewBox="0 0 310 314" enable-background="new 0 0 310 314" xml:space="preserve">
<circle fill="#7D79E9" cx="155" cy="157" r="144.044"/>
<path id="White_2_" fill="#FFFFFF" d="M208.617,98.729H101.382c-3.675,0-6.653,2.979-6.653,6.653v107.235
	c0,3.675,2.979,6.652,6.653,6.652h57.731V172.59h-15.708v-18.191h15.708v-13.416c0-15.569,9.51-24.047,23.399-24.047
	c6.652,0,12.37,0.496,14.036,0.717v16.271l-9.632,0.005c-7.554,0-9.017,3.589-9.017,8.856v11.615h18.015l-2.346,18.191h-15.668
	v46.681h30.717c3.675,0,6.653-2.978,6.653-6.652V105.383C215.271,101.708,212.292,98.729,208.617,98.729z"/>
</svg>
