<?xml version="1.0" encoding="utf-8"?>
<!-- Generator: Adobe Illustrator 16.0.4, SVG Export Plug-In . SVG Version: 6.00 Build 0)  -->
<!DOCTYPE svg PUBLIC "-//W3C//DTD SVG 1.1//EN" "http://www.w3.org/Graphics/SVG/1.1/DTD/svg11.dtd">
<svg version="1.1" id="White" xmlns="http://www.w3.org/2000/svg" xmlns:xlink="http://www.w3.org/1999/xlink" x="0px" y="0px"
	 width="310px" height="314px" viewBox="0 0 310 314" enable-background="new 0 0 310 314" xml:space="preserve">
<circle fill="#7D79E9" cx="153" cy="156" r="144.044"/>
<path fill="#FFFFFF" d="M234.895,111.063c-5.815,2.573-12.058,4.319-18.595,5.1c6.686-4.003,11.812-10.356,14.229-17.917
	c-6.262,3.715-13.18,6.417-20.555,7.867c-5.91-6.307-14.325-10.227-23.632-10.227c-17.882,0-32.37,14.499-32.37,32.37
	c0,2.536,0.278,5.016,0.836,7.385c-26.908-1.358-50.75-14.258-66.718-33.838c-2.786,4.793-4.392,10.348-4.392,16.282
	c0,11.23,5.722,21.141,14.405,26.945c-5.303-0.176-10.301-1.635-14.656-4.049c0,0.13,0,0.27,0,0.399
	c0,15.688,11.154,28.775,25.96,31.749c-2.712,0.752-5.572,1.133-8.527,1.133c-2.081,0-4.114-0.197-6.093-0.587
	c4.123,12.874,16.079,22.229,30.243,22.486c-11.08,8.693-25.033,13.858-40.2,13.858c-2.619,0-5.202-0.159-7.728-0.447
	c14.323,9.177,31.338,14.537,49.628,14.537c59.538,0,92.093-49.32,92.093-92.103c0-1.412-0.027-2.805-0.085-4.189
	C225.059,123.26,230.547,117.547,234.895,111.063z"/>
</svg>
