<svg id="Layer_1" data-name="Layer 1" xmlns="http://www.w3.org/2000/svg" viewBox="0 0 34.55 45.25">
    <defs>
        <style>.cls-1{fill:#0e4afb;}</style>
    </defs>
    <title>branding</title>
    <path class="cls-1"
          d="M43.41,4.88H32.19a1,1,0,0,0-1,1V48a26.71,26.71,0,0,1-4.08,0V25a1,1,0,0,0-.16-0.52h0L19.37,12.16a1,1,0,0,0-1.74,0L10.05,24.49h0a1,1,0,0,0-.16.52V42.43a1,1,0,0,0,.4.81,27.1,27.1,0,0,0,4.13,3A28.81,28.81,0,0,0,26,50a27.8,27.8,0,0,0,2.87.15,29.31,29.31,0,0,0,3.46-.21,28.75,28.75,0,0,0,11.56-4,1,1,0,0,0,.44-0.44,1,1,0,0,0,.11-0.62V5.9A1,1,0,0,0,43.41,4.88ZM16,26h4.79V46.77A26.35,26.35,0,0,1,16,44.69V26Zm-3.21-2,2.87-4.67a7.77,7.77,0,0,0,2.88.56,7.58,7.58,0,0,0,2.88-.55L24.24,24H12.76Zm5.75-9.35,1.77,2.88a5.83,5.83,0,0,1-3.53,0ZM11.94,26h2V43.45c-0.68-.47-1.35-1-2-1.49V26ZM25.05,47.81c-0.76-.12-1.52-0.27-2.26-0.45V26h2.26V47.81Zm17.34-3.33a26.76,26.76,0,0,1-9.18,3.26V27.53H37.8v-2H33.21v-2h2.85v-2H33.21v-2H36v-2H33.21v-2H37.8v-2H33.21V11.61H36v-2H33.21V6.92h9.18V44.47h0Z"
          transform="translate(-9.89 -4.88)"/>
</svg>