<?xml version="1.0" encoding="utf-8"?>
<!-- Generator: Adobe Illustrator 16.0.4, SVG Export Plug-In . SVG Version: 6.00 Build 0)  -->
<!DOCTYPE svg PUBLIC "-//W3C//DTD SVG 1.1//EN" "http://www.w3.org/Graphics/SVG/1.1/DTD/svg11.dtd">
<svg version="1.1" id="Layer_1" xmlns="http://www.w3.org/2000/svg" xmlns:xlink="http://www.w3.org/1999/xlink" x="0px" y="0px"
	 width="56.334px" height="55px" viewBox="0 0 56.334 55" enable-background="new 0 0 56.334 55" xml:space="preserve">
<path fill="none" d="M27.833,16.447c-3.733,0-6.989,2.011-8.713,5.074"/>
<path fill="none" d="M37.887,26.5c0-5.553-4.5-10.053-10.054-10.053l0,0"/>
<path fill="none" d="M19.12,21.521c-0.861,1.437-1.34,3.16-1.34,4.979"/>
<path fill="none" d="M20.748,33.585c1.819,1.82,4.309,2.969,7.085,2.969c5.554,0,10.054-4.5,10.054-10.054"/>
<path fill="none" d="M17.78,26.5c0,2.777,1.148,5.267,2.968,7.085"/>
<path fill="#59FF89" d="M16.631,39.043l-0.67-0.67C12.801,35.214,11.078,31,11.078,26.5v-0.957h7.659V26.5
	c0,2.395,0.958,4.692,2.681,6.416l0.671,0.669L16.631,39.043z M12.993,27.458c0.191,3.255,1.531,6.319,3.638,8.809l2.682-2.682
	c-1.437-1.723-2.299-3.829-2.586-6.127H12.993L12.993,27.458z"/>
<path fill="#59FF89" d="M44.589,27.458h-7.66V26.5c0-4.979-4.116-9.096-9.096-9.096h-0.957V9.745h0.957
	c9.192,0,16.756,7.563,16.756,16.755V27.458z M38.845,25.543h3.829c-0.479-7.469-6.414-13.404-13.883-13.883v3.829
	C34.057,15.969,38.365,20.277,38.845,25.543z"/>
<path fill="#59FF89" d="M27.833,43.256c-4.5,0-8.713-1.723-11.872-4.883l-0.67-0.67l5.457-5.458l0.67,0.671
	c1.724,1.723,4.021,2.68,6.415,2.68c4.979,0,9.096-4.116,9.096-9.096v-0.957h7.66V26.5C44.589,35.692,37.025,43.256,27.833,43.256z
	 M18.067,37.606c2.681,2.395,6.128,3.734,9.766,3.734c7.852,0,14.362-6.127,14.841-13.883h-3.829
	c-0.575,5.648-5.267,10.054-11.012,10.054c-2.585,0-5.074-0.958-7.085-2.585L18.067,37.606z"/>
<path fill="#59FF89" d="M19.504,22.767L7.918,16.064l0.479-0.862C12.322,8.309,19.791,4,27.833,4h0.958v13.404h-0.958
	c-3.255,0-6.223,1.724-7.851,4.596L19.504,22.767z M10.503,15.394l8.33,4.787c1.915-2.681,4.788-4.404,8.043-4.691V5.915
	C20.27,6.202,14.142,9.745,10.503,15.394z"/>
<path fill="#59FF89" d="M27.833,49.001c-6.031,0-11.681-2.298-15.894-6.606l-0.67-0.671l5.457-5.457l0.575,0.766
	c2.776,2.777,6.511,4.309,10.531,4.309c8.139,0,14.841-6.702,14.841-14.841v-0.957h7.66V26.5
	C50.334,38.947,40.28,49.001,27.833,49.001z M13.95,41.724c3.83,3.447,8.713,5.362,13.883,5.362
	c11.012,0,20.107-8.713,20.586-19.628h-3.83c-0.479,8.809-7.851,15.798-16.756,15.798c-4.117,0-8.042-1.532-11.106-4.213
	L13.95,41.724z"/>
<path fill="#59FF89" d="M18.737,27.458H5.333V26.5c0-3.925,1.054-7.851,3.064-11.202l0.479-0.861l11.585,6.702L19.982,22
	c-0.767,1.341-1.245,2.969-1.245,4.5V27.458z M7.248,25.543h9.574c0.096-1.245,0.479-2.489,0.958-3.734l-8.33-4.787
	C8.205,19.702,7.439,22.575,7.248,25.543z"/>
</svg>
