<?xml version="1.0" encoding="utf-8"?>
<!-- Generator: Adobe Illustrator 16.0.4, SVG Export Plug-In . SVG Version: 6.00 Build 0)  -->
<!DOCTYPE svg PUBLIC "-//W3C//DTD SVG 1.1//EN" "http://www.w3.org/Graphics/SVG/1.1/DTD/svg11.dtd">
<svg version="1.1" id="White" xmlns="http://www.w3.org/2000/svg" xmlns:xlink="http://www.w3.org/1999/xlink" x="0px" y="0px"
	 width="310px" height="314px" viewBox="0 0 310 314" enable-background="new 0 0 310 314" xml:space="preserve">
<path id="White_2_" fill="#ACACAC" d="M275.717,26.553H38.283c-8.137,0-14.73,6.594-14.73,14.73v237.434
	c0,8.135,6.594,14.73,14.73,14.73h127.826V190.092h-34.781v-40.28h34.781v-29.705c0-34.473,21.055-53.244,51.807-53.244
	c14.73,0,27.391,1.097,31.08,1.587v36.026l-21.328,0.01c-16.725,0-19.963,7.947-19.963,19.609v25.717h39.887l-5.193,40.28h-34.692
	v103.355h68.012c8.136,0,14.73-6.596,14.73-14.73V41.283C290.447,33.146,283.852,26.553,275.717,26.553z"/>
</svg>
