<?xml version="1.0" encoding="utf-8"?>
<!-- Generator: Adobe Illustrator 16.0.4, SVG Export Plug-In . SVG Version: 6.00 Build 0)  -->
<!DOCTYPE svg PUBLIC "-//W3C//DTD SVG 1.1//EN" "http://www.w3.org/Graphics/SVG/1.1/DTD/svg11.dtd">
<svg version="1.1" id="White" xmlns="http://www.w3.org/2000/svg" xmlns:xlink="http://www.w3.org/1999/xlink" x="0px" y="0px"
	 width="310px" height="314px" viewBox="0 0 310 314" enable-background="new 0 0 310 314" xml:space="preserve">
<g>
	<path fill="#ADADAD" d="M253.753,137.052h-22.215c1.616,6.284,2.571,12.849,2.571,19.635c0,43.376-35.151,78.528-78.514,78.528
		c-43.364,0-78.518-35.152-78.518-78.528c0-6.786,0.96-13.351,2.578-19.635H57.439v107.978c0,5.407,4.395,9.807,9.824,9.807H243.93
		c5.429,0,9.821-4.395,9.821-9.807V137.052H253.753z M253.753,68.35c0-5.417-4.392-9.813-9.821-9.813h-29.44
		c-5.421,0-9.817,4.396-9.817,9.813V97.8c0,5.418,4.395,9.814,9.817,9.814h29.44c5.43,0,9.821-4.396,9.821-9.814V68.35z
		 M155.596,107.614c-27.106,0-49.077,21.968-49.077,49.072c0,27.105,21.971,49.083,49.077,49.083
		c27.105,0,49.08-21.978,49.08-49.083C204.674,129.583,182.701,107.614,155.596,107.614 M253.753,284.29H57.439
		c-16.257,0-29.441-13.184-29.441-29.454V58.537c0-16.26,13.184-29.439,29.441-29.439h196.314c16.264,0,29.443,13.179,29.443,29.439
		v196.299C283.194,271.106,270.017,284.29,253.753,284.29"/>
</g>
</svg>
