<?xml version="1.0" encoding="utf-8"?>
<!-- Generator: Adobe Illustrator 16.0.4, SVG Export Plug-In . SVG Version: 6.00 Build 0)  -->
<!DOCTYPE svg PUBLIC "-//W3C//DTD SVG 1.1//EN" "http://www.w3.org/Graphics/SVG/1.1/DTD/svg11.dtd">
<svg version="1.1" id="Layer_1" xmlns="http://www.w3.org/2000/svg" xmlns:xlink="http://www.w3.org/1999/xlink" x="0px" y="0px"
	 width="56.334px" height="55px" viewBox="0 0 56.334 55" enable-background="new 0 0 56.334 55" xml:space="preserve">
<circle fill="#59FF89" cx="49.232" cy="12.737" r="0.903"/>
<circle fill="#59FF89" cx="46.455" cy="12.737" r="0.903"/>
<circle fill="#59FF89" cx="43.678" cy="12.737" r="0.903"/>
<path fill="#59FF89" stroke="#59FF89" stroke-width="0.5" stroke-miterlimit="10" d="M14.58,24.601
	c0.736-0.596,1.209-1.506,1.209-2.525c0-1.79-1.456-3.245-3.245-3.245s-3.245,1.455-3.245,3.245c0,1.02,0.473,1.93,1.209,2.525
	c-1.723,0.855-2.928,2.763-2.928,4.975v0.594h9.928v-0.594C17.507,27.363,16.303,25.456,14.58,24.601z M10.486,22.075
	c0-1.134,0.923-2.057,2.057-2.057c1.135,0,2.057,0.923,2.057,2.057c0,1.072-0.824,1.955-1.873,2.048
	c-0.062-0.002-0.122-0.005-0.184-0.005c-0.061,0-0.121,0.003-0.183,0.005C11.312,24.03,10.486,23.147,10.486,22.075z M8.806,28.98
	c0.247-1.999,1.724-3.558,3.534-3.667c0.068,0.004,0.135,0.007,0.203,0.007s0.136-0.003,0.203-0.007
	c1.812,0.109,3.287,1.668,3.535,3.667H8.806z"/>
<path fill="#59FF89" d="M52.123,9H4.21c-0.5,0-0.904,0.405-0.904,0.903V26.54v0.12v19.913c0,0.5,0.405,0.904,0.904,0.904h47.913
	c0.5,0,0.904-0.404,0.904-0.904V26.66v-0.12V9.903C53.027,9.405,52.623,9,52.123,9z M51.219,10.809v3.747H5.114v-3.747H51.219z
	 M36.429,45.67h-4.609 M51.219,45.67L5.115,45.669V26.54H5.114V16.364h46.104V26.66l0,0V45.67L51.219,45.67z"/>
<line fill="none" stroke="#59FF89" stroke-width="2" stroke-miterlimit="10" x1="19.996" y1="20.834" x2="46.454" y2="20.834"/>
<line fill="none" stroke="#59FF89" stroke-width="2" stroke-miterlimit="10" x1="19.996" y1="24.834" x2="29.83" y2="24.834"/>
<polyline fill="none" stroke="#59FF89" stroke-width="2" stroke-miterlimit="10" points="27.344,46.35 27.344,33.351 21.33,33.351 
	21.33,46.35 "/>
<polyline fill="none" stroke="#59FF89" stroke-width="2" stroke-miterlimit="10" points="37.344,46.35 37.344,30.169 31.33,30.169 
	31.33,46.35 "/>
<polyline fill="none" stroke="#59FF89" stroke-width="2" stroke-miterlimit="10" points="47.344,46.35 47.344,38.122 41.33,38.122 
	41.33,46.35 "/>
</svg>
