<?xml version="1.0" encoding="utf-8"?>
<!-- Generator: Adobe Illustrator 16.0.4, SVG Export Plug-In . SVG Version: 6.00 Build 0)  -->
<!DOCTYPE svg PUBLIC "-//W3C//DTD SVG 1.1//EN" "http://www.w3.org/Graphics/SVG/1.1/DTD/svg11.dtd">
<svg version="1.1" id="Layer_1" xmlns="http://www.w3.org/2000/svg" xmlns:xlink="http://www.w3.org/1999/xlink" x="0px" y="0px"
	 width="113.636px" height="103.636px" viewBox="0 0 113.636 103.636" enable-background="new 0 0 113.636 103.636"
	 xml:space="preserve">
<g>
	<path fill="#FFFFFF" d="M40.025,21.949c-3.551,2.762-5.287,6.549-5.287,10.336c0,4.655,2.524,9.152,7.337,11.677l12.782-22.014
		c3.708-6.47,9.073-9.626,13.57-9.626c6.075,0,10.889,4.813,10.889,12.229c0,3.235-1.025,7.022-3.313,11.046
		c-6.47,11.283-16.412,15.78-25.169,15.78c-1.657,0-3.157-0.157-4.655-0.394l-7.26,12.624c-0.709,1.263-1.499,2.367-2.209,3.393
		c1.5,1.578,2.919,3.235,4.577,4.813c9.864,10.021,15.149,15.069,21.383,15.069c3.943,0,7.731-0.946,11.361-4.496l4.023,4.261
		c0,0-4.733,6.706-15.544,6.706c-11.598,0-21.382-12.624-30.219-21.697c-4.261,3.549-8.995,5.128-13.019,5.128
		c-7.812,0-11.599-5.128-11.599-10.257c0-5.128,3.787-10.336,11.204-10.336c5.049,0,8.996,2.367,12.782,5.761
		c0.395-0.553,0.71-1.184,1.104-1.815l6.549-11.362c-6.707-3.393-10.415-9.705-10.415-16.333c0-5.523,2.604-11.125,8.443-15.307
		L40.025,21.949z M27.4,67.002c-3.156-2.683-6.312-4.497-9.311-4.497c-2.761,0-4.339,2.051-4.339,4.103
		c0,1.973,1.5,3.867,4.733,3.867C21.956,70.474,24.875,69.29,27.4,67.002z M49.178,45.935h1.657
		c12.782,0,22.092-13.808,22.092-21.461c0-2.998-1.421-5.049-4.498-5.049c-2.286,0-4.97,1.815-7.417,5.997L49.178,45.935z"/>
</g>
<g>
	<path fill="#FFFFFF" d="M37.657,69.617c39.742-8.777,48.467-32.128,50.085-34.703l6.367,2.882
		c-4.313,10.817-2.938,22.743-4.997,30.715c3.074-2.427,6.478-5.826,9.226-9.573l0.508-0.668c1.202,0.232,2.706,1.395,3.266,2.621
		c-5.646,7.587-13.454,14.77-21.722,16.447c-0.079,0.006-0.151,0.089-0.23,0.096c-0.781,0.133-1.484,0.26-2.272,0.314
		c-7.478,0.517-10.246-6.322-10.246-6.322l3.797-4.112c0,0,3.259,4.328,6.014,4.138c7.793-0.538,5.976-15.54,8.617-24.264
		c-1.021,1.562-8.253,15.065-43.546,27.601C42.521,74.79,36.438,69.886,37.657,69.617z"/>
</g>
</svg>
