<?xml version="1.0" encoding="utf-8"?>
<!-- Generator: Adobe Illustrator 16.0.4, SVG Export Plug-In . SVG Version: 6.00 Build 0)  -->
<!DOCTYPE svg PUBLIC "-//W3C//DTD SVG 1.1//EN" "http://www.w3.org/Graphics/SVG/1.1/DTD/svg11.dtd">
<svg version="1.1" id="White" xmlns="http://www.w3.org/2000/svg" xmlns:xlink="http://www.w3.org/1999/xlink" x="0px" y="0px"
	 width="310px" height="314px" viewBox="0 0 310 314" enable-background="new 0 0 310 314" xml:space="preserve">
<g>
	<path fill="#ACACAC" d="M83.831,289.777H29.882v-173.41h53.949V289.777z M56.871,92.675c-17.31,0-31.268-14.002-31.268-31.257
		c0-17.25,13.958-31.253,31.268-31.253c17.241,0,31.238,14.002,31.238,31.253C88.109,78.673,74.112,92.675,56.871,92.675z
		 M285.69,289.777H231.8v-84.329c0-20.109-0.345-45.975-28.005-45.975c-28.044,0-32.322,21.913-32.322,44.535v85.769h-53.831
		v-173.41h51.663v23.707h0.739c7.186-13.633,24.771-28.01,50.992-28.01c54.57,0,64.654,35.905,64.654,82.609V289.777z"/>
</g>
</svg>
