<?xml version="1.0" encoding="utf-8"?>
<!-- Generator: Adobe Illustrator 16.0.4, SVG Export Plug-In . SVG Version: 6.00 Build 0)  -->
<!DOCTYPE svg PUBLIC "-//W3C//DTD SVG 1.1//EN" "http://www.w3.org/Graphics/SVG/1.1/DTD/svg11.dtd">
<svg version="1.1" id="White" xmlns="http://www.w3.org/2000/svg" xmlns:xlink="http://www.w3.org/1999/xlink" x="0px" y="0px"
	 width="310px" height="314px" viewBox="0 0 310 314" enable-background="new 0 0 310 314" xml:space="preserve">
<path fill="#ADADAD" d="M302.548,69.721c-10.727,4.748-22.242,7.968-34.305,9.409c12.337-7.386,21.796-19.107,26.253-33.055
	c-11.55,6.854-24.316,11.84-37.921,14.514c-10.899-11.635-26.424-18.866-43.593-18.866c-32.987,0-59.717,26.748-59.717,59.717
	c0,4.678,0.513,9.253,1.541,13.623C105.165,112.56,61.18,88.759,31.722,52.638c-5.14,8.842-8.104,19.089-8.104,30.038
	c0,20.717,10.556,39,26.576,49.71c-9.785-0.325-19.003-3.016-27.039-7.47c0,0.239,0,0.497,0,0.736
	c0,28.941,20.579,53.086,47.894,58.57c-5.004,1.388-10.281,2.09-15.73,2.09c-3.839,0-7.591-0.36-11.241-1.079
	c7.606,23.749,29.662,41.005,55.793,41.484c-20.442,16.039-46.18,25.566-74.162,25.566c-4.831,0-9.596-0.292-14.257-0.823
	c26.424,16.93,57.815,26.817,91.554,26.817c109.838,0,169.898-90.989,169.898-169.915c0-2.604-0.05-5.175-0.153-7.729
	C284.401,92.22,294.529,81.683,302.548,69.721z"/>
</svg>
